<?xml version="1.0" encoding="utf-8"?>
<!-- Generator: Adobe Illustrator 15.0.0, SVG Export Plug-In  -->
<!DOCTYPE svg PUBLIC "-//W3C//DTD SVG 1.1//EN" "http://www.w3.org/Graphics/SVG/1.1/DTD/svg11.dtd" [
	<!ENTITY ns_flows "http://ns.adobe.com/Flows/1.0/">
]>
<svg version="1.1"
	 xmlns="http://www.w3.org/2000/svg" xmlns:xlink="http://www.w3.org/1999/xlink" xmlns:a="http://ns.adobe.com/AdobeSVGViewerExtensions/3.0/"
	 x="0px" y="0px" width="700px" height="700px" viewBox="-52.569 -48.448 700 700"
	 overflow="visible" enable-background="new -52.569 -48.448 700 700" xml:space="preserve">
<defs>
</defs>
<g>
	<path fill="#71CCDC" d="M13.805,351.211c6.635,27.394,16.801,53.562,30.424,77.636c6.816,12.023,14.439,23.533,22.83,34.399
		c8.419,10.843,17.519,21.108,27.333,30.599c9.825,9.474,20.232,18.296,31.236,26.257c5.496,3.987,11.141,7.753,16.89,11.331
		c5.744,3.588,11.612,6.961,17.589,10.111c23.927,12.555,49.5,21.738,75.788,26.911c13.132,2.625,26.425,4.322,39.757,4.998
		c13.332,0.678,26.689,0.363,39.956-0.833c13.25-1.219,26.463-3.416,39.375-6.536c12.92-3.142,25.626-7.076,37.936-12.002
		c12.314-4.903,24.245-10.725,35.682-17.375c11.465-6.603,22.434-14.055,32.793-22.272c10.369-8.209,20.086-17.222,29.169-26.824
		c9.088-9.6,17.472-19.868,25.062-30.692c7.603-10.817,14.354-22.219,20.34-33.999c5.989-11.781,11.113-24.003,15.31-36.535
		c8.333-25.077,13.233-51.33,14.058-77.816c0.395-13.237-0.043-26.522-1.504-39.734c-1.44-13.215-3.883-26.348-7.189-39.237
		c-6.535-25.822-17.017-50.64-30.732-73.639c-27.514-45.973-68.83-84.104-117.881-108.345
		c-12.254-6.065-24.965-11.323-38.055-15.579c-13.065-4.345-26.506-7.668-40.16-10.114c-27.323-4.844-55.535-5.767-83.707-2.982
		l-0.011,0.001c-2.994,0.296-5.66-1.891-5.956-4.884c-0.27-2.725,1.52-5.179,4.101-5.82c28.484-7.11,58.389-9.647,88.16-7.489
		c14.893,1.041,29.737,3.328,44.389,6.651c14.629,3.408,29.065,7.875,43.101,13.467c14.021,5.619,27.684,12.254,40.782,19.931
		c13.084,7.7,25.631,16.38,37.504,25.955c23.661,19.239,44.627,42.059,61.634,67.688c17.126,25.552,30.195,53.898,38.95,83.523
		c4.35,14.832,7.537,29.978,9.665,45.298c2.106,15.324,3.157,30.835,2.898,46.35c-0.703,62.104-20.867,123.929-56.816,174.645
		c-8.952,12.701-18.833,24.745-29.543,36.004c-10.713,11.258-22.326,21.648-34.6,31.171c-12.282,9.513-25.268,18.114-38.814,25.706
		c-13.573,7.546-27.709,14.06-42.229,19.498c-14.524,5.418-29.42,9.829-44.56,12.986c-15.147,3.181-30.451,5.253-45.876,6.209
		c-15.41,0.98-30.889,0.729-46.241-0.667c-15.352-1.395-30.587-3.901-45.518-7.566c-29.843-7.391-58.5-19.17-84.618-34.961
		c-6.536-3.935-12.921-8.104-19.139-12.496c-6.213-4.401-12.235-9.057-18.085-13.903c-11.687-9.707-22.675-20.217-32.716-31.536
		c-20.138-22.575-36.764-48.113-49.021-75.427c-12.289-27.283-20.271-56.347-23.498-85.616l-0.003-0.028
		c-0.424-3.843,2.348-7.302,6.191-7.726C9.776,345.511,12.991,347.836,13.805,351.211z"/>
</g>
<g>
	<g>
		<path fill="#FFFFFF" d="M266.053,410.492c-2.35,1.08-4.84,1.738-7.467,1.984c-2.629,0.244-4.949,0.367-6.962,0.367
			c-4.027,0-7.551-0.955-10.57-2.869c-3.02-1.91-4.53-5.072-4.53-9.482c0-4.117,1.368-7.059,4.11-8.824
			c2.739-1.764,6.234-2.939,10.486-3.527c0.559,0,1.229-0.074,2.014-0.221c0.78-0.148,1.678-0.268,2.685-0.367
			c4.92-0.588,7.382-1.861,7.382-3.824c0-1.469-0.868-2.424-2.602-2.865c-1.734-0.443-3.328-0.662-4.78-0.662
			c-1.568,0-2.965,0.197-4.194,0.588c-1.232,0.393-2.127,1.129-2.686,2.205h-11.24c0.445-3.037,2.013-5.537,4.697-7.5
			c3.021-2.252,7.325-3.379,12.92-3.379c6.262,0,10.959,0.932,14.093,2.791c3.243,1.963,4.865,4.707,4.865,8.234v13.381
			c0,3.922-0.812,6.984-2.433,9.191C270.218,407.917,268.29,409.511,266.053,410.492z M263.369,392.406
			c-1.567,0.686-3.749,1.322-6.543,1.912l-3.859,0.734c-2.013,0.49-3.469,1.127-4.362,1.91c-0.784,1.08-1.175,2.156-1.175,3.236
			c0,1.471,0.504,2.646,1.51,3.527c1.008,0.787,2.459,1.176,4.362,1.176c3.131,0,5.592-0.781,7.383-2.352
			c1.788-1.568,2.685-3.725,2.685-6.469V392.406z"/>
		<path fill="#FFFFFF" d="M274.945,399.167h11.408c0.11,1.961,0.949,3.434,2.518,4.412c1.678,0.98,3.913,1.471,6.71,1.471
			c2.015,0,3.747-0.342,5.2-1.029c1.344-0.684,2.014-1.617,2.014-2.795c0-1.766-2.348-3.088-7.044-3.969
			c-2.014-0.295-3.524-0.588-4.531-0.883c-5.929-1.273-9.898-2.793-11.911-4.559c-2.239-1.764-3.355-4.115-3.355-7.057
			c0-3.725,1.62-6.812,4.865-9.266c3.355-2.252,7.718-3.379,13.087-3.379c5.814,0,10.457,1.127,13.925,3.379
			c3.244,2.453,4.975,5.641,5.201,9.559h-7.215c-2.125,0-3.75-0.832-4.867-2.5c-0.447-0.389-0.895-0.783-1.34-1.176
			c-1.343-0.881-3.189-1.322-5.538-1.322c-2.238,0-3.916,0.293-5.033,0.881c-1.006,0.588-1.51,1.471-1.51,2.646
			c0,1.568,2.907,2.893,8.725,3.971c0.671,0.197,1.258,0.344,1.761,0.441c0.503,0.1,0.978,0.146,1.427,0.146
			c5.703,1.275,9.674,2.746,11.912,4.412c2.123,1.766,3.186,4.117,3.186,7.057c0,4.316-1.789,7.645-5.367,10
			c-3.355,2.156-8.391,3.234-15.1,3.234c-6.375,0-11.131-1.125-14.261-3.381c-3.245-2.256-4.865-5.537-4.865-9.854V399.167z"/>
		<path fill="#FFFFFF" d="M328.128,372.996v14.41l14.264-14.41h14.092l-15.938,14.998l16.105,24.113H342.56l-8.223-13.234
			c-1.678-2.645-3.133-3.771-4.363-3.379s-1.846,0.98-1.846,1.764v5.441v9.408h-11.744v-50.582h6.039
			c1.566,0,2.91,0.492,4.029,1.473c1.115,0.98,1.676,2.107,1.676,3.381V372.996z"/>
	</g>
</g>
<path fill="#FFFFFF" d="M280.421,146.479h27.763l61.975,149.473h-37.184l-11.402-30.85h-66.438l-10.907,30.85h-37.185
	l56.521-139.479C266.54,149.812,272.155,146.479,280.421,146.479z M288.353,176.46l-23.797,63.439h47.597L288.353,176.46z"/>
</svg>
