<?xml version="1.0" encoding="utf-8"?>
<!-- Generator: Adobe Illustrator 15.0.0, SVG Export Plug-In  -->
<!DOCTYPE svg PUBLIC "-//W3C//DTD SVG 1.1//EN" "http://www.w3.org/Graphics/SVG/1.1/DTD/svg11.dtd" [
	<!ENTITY ns_flows "http://ns.adobe.com/Flows/1.0/">
]>
<svg version="1.1"
	 xmlns="http://www.w3.org/2000/svg" xmlns:xlink="http://www.w3.org/1999/xlink" xmlns:a="http://ns.adobe.com/AdobeSVGViewerExtensions/3.0/"
	 x="0px" y="0px" width="700px" height="700px" viewBox="-51.97 -48.448 700 700"
	 overflow="visible" enable-background="new -51.97 -48.448 700 700" xml:space="preserve">
<defs>
</defs>
<g>
	<path fill="#71CCDC" d="M13.805,351.211c6.635,27.394,16.801,53.562,30.424,77.636c6.817,12.023,14.439,23.533,22.83,34.399
		c8.42,10.843,17.519,21.109,27.334,30.599c9.825,9.474,20.232,18.296,31.236,26.257c5.496,3.987,11.141,7.753,16.89,11.331
		c5.743,3.588,11.612,6.961,17.588,10.111c23.927,12.555,49.5,21.737,75.789,26.911c13.131,2.625,26.425,4.322,39.757,4.998
		c13.332,0.678,26.689,0.363,39.956-0.833c13.25-1.219,26.463-3.416,39.375-6.536c12.92-3.142,25.626-7.076,37.936-12.002
		c12.314-4.903,24.245-10.724,35.682-17.375c11.465-6.602,22.434-14.054,32.793-22.272c10.369-8.208,20.087-17.222,29.17-26.824
		c9.088-9.6,17.472-19.868,25.062-30.691c7.603-10.818,14.354-22.22,20.34-34c5.989-11.781,11.113-24.003,15.31-36.535
		c8.333-25.077,13.233-51.33,14.058-77.816c0.395-13.236-0.043-26.522-1.504-39.734c-1.441-13.214-3.884-26.349-7.19-39.237
		c-6.534-25.822-17.016-50.64-30.732-73.639c-27.514-45.973-68.83-84.104-117.881-108.345
		c-12.254-6.065-24.965-11.323-38.055-15.579c-13.065-4.344-26.507-7.668-40.16-10.113c-27.324-4.844-55.535-5.767-83.708-2.982
		l-0.011,0.001c-2.994,0.296-5.66-1.891-5.956-4.884c-0.269-2.725,1.52-5.179,4.101-5.82c28.484-7.11,58.388-9.647,88.161-7.489
		c14.892,1.041,29.737,3.328,44.389,6.65c14.629,3.408,29.065,7.875,43.101,13.467c14.021,5.619,27.684,12.254,40.783,19.931
		c13.083,7.7,25.63,16.38,37.504,25.955c23.66,19.239,44.626,42.059,61.633,67.688c17.126,25.552,30.195,53.898,38.951,83.524
		c4.349,14.832,7.536,29.977,9.664,45.297c2.107,15.324,3.158,30.836,2.899,46.351c-0.702,62.104-20.867,123.93-56.817,174.645
		c-8.951,12.701-18.832,24.746-29.542,36.005c-10.714,11.257-22.327,21.648-34.6,31.17c-12.283,9.513-25.269,18.114-38.815,25.706
		c-13.573,7.546-27.709,14.06-42.229,19.498c-14.524,5.419-29.421,9.829-44.56,12.986c-15.147,3.181-30.451,5.253-45.877,6.209
		c-15.409,0.98-30.888,0.729-46.24-0.667c-15.351-1.395-30.587-3.901-45.517-7.567c-29.844-7.39-58.5-19.169-84.618-34.96
		c-6.536-3.935-12.921-8.104-19.139-12.496c-6.212-4.401-12.235-9.057-18.085-13.903c-11.687-9.707-22.676-20.216-32.716-31.536
		c-20.138-22.575-36.765-48.113-49.021-75.427c-12.289-27.283-20.271-56.347-23.498-85.616l-0.003-0.028
		c-0.424-3.843,2.348-7.302,6.191-7.726C9.776,345.511,12.991,347.836,13.805,351.211z"/>
</g>
<g>
	<g>
		<path fill="#FFFFFF" d="M208.004,384.023c-1.679-2.059-3.972-3.088-6.88-3.088c-3.133,0-5.536,0.982-7.214,2.939
			c-1.678,1.963-2.517,4.66-2.517,8.088v20.145h-11.409v-50.582h5.705c1.564,0,2.907,0.492,4.026,1.473
			c1.117,0.98,1.678,2.158,1.678,3.527v11.617c2.014-2.941,4.865-4.801,8.557-5.588c3.691-0.783,7.214-0.588,10.57,0.588
			c3.13,1.176,5.759,3.039,7.885,5.588c2.123,2.551,3.188,6.078,3.188,10.586v22.791h-11.242v-20.291
			c0-1.471-0.141-2.816-0.419-4.045C209.652,386.548,209.01,385.296,208.004,384.023z"/>
		<path fill="#FFFFFF" d="M254.646,400.05h8.389c-1.232,4.117-3.582,7.256-7.047,9.412c-3.468,2.256-7.83,3.381-13.086,3.381
			c-6.376,0-11.354-1.812-14.933-5.439c-3.581-3.529-5.369-8.578-5.369-15.146c0-6.273,1.733-11.174,5.202-14.703
			c3.577-3.625,8.556-5.439,14.931-5.439c6.712,0,11.913,1.764,15.604,5.293c3.578,3.627,5.368,8.674,5.368,15.145
			c0,0.393,0,0.734,0,1.029c0,0.293,0,0.492,0,0.588c0,0.492-0.057,0.834-0.167,1.029h-29.025c0.11,3.039,0.949,5.293,2.518,6.764
			c1.451,1.57,3.633,2.352,6.542,2.352c1.9,0,3.523-0.342,4.866-1.027c0.336-0.098,0.643-0.271,0.923-0.518
			c0.277-0.242,0.587-0.512,0.923-0.807c0.11-0.293,0.529-0.686,1.258-1.176C252.267,400.294,253.303,400.05,254.646,400.05z
			 M234.512,388.582h17.113c-0.226-2.646-1.006-4.607-2.349-5.883c-1.455-1.369-3.523-2.057-6.208-2.057
			c-2.462,0-4.475,0.688-6.039,2.057C235.461,384.074,234.623,386.035,234.512,388.582z"/>
		<path fill="#FFFFFF" d="M265.55,412.107V393.14c0-3.824,0.643-7.033,1.93-9.631c1.284-2.598,3.047-4.68,5.285-6.25
			c2.123-1.471,4.613-2.547,7.466-3.234c2.853-0.684,5.788-1.029,8.808-1.029c0.224,0,0.504,0,0.84,0s0.613,0,0.839,0v10.439h-3.859
			c-3.245,0-5.648,0.686-7.214,2.059c-1.568,1.375-2.35,3.529-2.35,6.469v20.145H265.55z"/>
		<path fill="#FFFFFF" d="M297.427,408.58c-2.348-1.766-4.026-4.143-5.033-7.133c-1.006-2.988-1.51-6.102-1.51-9.336
			c0-2.646,0.42-5.293,1.259-7.941c0.839-2.646,2.151-4.85,3.942-6.615c2.907-2.941,6.653-4.682,11.242-5.221
			c4.584-0.537,8.723-0.219,12.414,0.957c4.248,1.469,7.383,4.02,9.396,7.645c1.9,3.234,2.85,7.012,2.85,11.322
			c0,3.139-0.393,5.834-1.172,8.088c-0.784,2.256-1.791,4.168-3.021,5.732c-2.684,3.238-6.098,5.248-10.233,6.029
			c-3.691,0.883-7.41,0.957-11.156,0.221C302.656,411.593,299.664,410.343,297.427,408.58z M305.482,382.699
			c-2.35,2.256-3.414,5.613-3.189,10.074c0.223,4.459,1.176,7.572,2.853,9.338c0.672,0.783,1.846,1.445,3.524,1.984
			c1.676,0.539,3.382,0.588,5.116,0.146c1.733-0.441,3.272-1.543,4.614-3.309s2.068-4.605,2.181-8.527
			c0-3.529-0.644-6.178-1.929-7.943c-1.287-1.764-2.77-2.887-4.447-3.379c-1.678-0.49-3.354-0.518-5.031-0.074
			C307.496,381.451,306.261,382.015,305.482,382.699z"/>
		<path fill="#FFFFFF" d="M364.875,400.05h8.389c-1.233,4.117-3.582,7.256-7.047,9.412c-3.468,2.256-7.831,3.381-13.086,3.381
			c-6.377,0-11.354-1.812-14.932-5.439c-3.582-3.529-5.369-8.578-5.369-15.146c0-6.273,1.732-11.174,5.201-14.703
			c3.577-3.625,8.556-5.439,14.93-5.439c6.713,0,11.914,1.764,15.604,5.293c3.578,3.627,5.369,8.674,5.369,15.145
			c0,0.393,0,0.734,0,1.029c0,0.293,0,0.492,0,0.588c0,0.492-0.058,0.834-0.167,1.029h-29.025c0.109,3.039,0.95,5.293,2.518,6.764
			c1.45,1.57,3.633,2.352,6.544,2.352c1.9,0,3.521-0.342,4.863-1.027c0.337-0.098,0.643-0.271,0.923-0.518
			c0.278-0.242,0.588-0.512,0.923-0.807c0.111-0.293,0.529-0.686,1.258-1.176C362.498,400.294,363.533,400.05,364.875,400.05z
			 M344.741,388.582h17.114c-0.227-2.646-1.007-4.607-2.349-5.883c-1.456-1.369-3.524-2.057-6.209-2.057
			c-2.462,0-4.476,0.688-6.039,2.057C345.691,384.074,344.85,386.035,344.741,388.582z"/>
		<path fill="#FFFFFF" d="M374.773,399.167h11.407c0.111,1.961,0.95,3.434,2.519,4.412c1.677,0.98,3.914,1.471,6.71,1.471
			c2.013,0,3.746-0.342,5.202-1.029c1.342-0.684,2.014-1.617,2.014-2.795c0-1.766-2.351-3.088-7.049-3.969
			c-2.013-0.295-3.523-0.588-4.528-0.883c-5.931-1.273-9.898-2.793-11.911-4.559c-2.239-1.764-3.357-4.115-3.357-7.057
			c0-3.725,1.621-6.812,4.866-9.266c3.354-2.252,7.718-3.379,13.085-3.379c5.816,0,10.459,1.127,13.927,3.379
			c3.242,2.453,4.976,5.641,5.2,9.559h-7.215c-2.126,0-3.748-0.832-4.863-2.5c-0.448-0.389-0.897-0.783-1.344-1.176
			c-1.342-0.881-3.188-1.322-5.537-1.322c-2.238,0-3.915,0.293-5.031,0.881c-1.008,0.588-1.511,1.471-1.511,2.646
			c0,1.568,2.907,2.893,8.725,3.971c0.671,0.197,1.258,0.344,1.762,0.441c0.503,0.1,0.978,0.146,1.425,0.146
			c5.705,1.275,9.674,2.746,11.912,4.412c2.124,1.766,3.189,4.117,3.189,7.057c0,4.316-1.791,7.645-5.37,10
			c-3.356,2.156-8.388,3.234-15.101,3.234c-6.375,0-11.129-1.125-14.26-3.381c-3.245-2.256-4.865-5.537-4.865-9.854V399.167z"/>
	</g>
</g>
<path fill="#FFFFFF" d="M218.448,295.951v-133.83c0-4.345,1.735-8.038,5.205-11.08c3.472-3.041,7.686-4.562,12.644-4.562h17.353
	v55.618h70.403v-55.618h35.697v149.473h-35.697v-66.479h-70.403v66.479H218.448z"/>
</svg>
