<?xml version="1.0" encoding="utf-8"?>
<!-- Generator: Adobe Illustrator 15.0.0, SVG Export Plug-In  -->
<!DOCTYPE svg PUBLIC "-//W3C//DTD SVG 1.1//EN" "http://www.w3.org/Graphics/SVG/1.1/DTD/svg11.dtd" [
	<!ENTITY ns_flows "http://ns.adobe.com/Flows/1.0/">
]>
<svg version="1.1"
	 xmlns="http://www.w3.org/2000/svg" xmlns:xlink="http://www.w3.org/1999/xlink" xmlns:a="http://ns.adobe.com/AdobeSVGViewerExtensions/3.0/"
	 x="0px" y="0px" width="700px" height="700px" viewBox="-52.21 -48.447 700 700"
	 overflow="visible" enable-background="new -52.21 -48.447 700 700" xml:space="preserve">
<defs>
</defs>
<g>
	<path fill="#71CCDC" d="M13.805,351.212c6.634,27.394,16.799,53.562,30.421,77.637c6.816,12.023,14.439,23.533,22.829,34.399
		c8.42,10.844,17.519,21.109,27.334,30.599c9.825,9.475,20.232,18.296,31.236,26.257c5.495,3.987,11.141,7.753,16.89,11.331
		c5.744,3.588,11.612,6.961,17.589,10.11c23.927,12.556,49.501,21.738,75.789,26.911c13.131,2.625,26.425,4.323,39.757,4.998
		c13.332,0.678,26.689,0.363,39.955-0.833c13.251-1.219,26.463-3.417,39.376-6.537c12.92-3.143,25.626-7.077,37.936-12.002
		c12.314-4.904,24.245-10.725,35.682-17.376c11.465-6.603,22.434-14.055,32.793-22.272c10.369-8.209,20.087-17.223,29.169-26.825
		c9.089-9.6,17.473-19.868,25.062-30.691c7.603-10.817,14.354-22.22,20.34-34c5.989-11.781,11.113-24.003,15.31-36.535
		c8.333-25.077,13.233-51.33,14.058-77.816c0.395-13.237-0.043-26.522-1.504-39.734c-1.44-13.215-3.884-26.347-7.19-39.236
		c-6.536-25.822-17.019-50.64-30.735-73.639c-27.515-45.973-68.832-84.104-117.883-108.344
		c-12.254-6.065-24.965-11.323-38.055-15.579c-13.065-4.344-26.507-7.668-40.161-10.113c-27.323-4.844-55.535-5.766-83.707-2.982
		l-0.011,0.001c-2.994,0.296-5.66-1.891-5.956-4.884c-0.269-2.725,1.52-5.179,4.101-5.82c28.484-7.11,58.389-9.647,88.16-7.49
		c14.893,1.041,29.737,3.328,44.389,6.65c14.63,3.408,29.066,7.874,43.102,13.467c14.021,5.619,27.684,12.253,40.783,19.931
		c13.084,7.7,25.631,16.38,37.504,25.955c23.661,19.239,44.627,42.059,61.634,67.688c17.127,25.551,30.197,53.897,38.953,83.522
		c4.35,14.831,7.539,29.978,9.666,45.298c2.107,15.324,3.158,30.836,2.899,46.351c-0.703,62.104-20.867,123.929-56.817,174.645
		c-8.951,12.701-18.833,24.746-29.542,36.005c-10.714,11.257-22.327,21.648-34.6,31.17c-12.283,9.513-25.269,18.115-38.815,25.707
		c-13.573,7.546-27.709,14.06-42.229,19.498c-14.524,5.419-29.42,9.829-44.56,12.987c-15.146,3.181-30.451,5.253-45.876,6.21
		c-15.409,0.98-30.889,0.729-46.24-0.667c-15.352-1.395-30.587-3.901-45.518-7.566c-29.844-7.39-58.5-19.169-84.618-34.96
		c-6.536-3.934-12.921-8.104-19.139-12.496c-6.213-4.401-12.235-9.056-18.085-13.902c-11.687-9.707-22.676-20.217-32.716-31.537
		c-20.139-22.575-36.765-48.113-49.021-75.427c-12.288-27.283-20.271-56.348-23.495-85.617l-0.003-0.029
		c-0.423-3.843,2.349-7.301,6.191-7.725C9.776,345.512,12.991,347.837,13.805,351.212z"/>
</g>
<g>
	<g>
		<path fill="#FFFFFF" d="M165.968,421.518v-14.557c-1.455,2.059-3.246,3.58-5.369,4.559c-2.238,0.883-4.698,1.324-7.382,1.324
			c-5.37,0-9.677-1.859-12.919-5.59c-3.245-3.623-4.865-8.623-4.865-14.996c0-6.076,1.62-10.977,4.865-14.703
			c1.678-1.766,3.913-3.113,6.711-4.043c2.794-0.932,5.646-1.396,8.557-1.396c5.368,0,10.344,1.248,14.932,3.748
			c4.585,2.5,6.879,7.182,6.879,14.041v36.613h-5.705c-1.566,0-2.909-0.492-4.026-1.469
			C166.526,424.068,165.968,422.891,165.968,421.518z M146.841,392.699c0,3.529,0.839,6.322,2.518,8.381
			c1.677,2.059,3.968,3.088,6.878,3.088c3.13,0,5.536-1.029,7.215-3.088c1.677-1.861,2.517-4.654,2.517-8.381
			c0-3.822-0.785-6.764-2.35-8.824c-1.678-2.057-4.026-3.086-7.047-3.086c-3.133,0-5.536,1.029-7.213,3.086
			C147.68,385.936,146.841,388.877,146.841,392.699z"/>
		<path fill="#FFFFFF" d="M218.313,372.996v22.938c0,6.961-2.071,11.52-6.208,13.676c-4.139,2.156-8.668,3.234-13.59,3.234
			c-4.81-0.199-9.201-1.371-13.17-3.527c-3.972-2.158-5.956-6.617-5.956-13.383v-22.938h11.744v24.996
			c0,2.354,0.781,4.068,2.35,5.146c1.565,1.08,3.355,1.617,5.368,1.617c2.014,0,3.83-0.537,5.453-1.617
			c1.62-1.078,2.433-2.793,2.433-5.146v-19.996c0-1.373,0.529-2.549,1.595-3.529c1.061-0.979,2.433-1.471,4.109-1.471H218.313z"/>
		<path fill="#FFFFFF" d="M251.198,400.051h8.389c-1.232,4.117-3.581,7.256-7.046,9.412c-3.469,2.256-7.831,3.381-13.087,3.381
			c-6.376,0-11.354-1.812-14.933-5.439c-3.581-3.529-5.368-8.578-5.368-15.146c0-6.273,1.732-11.174,5.201-14.703
			c3.577-3.625,8.556-5.439,14.931-5.439c6.712,0,11.913,1.764,15.604,5.293c3.578,3.627,5.369,8.674,5.369,15.145
			c0,0.393,0,0.734,0,1.029c0,0.293,0,0.492,0,0.588c0,0.492-0.058,0.834-0.168,1.029h-29.025c0.11,3.039,0.949,5.293,2.518,6.764
			c1.451,1.57,3.633,2.352,6.543,2.352c1.9,0,3.522-0.342,4.865-1.027c0.336-0.098,0.643-0.271,0.923-0.518
			c0.277-0.242,0.587-0.512,0.923-0.807c0.11-0.293,0.529-0.686,1.258-1.176C248.82,400.295,249.855,400.051,251.198,400.051z
			 M231.064,388.582h17.114c-0.226-2.646-1.007-4.607-2.35-5.883c-1.455-1.369-3.522-2.057-6.208-2.057
			c-2.461,0-4.475,0.688-6.039,2.057C232.013,384.074,231.174,386.035,231.064,388.582z"/>
		<path fill="#FFFFFF" d="M261.097,399.168h11.408c0.11,1.961,0.949,3.434,2.518,4.412c1.677,0.98,3.913,1.471,6.71,1.471
			c2.014,0,3.746-0.342,5.201-1.029c1.343-0.684,2.014-1.617,2.014-2.795c0-1.766-2.35-3.088-7.047-3.969
			c-2.013-0.295-3.523-0.588-4.53-0.883c-5.93-1.273-9.898-2.793-11.911-4.559c-2.239-1.764-3.356-4.115-3.356-7.057
			c0-3.725,1.621-6.812,4.866-9.266c3.355-2.252,7.718-3.379,13.086-3.379c5.815,0,10.458,1.127,13.926,3.379
			c3.243,2.453,4.975,5.641,5.2,9.559h-7.213c-2.126,0-3.749-0.832-4.865-2.5c-0.448-0.389-0.896-0.783-1.342-1.176
			c-1.343-0.881-3.188-1.322-5.537-1.322c-2.239,0-3.916,0.293-5.033,0.881c-1.007,0.588-1.51,1.471-1.51,2.646
			c0,1.568,2.907,2.893,8.725,3.971c0.671,0.197,1.258,0.344,1.761,0.441c0.504,0.1,0.979,0.146,1.426,0.146
			c5.705,1.275,9.674,2.746,11.913,4.412c2.124,1.766,3.188,4.117,3.188,7.057c0,4.316-1.791,7.645-5.37,10
			c-3.355,2.156-8.389,3.234-15.1,3.234c-6.376,0-11.131-1.125-14.261-3.381c-3.245-2.256-4.865-5.537-4.865-9.854V399.168z"/>
		<path fill="#FFFFFF" d="M322.335,412.107c-3.691,0.195-7.691,0.148-11.998-0.146c-4.307-0.293-6.457-2.695-6.457-7.205v-43.23
			h6.039c1.453,0,2.74,0.492,3.859,1.473c1.115,0.98,1.678,2.158,1.678,3.527v6.617h6.879v2.059c0,1.469-0.561,2.672-1.678,3.602
			c-1.119,0.934-2.461,1.398-4.027,1.398h-1.174v21.762c0,1.668,1.115,2.5,3.355,2.5h3.523V412.107z"/>
		<path fill="#FFFFFF" d="M324.349,361.525h6.039c1.564,0,2.908,0.492,4.025,1.473c1.119,0.98,1.68,2.158,1.68,3.527v3.09h-11.744
			V361.525z M324.349,372.996h6.039c1.564,0,2.908,0.492,4.025,1.471c1.119,0.98,1.68,2.156,1.68,3.529v34.111h-11.744V372.996z"/>
		<path fill="#FFFFFF" d="M342.132,408.58c-2.348-1.766-4.027-4.143-5.033-7.133c-1.006-2.988-1.51-6.102-1.51-9.336
			c0-2.646,0.42-5.293,1.258-7.941c0.838-2.646,2.152-4.85,3.943-6.615c2.906-2.941,6.652-4.682,11.24-5.221
			c4.586-0.537,8.727-0.219,12.416,0.957c4.25,1.469,7.381,4.02,9.396,7.645c1.9,3.234,2.852,7.012,2.852,11.322
			c0,3.139-0.393,5.834-1.176,8.088c-0.783,2.256-1.789,4.168-3.018,5.732c-2.688,3.238-6.098,5.248-10.236,6.029
			c-3.691,0.883-7.412,0.957-11.158,0.221C347.36,411.594,344.366,410.344,342.132,408.58z M350.185,382.699
			c-2.348,2.256-3.412,5.613-3.188,10.074c0.225,4.459,1.174,7.572,2.852,9.338c0.672,0.783,1.846,1.445,3.525,1.984
			c1.678,0.539,3.379,0.588,5.115,0.146c1.734-0.441,3.271-1.543,4.615-3.309c1.342-1.766,2.068-4.605,2.18-8.527
			c0-3.529-0.645-6.178-1.928-7.943c-1.287-1.764-2.77-2.887-4.445-3.379c-1.68-0.49-3.357-0.518-5.035-0.074
			C352.198,381.451,350.968,382.016,350.185,382.699z"/>
		<path fill="#FFFFFF" d="M417.464,412.107h-5.873c-1.678,0-3.049-0.465-4.111-1.396c-1.062-0.93-1.592-2.131-1.592-3.604v-19.994
			c0-2.354-0.814-4.068-2.434-5.148c-1.625-1.076-3.439-1.617-5.453-1.617c-2.012,0-3.803,0.541-5.369,1.617
			c-1.568,1.08-2.348,2.795-2.348,5.148v24.994H378.54V389.17c0-6.664,1.982-11.125,5.953-13.381
			c3.971-2.252,8.361-3.479,13.172-3.674c4.92,0,9.451,1.127,13.59,3.379c4.137,2.256,6.209,6.816,6.209,13.676V412.107z"/>
		<path fill="#FFFFFF" d="M418.302,399.168h11.408c0.109,1.961,0.951,3.434,2.518,4.412c1.676,0.98,3.914,1.471,6.711,1.471
			c2.014,0,3.746-0.342,5.201-1.029c1.342-0.684,2.014-1.617,2.014-2.795c0-1.766-2.352-3.088-7.047-3.969
			c-2.014-0.295-3.523-0.588-4.531-0.883c-5.928-1.273-9.898-2.793-11.91-4.559c-2.24-1.764-3.355-4.115-3.355-7.057
			c0-3.725,1.619-6.812,4.863-9.266c3.357-2.252,7.719-3.379,13.088-3.379c5.814,0,10.457,1.127,13.924,3.379
			c3.244,2.453,4.977,5.641,5.203,9.559h-7.215c-2.127,0-3.75-0.832-4.865-2.5c-0.449-0.389-0.898-0.783-1.342-1.176
			c-1.344-0.881-3.189-1.322-5.537-1.322c-2.24,0-3.918,0.293-5.033,0.881c-1.008,0.588-1.51,1.471-1.51,2.646
			c0,1.568,2.906,2.893,8.723,3.971c0.672,0.197,1.258,0.344,1.762,0.441c0.504,0.1,0.98,0.146,1.428,0.146
			c5.705,1.275,9.672,2.746,11.912,4.412c2.121,1.766,3.188,4.117,3.188,7.057c0,4.316-1.791,7.645-5.369,10
			c-3.355,2.156-8.389,3.234-15.1,3.234c-6.375,0-11.131-1.125-14.26-3.381c-3.248-2.256-4.867-5.537-4.867-9.854V399.168z"/>
	</g>
</g>
<path fill="#FFFFFF" d="M331.735,289.434c-5.949,3.769-12.566,6.232-19.832,7.387c-7.934,1.738-16.36,2.607-25.285,2.607
	c-25.781,0-46.109-6.952-60.983-20.856c-14.548-13.904-21.814-33.023-21.814-57.356c0-24.332,7.267-43.594,21.814-57.79
	c15.533-14.189,35.86-21.291,60.983-21.291c24.789,0,45.117,7.102,60.982,21.291c14.875,14.488,22.312,33.749,22.312,57.79
	c0,10.429-1.488,19.988-4.465,28.678c-2.973,8.982-7.605,16.661-13.879,23.029l18.84,15.643l-9.42,8.256
	c-3.309,2.893-6.779,4.129-10.414,3.693c-3.641-0.434-6.615-1.52-8.924-3.258L331.735,289.434z M306.946,269.012l-17.848-15.208
	l5.948-5.649c2.643-2.606,6.199-4.195,10.66-4.778c4.463-0.578,8.182,0,11.156,1.737l9.916,6.952
	c2.307-3.761,4.291-8.398,5.949-13.904c0.326-2.606,0.742-5.282,1.238-8.039c0.496-2.749,0.746-5.716,0.746-8.907
	c0-16.22-4.301-29.112-12.893-38.672c-8.598-8.975-20.328-13.47-35.201-13.47c-15.207,0-26.943,4.495-35.201,13.47
	c-8.266,8.982-12.396,21.875-12.396,38.672c0,16.804,4.13,29.547,12.396,38.237c8.258,8.982,19.994,13.47,35.201,13.47
	c4.958,0,8.592-0.285,10.907-0.869C301.159,271.185,304.296,270.173,306.946,269.012z"/>
</svg>
