<?xml version="1.0" encoding="utf-8"?>
<!-- Generator: Adobe Illustrator 15.0.0, SVG Export Plug-In  -->
<!DOCTYPE svg PUBLIC "-//W3C//DTD SVG 1.1//EN" "http://www.w3.org/Graphics/SVG/1.1/DTD/svg11.dtd" [
	<!ENTITY ns_flows "http://ns.adobe.com/Flows/1.0/">
]>
<svg version="1.1"
	 xmlns="http://www.w3.org/2000/svg" xmlns:xlink="http://www.w3.org/1999/xlink" xmlns:a="http://ns.adobe.com/AdobeSVGViewerExtensions/3.0/"
	 x="0px" y="0px" width="700px" height="700px" viewBox="-52.612 -48.447 700 700"
	 overflow="visible" enable-background="new -52.612 -48.447 700 700" xml:space="preserve">
<defs>
</defs>
<g>
	<path fill="#71CCDC" d="M13.804,351.212c6.635,27.394,16.801,53.562,30.423,77.636c6.817,12.024,14.439,23.533,22.83,34.4
		c8.42,10.843,17.519,21.108,27.334,30.598c9.825,9.475,20.232,18.297,31.236,26.258c5.495,3.987,11.14,7.753,16.89,11.331
		c5.743,3.587,11.612,6.96,17.589,10.11c23.927,12.556,49.5,21.738,75.788,26.912c13.131,2.624,26.425,4.322,39.757,4.997
		c13.332,0.678,26.689,0.363,39.955-0.833c13.251-1.22,26.463-3.417,39.376-6.537c12.92-3.143,25.626-7.077,37.936-12.002
		c12.314-4.904,24.245-10.725,35.682-17.376c11.465-6.602,22.435-14.054,32.793-22.272c10.369-8.209,20.087-17.222,29.17-26.824
		c9.088-9.6,17.472-19.868,25.062-30.692c7.603-10.817,14.354-22.219,20.34-33.999c5.989-11.781,11.113-24.003,15.31-36.536
		c8.333-25.077,13.232-51.33,14.057-77.816c0.395-13.237-0.043-26.522-1.504-39.734c-1.44-13.215-3.884-26.347-7.19-39.236
		c-6.536-25.822-17.019-50.64-30.735-73.639c-27.515-45.973-68.832-84.104-117.883-108.344
		c-12.254-6.065-24.965-11.323-38.055-15.579c-13.065-4.344-26.507-7.668-40.16-10.113c-27.324-4.844-55.536-5.766-83.708-2.982
		l-0.011,0.001c-2.994,0.296-5.66-1.891-5.956-4.884c-0.269-2.725,1.52-5.179,4.101-5.82c28.484-7.11,58.389-9.647,88.16-7.49
		c14.893,1.041,29.737,3.328,44.389,6.65c14.63,3.408,29.066,7.874,43.102,13.466c14.021,5.619,27.684,12.254,40.783,19.931
		c13.084,7.7,25.631,16.38,37.504,25.955c23.661,19.239,44.627,42.058,61.635,67.688c17.126,25.551,30.196,53.897,38.952,83.522
		c4.35,14.831,7.539,29.978,9.666,45.298c2.107,15.324,3.158,30.835,2.899,46.351c-0.702,62.104-20.866,123.93-56.816,174.646
		c-8.951,12.701-18.832,24.745-29.542,36.004c-10.714,11.258-22.326,21.649-34.6,31.171c-12.283,9.513-25.269,18.114-38.815,25.706
		c-13.573,7.546-27.709,14.06-42.229,19.498c-14.524,5.419-29.42,9.829-44.56,12.987c-15.146,3.181-30.451,5.253-45.876,6.21
		c-15.409,0.98-30.889,0.729-46.241-0.667c-15.352-1.395-30.587-3.9-45.518-7.566c-29.844-7.39-58.5-19.169-84.619-34.961
		c-6.536-3.934-12.921-8.103-19.139-12.495c-6.213-4.401-12.236-9.057-18.085-13.903c-11.687-9.707-22.676-20.217-32.716-31.536
		c-20.138-22.576-36.765-48.113-49.021-75.427c-12.288-27.284-20.271-56.348-23.497-85.617l-0.003-0.028
		c-0.423-3.844,2.349-7.302,6.191-7.726C9.775,345.512,12.99,347.837,13.804,351.212z"/>
</g>
<g>
	<g>
		<path fill="#FFFFFF" d="M246.585,412.107c-3.691,0.195-7.691,0.148-11.996-0.146c-4.307-0.293-6.459-2.695-6.459-7.205v-43.23
			h6.039c1.453,0,2.739,0.492,3.859,1.473c1.116,0.98,1.678,2.158,1.678,3.527v6.617h6.879v2.059c0,1.469-0.562,2.672-1.679,3.602
			c-1.119,0.934-2.461,1.398-4.026,1.398h-1.174v21.762c0,1.668,1.117,2.5,3.354,2.5h3.524V412.107z"/>
		<path fill="#FFFFFF" d="M276.113,410.492c-2.349,1.08-4.84,1.738-7.467,1.984c-2.629,0.244-4.949,0.367-6.962,0.367
			c-4.026,0-7.551-0.955-10.57-2.869c-3.02-1.91-4.529-5.072-4.529-9.482c0-4.117,1.368-7.059,4.109-8.824
			c2.74-1.764,6.234-2.939,10.486-3.527c0.559,0,1.23-0.074,2.014-0.221c0.781-0.148,1.678-0.268,2.685-0.367
			c4.921-0.588,7.382-1.861,7.382-3.824c0-1.469-0.868-2.424-2.601-2.865c-1.734-0.443-3.329-0.662-4.781-0.662
			c-1.567,0-2.965,0.197-4.194,0.588c-1.232,0.393-2.126,1.129-2.685,2.205h-11.241c0.446-3.037,2.014-5.537,4.698-7.5
			c3.02-2.252,7.324-3.379,12.919-3.379c6.263,0,10.96,0.932,14.093,2.791c3.243,1.963,4.866,4.707,4.866,8.234v13.381
			c0,3.922-0.813,6.984-2.434,9.191C280.279,407.918,278.35,409.512,276.113,410.492z M273.429,392.406
			c-1.567,0.686-3.749,1.322-6.543,1.912l-3.859,0.734c-2.013,0.49-3.468,1.127-4.361,1.91c-0.785,1.08-1.176,2.156-1.176,3.236
			c0,1.471,0.504,2.646,1.511,3.527c1.007,0.787,2.459,1.176,4.362,1.176c3.131,0,5.592-0.781,7.383-2.352
			c1.787-1.568,2.684-3.725,2.684-6.469V392.406z"/>
		<path fill="#FFFFFF" d="M315.541,409.756v-2.502c-2.014,2.748-4.727,4.465-8.139,5.148c-3.41,0.684-6.795,0.441-10.149-0.734
			c-3.355-1.176-6.236-3.357-8.641-6.545c-2.406-3.184-3.607-7.373-3.607-12.57c0-6.078,1.594-11.002,4.782-14.777
			c3.188-3.773,8.305-5.66,15.351-5.66c5.367,0,10.344,1.273,14.932,3.82c4.586,2.551,6.881,7.256,6.881,14.117v20.732
			c0,6.859-2.295,11.543-6.881,14.041c-4.588,2.5-9.564,3.75-14.932,3.75c-10.292,0-16.667-4.215-19.126-12.645h12.247
			c0.895,1.371,2.266,2.424,4.112,3.162c1.844,0.734,3.689,0.93,5.535,0.588c1.846-0.344,3.523-1.301,5.033-2.869
			C314.451,415.244,315.316,412.891,315.541,409.756z M296.413,392.846c0,6.764,2.237,10.512,6.711,11.25
			c4.473,0.734,7.775-0.17,9.9-2.721c1.006-1.08,1.73-2.77,2.182-5.072c0.443-2.303,0.473-4.582,0.082-6.838
			c-0.395-2.254-1.316-4.264-2.768-6.029c-1.455-1.764-3.58-2.646-6.377-2.646c-3.803,0-6.373,1.227-7.717,3.674
			C297.085,386.916,296.413,389.711,296.413,392.846z"/>
		<path fill="#FFFFFF" d="M327.955,399.168h11.41c0.109,1.961,0.949,3.434,2.516,4.412c1.678,0.98,3.914,1.471,6.713,1.471
			c2.012,0,3.746-0.342,5.199-1.029c1.342-0.684,2.014-1.617,2.014-2.795c0-1.766-2.35-3.088-7.047-3.969
			c-2.012-0.295-3.523-0.588-4.529-0.883c-5.93-1.273-9.898-2.793-11.912-4.559c-2.238-1.764-3.355-4.115-3.355-7.057
			c0-3.725,1.621-6.812,4.865-9.266c3.355-2.252,7.717-3.379,13.086-3.379c5.814,0,10.457,1.127,13.926,3.379
			c3.244,2.453,4.977,5.641,5.201,9.559h-7.215c-2.125,0-3.75-0.832-4.865-2.5c-0.447-0.389-0.896-0.783-1.342-1.176
			c-1.344-0.881-3.189-1.322-5.537-1.322c-2.238,0-3.916,0.293-5.033,0.881c-1.006,0.588-1.508,1.471-1.508,2.646
			c0,1.568,2.904,2.893,8.723,3.971c0.67,0.197,1.258,0.344,1.762,0.441c0.504,0.1,0.979,0.146,1.426,0.146
			c5.705,1.275,9.674,2.746,11.912,4.412c2.123,1.766,3.188,4.117,3.188,7.057c0,4.316-1.789,7.645-5.367,10
			c-3.357,2.156-8.391,3.234-15.102,3.234c-6.375,0-11.131-1.125-14.26-3.381c-3.246-2.256-4.867-5.537-4.867-9.854V399.168z"/>
	</g>
</g>
<path fill="#FFFFFF" d="M271.993,295.952V172.985h-50.571v-10.863c0-4.345,1.735-8.038,5.205-11.08
	c3.472-3.041,7.686-4.562,12.644-4.562h118v26.506h-50.076v122.967H271.993z"/>
</svg>
