<?xml version="1.0" encoding="utf-8"?>
<!-- Generator: Adobe Illustrator 15.0.0, SVG Export Plug-In  -->
<!DOCTYPE svg PUBLIC "-//W3C//DTD SVG 1.1//EN" "http://www.w3.org/Graphics/SVG/1.1/DTD/svg11.dtd" [
	<!ENTITY ns_flows "http://ns.adobe.com/Flows/1.0/">
]>
<svg version="1.1"
	 xmlns="http://www.w3.org/2000/svg" xmlns:xlink="http://www.w3.org/1999/xlink" xmlns:a="http://ns.adobe.com/AdobeSVGViewerExtensions/3.0/"
	 x="0px" y="0px" width="700px" height="700px" viewBox="-51.866 -48.447 700 700"
	 overflow="visible" enable-background="new -51.866 -48.447 700 700" xml:space="preserve">
<defs>
</defs>
<g>
	<path fill="#71CCDC" d="M13.804,351.212c6.635,27.394,16.8,53.562,30.423,77.636c6.816,12.024,14.439,23.533,22.829,34.4
		c8.42,10.843,17.519,21.108,27.334,30.599c9.825,9.474,20.232,18.296,31.236,26.257c5.495,3.987,11.14,7.753,16.89,11.331
		c5.743,3.587,11.612,6.96,17.589,10.11c23.927,12.556,49.5,21.738,75.788,26.911c13.132,2.625,26.425,4.322,39.757,4.998
		c13.332,0.678,26.689,0.363,39.955-0.833c13.251-1.219,26.464-3.416,39.376-6.536c12.92-3.143,25.626-7.077,37.936-12.003
		c12.314-4.903,24.245-10.725,35.682-17.375c11.465-6.603,22.435-14.055,32.793-22.272c10.37-8.209,20.087-17.222,29.17-26.824
		c9.088-9.6,17.472-19.868,25.062-30.692c7.603-10.817,14.354-22.219,20.34-33.999c5.988-11.781,11.112-24.003,15.31-36.536
		c8.333-25.077,13.232-51.33,14.057-77.815c0.395-13.237-0.043-26.522-1.505-39.734c-1.44-13.215-3.883-26.348-7.189-39.237
		c-6.536-25.822-17.018-50.64-30.734-73.639c-27.515-45.973-68.832-84.104-117.882-108.345
		c-12.255-6.065-24.966-11.323-38.055-15.579c-13.066-4.345-26.507-7.668-40.161-10.114c-27.324-4.844-55.535-5.766-83.708-2.982
		l-0.011,0.001c-2.994,0.296-5.66-1.891-5.956-4.884c-0.269-2.725,1.52-5.179,4.101-5.82c28.484-7.11,58.389-9.647,88.161-7.49
		c14.892,1.041,29.737,3.328,44.389,6.651c14.629,3.408,29.065,7.874,43.101,13.467c14.021,5.619,27.684,12.254,40.783,19.931
		c13.084,7.7,25.631,16.38,37.504,25.955c23.661,19.239,44.627,42.059,61.634,67.688c17.127,25.552,30.196,53.898,38.952,83.523
		c4.35,14.832,7.538,29.977,9.666,45.298c2.106,15.324,3.158,30.835,2.899,46.35c-0.702,62.104-20.866,123.93-56.816,174.646
		c-8.952,12.701-18.833,24.745-29.543,36.005c-10.714,11.257-22.326,21.648-34.6,31.17c-12.283,9.513-25.269,18.114-38.815,25.706
		c-13.573,7.546-27.709,14.06-42.229,19.498c-14.524,5.419-29.42,9.829-44.56,12.987c-15.147,3.18-30.451,5.252-45.876,6.209
		c-15.41,0.98-30.889,0.729-46.241-0.667c-15.352-1.395-30.587-3.901-45.518-7.566c-29.844-7.391-58.5-19.169-84.619-34.961
		c-6.536-3.934-12.921-8.103-19.139-12.495c-6.213-4.401-12.236-9.057-18.085-13.903c-11.687-9.707-22.676-20.217-32.716-31.536
		c-20.139-22.575-36.765-48.113-49.021-75.427c-12.289-27.284-20.271-56.348-23.497-85.617l-0.003-0.028
		c-0.423-3.844,2.349-7.302,6.191-7.726C9.775,345.512,12.991,347.837,13.804,351.212z"/>
</g>
<path fill="#FFFFFF" d="M127.467,372.99v22.938c0,6.961-2.071,11.518-6.208,13.676c-4.139,2.156-8.669,3.232-13.59,3.232
	c-4.81-0.197-9.201-1.371-13.17-3.527c-3.972-2.156-5.956-6.617-5.956-13.381V372.99h11.744v24.994c0,2.354,0.781,4.07,2.349,5.148
	c1.565,1.08,3.355,1.617,5.369,1.617c2.013,0,3.83-0.537,5.452-1.617c1.62-1.078,2.433-2.795,2.433-5.148v-19.996
	c0-1.373,0.53-2.549,1.595-3.529c1.062-0.977,2.433-1.469,4.11-1.469H127.467z"/>
<path fill="#FFFFFF" d="M168.236,412.102h-5.872c-1.678,0-3.049-0.465-4.11-1.398c-1.064-0.93-1.595-2.131-1.595-3.602v-19.996
	c0-2.354-0.812-4.066-2.433-5.146c-1.622-1.078-3.439-1.617-5.452-1.617c-2.014,0-3.804,0.539-5.369,1.617
	c-1.567,1.08-2.349,2.793-2.349,5.146v24.996h-11.744v-22.938c0-6.666,1.984-11.127,5.956-13.383
	c3.969-2.252,8.36-3.477,13.17-3.674c4.921,0,9.451,1.129,13.59,3.381c4.137,2.256,6.208,6.814,6.208,13.676V412.102z"/>
<path fill="#FFFFFF" d="M198.604,410.484c-2.35,1.08-4.84,1.74-7.467,1.984c-2.63,0.244-4.949,0.367-6.963,0.367
	c-4.026,0-7.55-0.955-10.57-2.867c-3.02-1.91-4.529-5.072-4.529-9.482c0-4.117,1.368-7.059,4.11-8.824
	c2.739-1.764,6.234-2.939,10.486-3.527c0.558,0,1.229-0.076,2.013-0.223c0.781-0.146,1.679-0.266,2.686-0.365
	c4.92-0.588,7.382-1.863,7.382-3.824c0-1.471-0.868-2.426-2.602-2.867c-1.734-0.441-3.329-0.66-4.78-0.66
	c-1.568,0-2.966,0.195-4.195,0.588c-1.232,0.393-2.126,1.127-2.685,2.203h-11.241c0.446-3.035,2.014-5.537,4.698-7.498
	c3.02-2.252,7.325-3.381,12.919-3.381c6.263,0,10.96,0.934,14.094,2.793c3.242,1.961,4.865,4.707,4.865,8.234v13.381
	c0,3.92-0.812,6.982-2.433,9.191C202.77,407.91,200.84,409.506,198.604,410.484z M195.919,392.398
	c-1.566,0.688-3.748,1.322-6.543,1.912l-3.858,0.734c-2.014,0.492-3.469,1.129-4.362,1.912c-0.784,1.08-1.175,2.156-1.175,3.234
	c0,1.471,0.503,2.646,1.51,3.529c1.008,0.785,2.459,1.176,4.362,1.176c3.131,0,5.592-0.783,7.383-2.352
	c1.787-1.568,2.684-3.727,2.684-6.471V392.398z"/>
<path fill="#FFFFFF" d="M247.427,412.102h-5.873c-1.677,0-3.049-0.465-4.109-1.398c-1.064-0.93-1.595-2.131-1.595-3.602v-19.996
	c0-2.354-0.812-4.066-2.433-5.146c-1.623-1.078-3.439-1.617-5.453-1.617c-2.013,0-3.803,0.539-5.368,1.617
	c-1.568,1.08-2.349,2.793-2.349,5.146v24.996h-11.744v-22.938c0-6.666,1.983-11.127,5.955-13.383
	c3.97-2.252,8.36-3.477,13.171-3.674c4.921,0,9.45,1.129,13.59,3.381c4.136,2.256,6.208,6.814,6.208,13.676V412.102z"/>
<path fill="#FFFFFF" d="M248.266,399.16h11.408c0.11,1.963,0.949,3.434,2.518,4.414c1.677,0.98,3.913,1.469,6.71,1.469
	c2.014,0,3.746-0.342,5.201-1.029c1.343-0.684,2.014-1.615,2.014-2.793c0-1.766-2.35-3.088-7.047-3.971
	c-2.013-0.293-3.523-0.588-4.53-0.881c-5.929-1.273-9.898-2.795-11.911-4.561c-2.239-1.764-3.355-4.115-3.355-7.057
	c0-3.723,1.619-6.811,4.865-9.264c3.355-2.252,7.718-3.381,13.086-3.381c5.815,0,10.458,1.129,13.926,3.381
	c3.243,2.453,4.975,5.639,5.201,9.559h-7.215c-2.126,0-3.749-0.832-4.865-2.5c-0.448-0.391-0.896-0.783-1.342-1.176
	c-1.343-0.883-3.188-1.324-5.537-1.324c-2.239,0-3.916,0.295-5.033,0.883c-1.007,0.588-1.51,1.469-1.51,2.645
	c0,1.57,2.907,2.895,8.725,3.973c0.671,0.197,1.258,0.344,1.761,0.441s0.979,0.146,1.427,0.146c5.704,1.275,9.673,2.744,11.912,4.41
	c2.123,1.766,3.188,4.117,3.188,7.057c0,4.316-1.791,7.646-5.369,10.002c-3.355,2.156-8.389,3.232-15.1,3.232
	c-6.375,0-11.131-1.125-14.261-3.381c-3.245-2.256-4.865-5.537-4.865-9.854V399.16z"/>
<path fill="#FFFFFF" d="M339.198,412.102h-11.744l-6.877-27.939l-6.88,27.939h-11.744l-12.247-39.111h11.408l7.046,27.055
	l6.376-27.055h11.914l6.039,27.055l6.207-23.527c0.67-2.352,2.457-3.527,5.369-3.527h7.382L339.198,412.102z"/>
<path fill="#FFFFFF" d="M385.505,400.045h8.389c-1.23,4.117-3.581,7.254-7.045,9.41c-3.469,2.256-7.83,3.381-13.088,3.381
	c-6.374,0-11.354-1.811-14.933-5.439c-3.58-3.529-5.368-8.578-5.368-15.145c0-6.273,1.733-11.176,5.201-14.705
	c3.578-3.625,8.557-5.439,14.933-5.439c6.71,0,11.911,1.764,15.603,5.293c3.579,3.629,5.368,8.676,5.368,15.145
	c0,0.395,0,0.736,0,1.029c0,0.295,0,0.492,0,0.59c0,0.49-0.056,0.834-0.167,1.029h-29.025c0.111,3.037,0.948,5.293,2.518,6.764
	c1.452,1.568,3.633,2.352,6.541,2.352c1.9,0,3.524-0.342,4.867-1.029c0.336-0.098,0.643-0.27,0.924-0.516
	c0.276-0.242,0.586-0.514,0.922-0.807c0.109-0.295,0.53-0.688,1.258-1.178C383.126,400.289,384.162,400.045,385.505,400.045z
	 M365.372,388.576h17.113c-0.226-2.648-1.006-4.607-2.35-5.883c-1.454-1.371-3.522-2.059-6.207-2.059
	c-2.461,0-4.475,0.688-6.039,2.059C366.32,384.066,365.483,386.027,365.372,388.576z"/>
<path fill="#FFFFFF" d="M396.41,412.102v-18.969c0-3.822,0.643-7.031,1.93-9.629c1.285-2.598,3.046-4.682,5.284-6.25
	c2.124-1.473,4.614-2.549,7.467-3.236c2.852-0.684,5.788-1.027,8.808-1.027c0.224,0,0.505,0,0.839,0c0.336,0,0.614,0,0.84,0v10.438
	h-3.859c-3.245,0-5.648,0.688-7.213,2.061c-1.569,1.373-2.351,3.527-2.351,6.467v20.146H396.41z"/>
<path fill="#FFFFFF" d="M453.79,400.045h8.389c-1.232,4.117-3.58,7.254-7.046,9.41c-3.47,2.256-7.831,3.381-13.087,3.381
	c-6.375,0-11.354-1.811-14.932-5.439c-3.58-3.529-5.368-8.578-5.368-15.145c0-6.273,1.733-11.176,5.2-14.705
	c3.577-3.625,8.557-5.439,14.932-5.439c6.711,0,11.912,1.764,15.604,5.293c3.578,3.629,5.369,8.676,5.369,15.145
	c0,0.395,0,0.736,0,1.029c0,0.295,0,0.492,0,0.59c0,0.49-0.059,0.834-0.168,1.029h-29.025c0.109,3.037,0.949,5.293,2.516,6.764
	c1.453,1.568,3.634,2.352,6.544,2.352c1.9,0,3.522-0.342,4.866-1.029c0.334-0.098,0.643-0.27,0.922-0.516
	c0.277-0.242,0.588-0.514,0.924-0.807c0.109-0.295,0.529-0.688,1.258-1.178C451.412,400.289,452.448,400.045,453.79,400.045z
	 M433.657,388.576h17.114c-0.226-2.648-1.009-4.607-2.35-5.883c-1.454-1.371-3.522-2.059-6.209-2.059
	c-2.461,0-4.474,0.688-6.04,2.059C434.606,384.066,433.767,386.027,433.657,388.576z"/>
<path fill="#FFFFFF" d="M494.224,361.371h5.705c1.565,0,2.907,0.518,4.026,1.545c1.118,1.029,1.679,2.184,1.679,3.457v28.672
	c0,6.961-2.294,11.666-6.881,14.115c-4.587,2.453-9.563,3.676-14.932,3.676c-2.91,0-5.761-0.416-8.557-1.248
	c-2.796-0.834-5.033-2.182-6.709-4.045c-3.248-3.625-4.867-8.576-4.867-14.85c0-6.176,1.619-11.125,4.867-14.852
	c3.354-3.824,7.659-5.734,12.918-5.734c2.794,0,5.255,0.49,7.381,1.471c2.237,1.176,4.026,2.695,5.369,4.557V361.371z
	 M475.097,392.252c0,3.922,0.84,6.908,2.518,8.969c1.677,2.059,4.081,3.088,7.214,3.088c3.021,0,5.37-1.029,7.048-3.088
	c1.563-2.061,2.348-5.047,2.348-8.969c0-3.529-0.839-6.324-2.516-8.383c-1.791-1.959-4.195-2.939-7.215-2.939
	c-2.91,0-5.202,1.029-6.879,3.086C475.937,385.979,475.097,388.723,475.097,392.252z"/>
<path fill="#FFFFFF" d="M256.626,146.044v93.421c0,11.589,2.479,20.137,7.437,25.637c5.283,5.214,13.712,7.82,25.285,7.82
	c11.233,0,19.662-2.606,25.286-7.82c5.284-5.215,7.934-13.755,7.934-25.637v-93.421h35.201v96.896
	c0,18.542-5.951,32.589-17.849,42.148c-10.908,9.559-27.765,14.339-50.572,14.339c-22.807,0-39.663-4.78-50.57-14.339
	c-11.899-9.56-17.849-23.606-17.849-42.148v-80.385c0-4.346,1.735-8.182,5.205-11.515c3.471-3.326,7.686-4.997,12.644-4.997H256.626
	z"/>
</svg>
