<?xml version="1.0" encoding="utf-8"?>
<!-- Generator: Adobe Illustrator 15.0.0, SVG Export Plug-In  -->
<!DOCTYPE svg PUBLIC "-//W3C//DTD SVG 1.1//EN" "http://www.w3.org/Graphics/SVG/1.1/DTD/svg11.dtd" [
	<!ENTITY ns_flows "http://ns.adobe.com/Flows/1.0/">
]>
<svg version="1.1"
	 xmlns="http://www.w3.org/2000/svg" xmlns:xlink="http://www.w3.org/1999/xlink" xmlns:a="http://ns.adobe.com/AdobeSVGViewerExtensions/3.0/"
	 x="0px" y="0px" width="700px" height="700px" viewBox="-48.499 -43.98 700 700"
	 overflow="visible" enable-background="new -48.499 -43.98 700 700" xml:space="preserve">
<defs>
</defs>
<g>
	<path fill="#71CCDC" d="M13.982,355.739c6.721,27.746,17.019,54.252,30.817,78.636c6.904,12.179,14.626,23.837,23.124,34.843
		c8.528,10.983,17.745,21.382,27.686,30.993c9.952,9.597,20.494,18.532,31.639,26.596c5.566,4.039,11.284,7.853,17.107,11.478
		c5.817,3.634,11.761,7.05,17.815,10.241c24.235,12.717,50.138,22.019,76.765,27.259c13.301,2.658,26.766,4.378,40.27,5.062
		c13.504,0.687,27.034,0.368,40.471-0.844c13.422-1.234,26.803-3.46,39.882-6.62c13.087-3.183,25.956-7.168,38.425-12.157
		c12.473-4.968,24.558-10.863,36.142-17.6c11.612-6.688,22.723-14.236,33.216-22.561c10.503-8.314,20.346-17.444,29.546-27.17
		c9.205-9.724,17.697-20.124,25.385-31.087c7.701-10.957,14.54-22.506,20.603-34.438c6.067-11.933,11.257-24.312,15.508-37.006
		c8.441-25.4,13.404-51.991,14.24-78.819c0.399-13.406-0.044-26.863-1.523-40.246c-1.459-13.385-3.934-26.686-7.283-39.742
		c-6.62-26.154-17.236-51.292-31.13-74.588c-27.868-46.566-69.717-85.189-119.399-109.743C400.874,42.082,388,36.757,374.741,32.446
		c-13.234-4.4-26.849-7.768-40.678-10.244c-27.677-4.906-56.251-5.841-84.787-3.02l-0.011,0.001c-3.032,0.3-5.733-1.915-6.032-4.947
		c-0.273-2.76,1.54-5.245,4.154-5.896c28.851-7.202,59.141-9.771,89.296-7.586c15.085,1.054,30.121,3.37,44.962,6.735
		c14.817,3.452,29.439,7.977,43.655,13.641c14.202,5.692,28.041,12.412,41.31,20.188c13.252,7.799,25.96,16.592,37.987,26.29
		c23.965,19.487,45.2,42.602,62.427,68.562c17.347,25.881,30.585,54.592,39.453,84.599c4.405,15.022,7.636,30.364,9.79,45.883
		c2.134,15.521,3.198,31.233,2.937,46.948c-0.713,62.903-21.139,125.526-57.553,176.895c-9.066,12.865-19.075,25.064-29.923,36.469
		c-10.853,11.401-22.614,21.927-35.046,31.571c-12.441,9.636-25.594,18.348-39.315,26.038c-13.748,7.644-28.065,14.24-42.772,19.749
		c-14.712,5.489-29.799,9.957-45.134,13.155c-15.342,3.222-30.845,5.321-46.468,6.29c-15.608,0.992-31.287,0.738-46.836-0.676
		c-15.55-1.413-30.981-3.952-46.104-7.665c-30.228-7.486-59.254-19.417-85.708-35.412c-6.62-3.984-13.087-8.208-19.386-12.657
		c-6.292-4.458-12.393-9.173-18.318-14.082c-11.837-9.832-22.968-20.477-33.137-31.942c-20.398-22.866-37.239-48.733-49.653-76.399
		C11.4,417.299,3.314,387.86,0.047,358.214l-0.003-0.028c-0.429-3.893,2.378-7.396,6.271-7.825
		C9.902,349.965,13.158,352.32,13.982,355.739z"/>
</g>
<path fill="#231F20" d="M184.608,380.84c-2.188-2.68-5.172-4.02-8.961-4.02c-4.074,0-7.207,1.281-9.395,3.828
	c-2.18,2.559-3.273,6.066-3.273,10.535v26.234H148.12v-65.875h7.426c2.043,0,3.789,0.641,5.246,1.914
	c1.453,1.281,2.188,2.812,2.188,4.602v15.125c2.621-3.832,6.336-6.254,11.141-7.273c4.805-1.023,9.395-0.77,13.766,0.758
	c4.078,1.535,7.5,3.961,10.27,7.281c2.766,3.32,4.152,7.914,4.152,13.785v29.684h-14.641v-26.426c0-1.914-0.184-3.668-0.543-5.266
	C186.757,384.129,185.917,382.504,184.608,380.84z"/>
<path fill="#231F20" d="M245.351,401.715h10.93c-1.609,5.359-4.664,9.445-9.18,12.254c-4.52,2.941-10.195,4.406-17.043,4.406
	c-8.301,0-14.785-2.359-19.449-7.086c-4.66-4.594-6.984-11.168-6.984-19.723c0-8.168,2.254-14.555,6.77-19.148
	c4.66-4.723,11.145-7.086,19.445-7.086c8.738,0,15.512,2.297,20.32,6.895c4.66,4.723,6.992,11.301,6.992,19.723
	c0,0.512,0,0.957,0,1.344c0,0.379,0,0.637,0,0.758c0,0.648-0.078,1.09-0.219,1.344h-37.797c0.141,3.961,1.234,6.895,3.277,8.809
	c1.887,2.047,4.73,3.062,8.52,3.062c2.477,0,4.59-0.445,6.336-1.34c0.438-0.125,0.836-0.352,1.203-0.668
	c0.359-0.316,0.762-0.672,1.199-1.055c0.145-0.379,0.691-0.895,1.641-1.531C242.257,402.035,243.604,401.715,245.351,401.715z
	 M219.136,386.777h22.285c-0.293-3.445-1.312-5.996-3.062-7.656c-1.895-1.789-4.586-2.688-8.082-2.688
	c-3.207,0-5.828,0.898-7.863,2.688C220.37,380.91,219.276,383.461,219.136,386.777z"/>
<path fill="#231F20" d="M259.554,417.418v-24.703c0-4.98,0.836-9.16,2.516-12.543c1.672-3.379,3.965-6.094,6.879-8.141
	c2.77-1.914,6.012-3.316,9.723-4.207c3.715-0.895,7.539-1.344,11.477-1.344c0.285,0,0.652,0,1.086,0c0.441,0,0.801,0,1.094,0v13.598
	h-5.023c-4.227,0-7.359,0.895-9.395,2.68c-2.039,1.789-3.062,4.598-3.062,8.426v26.234H259.554z"/>
<path fill="#231F20" d="M301.069,412.824c-3.062-2.301-5.246-5.391-6.559-9.289c-1.309-3.891-1.961-7.949-1.961-12.164
	c0-3.441,0.539-6.891,1.633-10.336s2.805-6.32,5.137-8.617c3.786-3.828,8.665-6.094,14.64-6.797
	c5.973-0.703,11.363-0.289,16.168,1.242c5.535,1.914,9.613,5.234,12.234,9.957c2.477,4.215,3.715,9.129,3.715,14.746
	c0,4.086-0.512,7.594-1.527,10.531c-1.02,2.938-2.332,5.426-3.934,7.469c-3.496,4.211-7.941,6.828-13.332,7.852
	c-4.805,1.148-9.648,1.242-14.527,0.289C307.875,416.746,303.98,415.117,301.069,412.824z M311.557,379.121
	c-3.062,2.934-4.448,7.309-4.155,13.117s1.535,9.859,3.714,12.156c0.875,1.023,2.402,1.883,4.59,2.586
	c2.184,0.703,4.406,0.77,6.668,0.191c2.254-0.574,4.258-2.012,6.004-4.309c1.75-2.297,2.695-6,2.844-11.105
	c0-4.594-0.84-8.043-2.516-10.34s-3.605-3.766-5.785-4.406c-2.188-0.633-4.371-0.668-6.559-0.094
	C314.178,377.488,312.573,378.227,311.557,379.121z"/>
<path fill="#231F20" d="M388.901,401.715h10.93c-1.609,5.359-4.668,9.445-9.18,12.254c-4.523,2.941-10.195,4.406-17.039,4.406
	c-8.305,0-14.789-2.359-19.453-7.086c-4.66-4.594-6.984-11.168-6.984-19.723c0-8.168,2.258-14.555,6.766-19.148
	c4.66-4.723,11.145-7.086,19.445-7.086c8.742,0,15.516,2.297,20.32,6.895c4.66,4.723,6.992,11.301,6.992,19.723
	c0,0.512,0,0.957,0,1.344c0,0.379,0,0.637,0,0.758c0,0.648-0.078,1.09-0.211,1.344h-37.805c0.148,3.961,1.242,6.895,3.281,8.809
	c1.883,2.047,4.727,3.062,8.516,3.062c2.48,0,4.59-0.445,6.336-1.34c0.441-0.125,0.844-0.352,1.203-0.668s0.762-0.672,1.203-1.055
	c0.145-0.379,0.691-0.895,1.641-1.531C385.807,402.035,387.155,401.715,388.901,401.715z M362.682,386.777h22.285
	c-0.293-3.445-1.309-5.996-3.059-7.656c-1.891-1.789-4.586-2.688-8.086-2.688c-3.203,0-5.828,0.898-7.859,2.688
	C363.924,380.91,362.831,383.461,362.682,386.777z"/>
<path fill="#231F20" d="M401.792,400.566h14.855c0.145,2.555,1.238,4.469,3.281,5.742c2.188,1.281,5.098,1.918,8.738,1.918
	c2.629,0,4.883-0.449,6.781-1.34c1.746-0.895,2.617-2.105,2.617-3.641c0-2.297-3.059-4.023-9.18-5.172
	c-2.617-0.379-4.582-0.766-5.898-1.145c-7.719-1.66-12.891-3.637-15.508-5.938c-2.922-2.301-4.375-5.363-4.375-9.191
	c0-4.852,2.109-8.871,6.336-12.062c4.375-2.938,10.047-4.406,17.039-4.406c7.578,0,13.625,1.469,18.137,4.406
	c4.23,3.191,6.484,7.344,6.777,12.445h-9.395c-2.773,0-4.883-1.086-6.34-3.258c-0.586-0.508-1.172-1.02-1.746-1.527
	c-1.746-1.152-4.152-1.723-7.207-1.723c-2.922,0-5.109,0.379-6.562,1.145c-1.309,0.77-1.961,1.914-1.961,3.449
	c0,2.039,3.789,3.766,11.367,5.172c0.867,0.25,1.629,0.445,2.281,0.57c0.664,0.133,1.281,0.195,1.867,0.195
	c7.422,1.66,12.598,3.574,15.508,5.742c2.766,2.297,4.148,5.359,4.148,9.195c0,5.613-2.32,9.953-6.992,13.016
	c-4.363,2.812-10.914,4.215-19.656,4.215c-8.312,0-14.5-1.465-18.574-4.406c-4.23-2.934-6.34-7.211-6.34-12.824V400.566z"/>
<path fill="#231F20" d="M221.265,299.766V164.207c0-4.398,1.758-8.137,5.273-11.219s7.781-4.625,12.809-4.625h17.57v56.34h71.316
	v-56.34h36.16v151.402h-36.16v-67.34h-71.316v67.34H221.265z"/>
</svg>
