<?xml version="1.0" encoding="utf-8"?>
<!-- Generator: Adobe Illustrator 15.0.0, SVG Export Plug-In  -->
<!DOCTYPE svg PUBLIC "-//W3C//DTD SVG 1.1//EN" "http://www.w3.org/Graphics/SVG/1.1/DTD/svg11.dtd" [
	<!ENTITY ns_flows "http://ns.adobe.com/Flows/1.0/">
]>
<svg version="1.1"
	 xmlns="http://www.w3.org/2000/svg" xmlns:xlink="http://www.w3.org/1999/xlink" xmlns:a="http://ns.adobe.com/AdobeSVGViewerExtensions/3.0/"
	 x="0px" y="0px" width="700px" height="700px" viewBox="-48.502 -49.419 700 700"
	 overflow="visible" enable-background="new -48.502 -49.419 700 700" xml:space="preserve">
<defs>
</defs>
<g>
	<path fill="#71CCDC" d="M13.982,355.74c6.72,27.747,17.017,54.253,30.813,78.638c6.904,12.179,14.626,23.836,23.124,34.843
		c8.528,10.983,17.744,21.382,27.686,30.993c9.952,9.597,20.494,18.532,31.64,26.596c5.565,4.039,11.283,7.853,17.107,11.477
		c5.817,3.634,11.762,7.051,17.815,10.241c24.235,12.718,50.139,22.019,76.766,27.258c13.301,2.659,26.766,4.379,40.27,5.062
		c13.504,0.687,27.034,0.368,40.471-0.844c13.422-1.234,26.804-3.46,39.882-6.62c13.087-3.184,25.957-7.169,38.425-12.158
		c12.474-4.967,24.558-10.863,36.143-17.6c11.611-6.688,22.723-14.236,33.215-22.561c10.503-8.314,20.346-17.444,29.546-27.17
		c9.205-9.724,17.697-20.125,25.385-31.088c7.701-10.957,14.539-22.506,20.602-34.438c6.067-11.933,11.257-24.312,15.508-37.007
		c8.44-25.4,13.402-51.991,14.237-78.818c0.399-13.407-0.044-26.864-1.524-40.246c-1.459-13.386-3.934-26.689-7.283-39.743
		c-6.62-26.155-17.237-51.293-31.13-74.589c-27.869-46.565-69.719-85.188-119.402-109.74c-12.412-6.144-25.287-11.469-38.546-15.779
		c-13.233-4.4-26.849-7.767-40.678-10.243c-27.677-4.906-56.252-5.84-84.787-3.02l-0.012,0.001c-3.032,0.3-5.732-1.915-6.032-4.947
		c-0.273-2.76,1.539-5.245,4.153-5.896c28.852-7.202,59.142-9.771,89.297-7.587c15.084,1.055,30.121,3.371,44.961,6.736
		c14.818,3.451,29.441,7.975,43.657,13.64c14.201,5.691,28.041,12.411,41.309,20.188c13.253,7.799,25.962,16.591,37.988,26.289
		c23.966,19.486,45.202,42.601,62.429,68.561c17.347,25.881,30.585,54.592,39.454,84.6c4.405,15.022,7.635,30.362,9.79,45.882
		c2.135,15.521,3.199,31.232,2.938,46.947c-0.71,62.904-21.135,125.528-57.549,176.897c-9.066,12.865-19.075,25.064-29.923,36.469
		c-10.852,11.402-22.614,21.928-35.045,31.572c-12.441,9.636-25.595,18.348-39.315,26.038c-13.748,7.644-28.066,14.241-42.772,19.75
		c-14.712,5.488-29.8,9.957-45.134,13.155c-15.342,3.222-30.845,5.321-46.469,6.29c-15.607,0.992-31.286,0.738-46.836-0.676
		c-15.55-1.413-30.981-3.951-46.104-7.664c-30.229-7.485-59.255-19.416-85.71-35.411c-6.62-3.984-13.087-8.208-19.386-12.657
		c-6.293-4.458-12.393-9.172-18.318-14.082c-11.838-9.832-22.968-20.477-33.138-31.942c-20.397-22.867-37.238-48.734-49.652-76.4
		C11.398,417.3,3.313,387.861,0.046,358.214l-0.003-0.029c-0.43-3.893,2.379-7.396,6.271-7.824
		C9.902,349.965,13.158,352.321,13.982,355.74z"/>
</g>
<path fill="#231F20" d="M129.1,377.797v23.234c0,7.051-2.086,11.664-6.277,13.848c-4.199,2.188-8.789,3.281-13.77,3.281
	c-4.875-0.203-9.316-1.391-13.34-3.578c-4.023-2.184-6.035-6.703-6.035-13.551v-23.234h11.895v25.316
	c0,2.383,0.793,4.125,2.383,5.211c1.582,1.094,3.398,1.641,5.441,1.641c2.039,0,3.875-0.547,5.516-1.641
	c1.641-1.086,2.469-2.828,2.469-5.211v-20.25c0-1.395,0.539-2.586,1.613-3.578c1.074-0.988,2.461-1.488,4.16-1.488H129.1z"/>
<path fill="#231F20" d="M170.401,417.411h-5.949c-1.695,0-3.086-0.469-4.156-1.414c-1.086-0.941-1.625-2.156-1.625-3.648v-20.254
	c0-2.383-0.82-4.121-2.461-5.215c-1.641-1.086-3.484-1.633-5.523-1.633c-2.031,0-3.852,0.547-5.441,1.633
	c-1.582,1.094-2.371,2.832-2.371,5.215v25.316h-11.898v-23.23c0-6.754,2.016-11.27,6.039-13.555
	c4.012-2.281,8.465-3.52,13.336-3.723c4.984,0,9.57,1.145,13.762,3.426c4.191,2.285,6.289,6.902,6.289,13.852V417.411z"/>
<path fill="#231F20" d="M201.163,415.77c-2.383,1.094-4.902,1.766-7.57,2.016c-2.664,0.246-5.008,0.375-7.047,0.375
	c-4.086,0-7.648-0.973-10.703-2.906c-3.07-1.938-4.594-5.141-4.594-9.609c0-4.172,1.391-7.148,4.164-8.938
	c2.773-1.785,6.316-2.977,10.625-3.57c0.562,0,1.238-0.074,2.039-0.227c0.789-0.148,1.699-0.27,2.715-0.371
	c4.98-0.598,7.48-1.887,7.48-3.871c0-1.492-0.879-2.457-2.637-2.906c-1.758-0.445-3.371-0.668-4.844-0.668
	c-1.59,0-2.996,0.199-4.246,0.594c-1.25,0.402-2.16,1.145-2.719,2.238h-11.383c0.445-3.078,2.031-5.609,4.754-7.598
	c3.059-2.281,7.422-3.426,13.086-3.426c6.34,0,11.105,0.945,14.277,2.828c3.281,1.988,4.922,4.766,4.922,8.34v13.555
	c0,3.973-0.82,7.074-2.461,9.309S203.42,414.782,201.163,415.77z M198.436,397.458c-1.578,0.691-3.797,1.336-6.629,1.934
	l-3.906,0.746c-2.043,0.5-3.516,1.141-4.414,1.934c-0.801,1.094-1.191,2.188-1.191,3.277c0,1.488,0.508,2.68,1.531,3.574
	c1.016,0.793,2.492,1.191,4.414,1.191c3.176,0,5.664-0.793,7.484-2.383c1.805-1.586,2.711-3.77,2.711-6.555V397.458z"/>
<path fill="#231F20" d="M250.608,417.411h-5.949c-1.699,0-3.086-0.469-4.16-1.414c-1.074-0.941-1.609-2.156-1.609-3.648v-20.254
	c0-2.383-0.832-4.121-2.473-5.215c-1.641-1.086-3.477-1.633-5.52-1.633c-2.039,0-3.855,0.547-5.438,1.633
	c-1.594,1.094-2.383,2.832-2.383,5.215v25.316h-11.895v-23.23c0-6.754,2.012-11.27,6.035-13.555c4.023-2.281,8.469-3.52,13.34-3.723
	c4.98,0,9.57,1.145,13.77,3.426c4.188,2.285,6.281,6.902,6.281,13.852V417.411z"/>
<path fill="#231F20" d="M251.467,404.309h11.551c0.117,1.984,0.965,3.477,2.551,4.465c1.695,0.992,3.961,1.488,6.797,1.488
	c2.039,0,3.797-0.344,5.273-1.043c1.355-0.691,2.039-1.637,2.039-2.828c0-1.785-2.383-3.129-7.141-4.023
	c-2.039-0.297-3.57-0.594-4.586-0.895c-6.008-1.289-10.031-2.824-12.07-4.613c-2.266-1.785-3.398-4.168-3.398-7.148
	c0-3.773,1.641-6.898,4.93-9.383c3.398-2.281,7.812-3.426,13.25-3.426c5.891,0,10.598,1.145,14.113,3.426
	c3.281,2.484,5.039,5.711,5.262,9.684h-7.305c-2.156,0-3.797-0.848-4.93-2.535c-0.449-0.395-0.906-0.793-1.359-1.191
	c-1.355-0.895-3.23-1.34-5.602-1.34c-2.277,0-3.977,0.301-5.102,0.895c-1.023,0.594-1.531,1.488-1.531,2.68
	c0,1.586,2.949,2.93,8.836,4.02c0.676,0.199,1.273,0.352,1.789,0.449c0.508,0.098,0.984,0.148,1.438,0.148
	c5.781,1.293,9.805,2.781,12.07,4.465c2.148,1.789,3.23,4.172,3.23,7.148c0,4.371-1.816,7.746-5.441,10.129
	c-3.398,2.188-8.492,3.281-15.289,3.281c-6.469,0-11.281-1.145-14.453-3.43c-3.281-2.285-4.922-5.609-4.922-9.98V404.309z"/>
<path fill="#231F20" d="M343.565,417.411H331.67l-6.961-28.293l-6.977,28.293h-11.891l-12.406-39.613h11.555l7.141,27.402
	l6.453-27.402h12.07l6.113,27.402l6.289-23.828c0.684-2.383,2.488-3.574,5.441-3.574h7.477L343.565,417.411z"/>
<path fill="#231F20" d="M390.467,405.2h8.5c-1.25,4.172-3.625,7.352-7.141,9.531c-3.508,2.285-7.93,3.43-13.25,3.43
	c-6.457,0-11.508-1.844-15.129-5.516c-3.621-3.57-5.441-8.684-5.441-15.34c0-6.352,1.758-11.316,5.273-14.895
	c3.625-3.672,8.664-5.508,15.129-5.508c6.797,0,12.059,1.789,15.801,5.363c3.625,3.672,5.438,8.785,5.438,15.336
	c0,0.402,0,0.746,0,1.047c0,0.297,0,0.496,0,0.594c0,0.5-0.055,0.848-0.172,1.043h-29.398c0.109,3.078,0.961,5.359,2.551,6.848
	c1.473,1.594,3.684,2.383,6.629,2.383c1.926,0,3.566-0.348,4.922-1.039c0.344-0.098,0.656-0.273,0.938-0.523
	c0.285-0.242,0.598-0.52,0.938-0.82c0.109-0.297,0.539-0.691,1.273-1.191C388.057,405.45,389.112,405.2,390.467,405.2z
	 M370.077,393.583h17.336c-0.234-2.68-1.023-4.664-2.383-5.953c-1.477-1.395-3.562-2.086-6.289-2.086
	c-2.492,0-4.531,0.691-6.113,2.086C371.038,389.02,370.186,391,370.077,393.583z"/>
<path fill="#231F20" d="M401.514,417.411V398.2c0-3.875,0.656-7.125,1.953-9.758c1.309-2.625,3.086-4.734,5.359-6.328
	c2.148-1.488,4.672-2.578,7.562-3.273s5.859-1.043,8.914-1.043c0.234,0,0.516,0,0.852,0c0.34,0,0.625,0,0.859,0v10.574h-3.918
	c-3.281,0-5.723,0.695-7.305,2.082c-1.59,1.395-2.383,3.574-2.383,6.555v20.402H401.514z"/>
<path fill="#231F20" d="M459.639,405.2h8.496c-1.25,4.172-3.633,7.352-7.137,9.531c-3.516,2.285-7.93,3.43-13.266,3.43
	c-6.453,0-11.492-1.844-15.117-5.516c-3.633-3.57-5.438-8.684-5.438-15.34c0-6.352,1.758-11.316,5.266-14.895
	c3.621-3.672,8.672-5.508,15.125-5.508c6.797,0,12.07,1.789,15.801,5.363c3.633,3.672,5.441,8.785,5.441,15.336
	c0,0.402,0,0.746,0,1.047c0,0.297,0,0.496,0,0.594c0,0.5-0.062,0.848-0.168,1.043h-29.402c0.117,3.078,0.965,5.359,2.547,6.848
	c1.477,1.594,3.68,2.383,6.633,2.383c1.922,0,3.562-0.348,4.93-1.039c0.344-0.098,0.645-0.273,0.93-0.523
	c0.281-0.242,0.594-0.52,0.938-0.82c0.117-0.297,0.535-0.691,1.277-1.191C457.225,405.45,458.272,405.2,459.639,405.2z
	 M439.241,393.583h17.332c-0.223-2.68-1.016-4.664-2.371-5.953c-1.477-1.395-3.578-2.086-6.289-2.086
	c-2.492,0-4.531,0.691-6.125,2.086C440.206,389.02,439.358,391,439.241,393.583z"/>
<path fill="#231F20" d="M500.584,366.032h5.781c1.586,0,2.953,0.52,4.086,1.562s1.695,2.211,1.695,3.5v29.043
	c0,7.051-2.32,11.816-6.969,14.297s-9.688,3.727-15.117,3.727c-2.953,0-5.844-0.426-8.672-1.27c-2.836-0.84-5.102-2.207-6.797-4.098
	c-3.293-3.672-4.934-8.688-4.934-15.039c0-6.254,1.641-11.27,4.934-15.043c3.398-3.871,7.75-5.809,13.086-5.809
	c2.828,0,5.32,0.5,7.477,1.492c2.266,1.191,4.074,2.727,5.43,4.613V366.032z M481.221,397.305c0,3.973,0.848,7.004,2.551,9.086
	c1.695,2.086,4.129,3.125,7.305,3.125c3.055,0,5.438-1.039,7.137-3.125c1.582-2.082,2.371-5.113,2.371-9.086
	c0-3.574-0.848-6.402-2.547-8.488c-1.805-1.984-4.25-2.977-7.305-2.977c-2.949,0-5.266,1.039-6.961,3.125
	C482.069,390.954,481.221,393.731,481.221,397.305z"/>
<path fill="#231F20" d="M259.932,147.926v94.625c0,11.734,2.512,20.398,7.527,25.965c5.352,5.285,13.891,7.926,25.617,7.926
	c11.375,0,19.914-2.641,25.605-7.926c5.352-5.277,8.035-13.93,8.035-25.965v-94.625h35.656v98.145
	c0,18.785-6.023,33.012-18.078,42.695c-11.043,9.684-28.125,14.52-51.219,14.52c-23.105,0-40.176-4.836-51.219-14.52
	c-12.062-9.684-18.086-23.91-18.086-42.695v-81.422c0-4.398,1.758-8.285,5.273-11.66c3.516-3.367,7.781-5.062,12.812-5.062H259.932z
	"/>
</svg>
