<?xml version="1.0" encoding="utf-8"?>
<!-- Generator: Adobe Illustrator 15.0.0, SVG Export Plug-In  -->
<!DOCTYPE svg PUBLIC "-//W3C//DTD SVG 1.1//EN" "http://www.w3.org/Graphics/SVG/1.1/DTD/svg11.dtd" [
	<!ENTITY ns_flows "http://ns.adobe.com/Flows/1.0/">
]>
<svg version="1.1"
	 xmlns="http://www.w3.org/2000/svg" xmlns:xlink="http://www.w3.org/1999/xlink" xmlns:a="http://ns.adobe.com/AdobeSVGViewerExtensions/3.0/"
	 x="0px" y="0px" width="800px" height="400px" viewBox="-48.896 -91.718 800 400"
	 overflow="visible" enable-background="new -48.896 -91.718 800 400" xml:space="preserve">
<defs>
</defs>
<path fill="#B69186" d="M142.121,52.506c0,0,16.146-8.496,21.348,10.244c5.195,18.734-24.225,29.672-30.709,24.834
	c0,0,9.316-12.383,4.395-22.93C137.154,64.654,142.33,54.82,142.121,52.506z"/>
<path fill="#A67B72" d="M137.805,68.955c-1.732,0,2.807-7.152,13.99-7.943c2.996-0.215,3.367,2.568,3.582,4.355
	c0.266,2.24-0.072,4.814-2.324,7.07c-2.754,2.748-5.535,3.262-4.949,4.457c1.42,2.975,10.307,0.475,9.887,2.994
	c-0.336,2.168-22.822,13.096-24.125,7.738c-0.371-1.465,2.402-4.35,3.289-6.381c1.158-2.598,1.543-5.205,1.158-7.549
	C137.824,70.713,138.541,68.955,137.805,68.955z"/>
<path fill="none" stroke="#000000" stroke-width="1.052" stroke-miterlimit="10" d="M142.121,52.506c0,0,16.146-8.496,21.348,10.244
	c5.195,18.734-24.225,29.672-30.709,24.834c0,0,9.316-12.383,4.395-22.93C137.154,64.654,142.33,54.82,142.121,52.506z"/>
<path fill="#144983" stroke="#000000" stroke-width="1.2023" stroke-miterlimit="10" d="M83.436,102.432
	C8.576,96.656,29.01,63.682,29.01,63.682c-0.301-0.566,0.006,0.029-0.301-0.566c-0.07-0.166,0.457-0.189,0.385-0.342
	C4.064,12.754,78.24-1.762,83.436,0.914l0.039-0.01c5.184-2.672,79.35,11.846,54.33,61.865c-0.084,0.146-0.162,0.297-0.24,0.443
	c-0.301,0.621-0.605,1.227-0.887,1.787c0,0,14.896,33.834-53.203,37.428"/>
<path fill="#B69186" d="M81.111,93.369c-4.703,0-7.369,3.613-7.369,3.613c-19.092,1.578-35.053-9.307-35.053-9.307
	c-11.48-13.07-8.326-21.426-3.73-25.146c3.9-3.145,9.395-3.506,7.52-4.008c-4.121-1.113-11.992-0.508-11.992-0.508
	s0.02,0-0.012-0.361c-0.496-5.43-0.828-9.967-0.359-14.01C34.83,3.629,83.014,25.934,83.014,25.934s10.684-5.143,23.145-5.055
	c15.66,0.098,33.238,7.969,26.125,39.189c-0.094,0.357-1.184,0-1.184,0s-5.02-1.338-9.16-0.219
	c-4.121,1.104,24.492,4.512,0.695,29.111c0,0-16.484,10.391-33.879,8.838C88.756,97.799,85.838,93.369,81.111,93.369"/>
<path fill="#B18173" d="M122.4,52.35c0,3.52-17.623,6.357-39.387,6.357c-21.727,0-39.363-4.449-39.363-7.959
	c0-3.535,17.787-6.455,39.531-6.455C104.928,44.293,122.4,48.824,122.4,52.35z"/>
<path d="M115.689,54.869c-0.027,1.611-0.703,3.227-1.977,3.861c-1.09,0.533-3.037-0.453-4.898-0.453
	c-2.156,0-3.582,1.504-4.676-0.41c-0.762-1.377-0.703-2.197-0.703-3.447c0-3.922,2.559-7.109,5.723-7.109
	S115.748,49.248,115.689,54.869z"/>
<path fill="#FFFFFF" d="M114.592,55.387c0,1.602-1.123,2.891-2.516,2.891c-1.395,0-2.523-1.289-2.523-2.891
	c0-1.592,1.129-2.891,2.523-2.891C113.469,52.496,114.592,53.795,114.592,55.387z"/>
<path fill="#FFFFFF" d="M110.193,50.43c0,1.139-0.898,2.066-2.012,2.066c-1.109,0-2.023-0.928-2.023-2.066
	c0-1.133,0.914-2.061,2.023-2.061C109.295,48.369,110.193,49.297,110.193,50.43z"/>
<path d="M61.588,53.678c-0.008,1.605-0.691,3.223-1.961,3.852c-1.074,0.537-3.039-0.459-4.895-0.459
	c-2.156,0-3.594,1.514-4.672-0.404c-0.762-1.354-0.707-2.193-0.707-3.438c0-3.926,2.562-7.109,5.711-7.109
	C58.229,46.119,61.678,48.043,61.588,53.678z"/>
<path fill="#FFFFFF" d="M60.514,54.189c0,1.588-1.133,2.881-2.52,2.881c-1.395,0-2.514-1.293-2.514-2.881
	c0-1.592,1.119-2.885,2.514-2.885C59.381,51.305,60.514,52.598,60.514,54.189z"/>
<path fill="#FFFFFF" d="M56.096,49.248c0,1.123-0.895,2.057-2.016,2.057c-1.105,0-2.004-0.934-2.004-2.057
	c0-1.146,0.898-2.074,2.004-2.074C55.201,47.174,56.096,48.102,56.096,49.248z"/>
<path fill="#531C2D" d="M89.172,60.348c-0.416,1.303-1.771,0.713-3.105,2.777c-0.795,1.236-3.096,1.197-4.955,1.197
	c-2.383,0-2.926-2.037-4.469-2.838c-1.215-0.615-1.695-0.439-1.953-1.445c-0.293-1.172,0.562-2.074,1.689-2.822
	c1.27-0.834,2.955-1.475,5.162-1.475C85.754,55.742,89.953,57.926,89.172,60.348z"/>
<path fill="#ADB1C0" d="M85.48,58.184c0,0.904-1.518,1.637-3.418,1.637c-1.889,0-3.412-0.732-3.412-1.637
	c0-0.898,1.523-1.625,3.412-1.625C83.963,56.559,85.48,57.285,85.48,58.184z"/>
<path fill="none" stroke="#1A1114" stroke-width="2.104" stroke-miterlimit="10" d="M126.252,36.387
	c3.129,2.217,6.07,14.244-33.955,8.516c-3.73-0.551-5.787-0.629-9.115-0.609c0,0-7.375-0.045-10.879,0.342
	c-41.055,4.643-36.711-7.891-33.566-10.104"/>
<line fill="none" stroke="#1B0F11" stroke-width="1.2023" stroke-miterlimit="10" x1="81.896" y1="65" x2="81.896" y2="87.096"/>
<path fill="none" stroke="#1B0F11" stroke-width="1.2023" stroke-miterlimit="10" d="M73.469,91.045
	c-0.268-3.779,12.779-5.99,15.514,0"/>
<path fill="none" stroke="#000000" stroke-width="0.9017" stroke-miterlimit="10" d="M154.459,61.471
	c-0.15,0.678-9.701-1.48-16.082,6.436"/>
<path fill="#B69186" d="M24.426,50.123c0,0-18.096-8.125-23.311,10.605C-4.07,79.479,25.5,91.314,31.236,85.934
	c0,0-10.277-14.893-1.445-22.564C29.791,63.369,24.197,52.438,24.426,50.123z"/>
<path fill="#A67B72" d="M26.158,67.535c1.73,0-2.826-7.154-14.004-7.955c-2.992-0.209-3.367,2.564-3.578,4.365
	c-0.27,2.242,0.078,4.814,2.34,7.066c2.748,2.754,5.527,3.271,4.945,4.463c-1.422,2.953-9.482-0.107-9.066,2.416
	c0.352,2.178,21.141,11.285,24.441,8.043c1.074-1.074-2.578-3.975-3.461-6.006c-1.148-2.607-2.504-5.309-2.125-7.652
	C26.135,69.293,25.402,67.535,26.158,67.535z"/>
<path fill="none" stroke="#000000" stroke-width="1.052" stroke-miterlimit="10" d="M9.748,60.328
	c0-2.145,13.434,0.248,16.539,7.471"/>
<path fill="none" stroke="#000000" stroke-width="1.052" stroke-miterlimit="10" d="M24.439,49.635c0,0-18.1-8.141-23.305,10.605
	C-4.057,78.971,25.5,90.816,31.236,85.43c0,0-10.262-14.883-1.445-22.559C29.791,62.871,24.205,51.939,24.439,49.635z"/>
<path fill="#98002E" stroke="#000000" stroke-width="1.052" stroke-miterlimit="10" d="M54.699,98.727
	c0,0-10.631,5.805-18.197,6.963c-7.584,1.162-19.922,1.498-23.117,3.715c-3.188,2.213-11.029,6.23-8.764,15.738
	c0,0,13.197-4.117,25.26,7.734c12.055,11.855,18.842,12.494,18.842,12.494l11.025-44.854L54.699,98.727z"/>
<path fill="#144983" stroke="#000000" stroke-width="1.052" stroke-miterlimit="10" d="M60.994,100.479
	c-1.73-0.488-17.102,35.543-9.328,57.154c0,0-8.441,2.754-7.988,6.342c0.598,4.938,30.891,8.746,22.496-3.676l4.121-7.393
	c0,0,7.926,2.133,10.84,1.889l1.812-0.023c2.904,0.248,10.84-1.895,10.84-1.895l4.125,7.402
	c-8.398,12.432,22.426,8.369,22.426,3.715c0-4.262-7.924-6.381-7.924-6.381c7.783-21.602-7.729-55.035-6.361-57.135
	C106.053,100.479,76.135,104.723,60.994,100.479z"/>
<path fill="#144983" stroke="#000000" stroke-width="1.052" stroke-miterlimit="10" d="M113.928,151.797
	c0,0,11.969,1.617,22.926-1.518c6.029-1.734,11.332-6.074,15.111-10.195c6.119-6.656,7.539-16.266,5.377-23.535
	c-1.793-6.006-6.875-10.83-16.68-12.51c-16.822-2.871-25.924,14.883-19.172,21.459c1.934,1.891,5.064,3.096,9.863,2.311
	c1.568-0.234,2.922-0.898,3.566-1.689c2.318-2.93-1.016-8.896-4.176-9.053c0,0,10.66-10.494,17.686,4.766
	c0,0,5.357,24.238-33.555,22.318L113.928,151.797z"/>
<path fill="#FFFFFF" d="M70.207,111.998c4.682-3.639,11.299-7.52,15.449-6.979c6.908,0.895,8.721,9.537-3.682,19.082l-1.754-1.074
	l0.162-2.982l-3.893,0.736l0.816-4.496l-4.566-0.244l0.885-3.164L70.207,111.998z"/>
<path fill="#B69186" d="M105.877,133.023c0-3.184-1.406-8.277-3.535-8.369c-0.348-0.01-7.023,1.738-7.848,1.85
	c-1.729,0.26-3.48,0.674-5.391-0.268c-2.061-1.006-5.889-2.135-6.078-2.135c-0.299,0-3.834,1.549-5.865,2.135
	c-2.686,0.805-4.498,0.752-6.689,0.58c-2.875-0.238-7.588-2.715-8.344-2.504c-1.387,0.404-2.379,1.836-2.98,2.768
	c-0.828,1.295-1.035,3.189-1.035,5.797c0,4.271,1.047,7.08,4.127,10.215c4.252,4.311,12.604,6.361,20.064,6.361
	c6.41,0,14.168-2.143,18.373-5.473C104.9,140.635,105.877,138.115,105.877,133.023z"/>
<path fill="none" stroke="#000000" stroke-width="1.052" stroke-miterlimit="10" d="M60.143,101.324
	c-2.273,0.59-9.418,26.342,13.477,25.004c24.25-1.4,23.809-36.537-3.203-14.35"/>
<path fill="#FFFFFF" d="M94.635,112.135c-6.518-6.357-16.172-9.033-19.07-5.781c-2.486,2.787-1.289,13.555,9.389,18.754l3.096-1.006
	l-1.176-2.963l2.988,0.215l-0.676-4.375l3.229-0.605l-0.635-2.998L94.635,112.135z"/>
<path fill="none" stroke="#000000" stroke-width="1.052" stroke-miterlimit="10" d="M106.115,101.324
	c2.266,0.59,8.369,26.342-14.521,25.004c-24.232-1.4-23.803-36.537,3.213-14.35"/>
<path fill="#FFFFFF" d="M65.143,159.531c0,0,0.078,0.494,0.352,0.895c0.602,0.932,1.139,0.668,1.516,3.408
	c0.156,1.113-0.527,3.119-4.469,3.949c-4.16,0.865-16.992,0.029-18.383-3.643c-1.402-3.676,8.164-6.244,8.164-6.244l0.137-1.416
	l1.537,2.094l1.797-1.557l1.543,2.539l1.83-1.641l1.242,2.334l2.025-1.709l0.986,2.148L65.143,159.531z"/>
<path fill="#FFFFFF" d="M98.957,159.385c0,0-0.084,0.484-0.346,0.895c-0.617,0.928-1.133,0.684-1.523,3.408
	c-0.148,1.104,0.531,3.105,4.473,3.945c4.164,0.869,16.98,0.029,18.379-3.643c1.41-3.672-8.156-6.25-8.156-6.25l-0.137-1.406
	l-1.547,2.08l-1.787-1.543l-1.549,2.533l-1.824-1.635l-1.242,2.344l-2.025-1.725l-0.996,2.154L98.957,159.385z"/>
<path fill="none" stroke="#000000" stroke-width="1.052" stroke-miterlimit="10" d="M60.994,100.479
	c-1.73-0.488-17.102,35.543-9.328,57.154c0,0-8.441,2.754-7.988,6.342c0.598,4.938,30.891,8.746,22.496-3.676l4.121-7.393
	c0,0,7.926,2.133,10.84,1.889l1.812-0.023c2.904,0.248,10.84-1.895,10.84-1.895l4.125,7.402
	c-8.398,12.432,22.426,8.369,22.426,3.715c0-4.262-7.924-6.381-7.924-6.381c7.783-21.602-7.729-55.035-6.361-57.135
	C106.053,100.479,76.135,104.723,60.994,100.479z"/>
<path opacity="0.52" d="M56.535,109.355c0,0-1.615,4.996-2.354,6.768c-1.826,4.342,7.926,20.65,27.652,12.037
	c0,0,23.055,6.645,29.051-7.295c0,0-2.846-11.592-2-8.496c0.848,3.096-4.062,19.604-26.52,12.119
	C82.365,124.488,57.654,135.299,56.535,109.355z"/>
<path opacity="0.52" d="M138.045,149.473c0,0-12.812,4.869-24.117,1.627l0.766-6.656c0,0,15.266,0.293,23.117-3.139
	c1.543-0.654,2.793-1.178,3.594-2.197c3.281-4.16,5.41-4.742,6.625-8.145c0.547-1.582,1.156-3.775,1.156-7.197
	c0-1.523-3.203-11.992-14.344-10.684l0.156-4.6c0,0,10.02,2.592,14.213,10.361C154.178,128.062,138.045,149.473,138.045,149.473z"/>
<path fill="#FFFFFF" d="M136.926,104.107c-2.357-0.156-6.621,0.736-10.254,3.135c-2.533,1.689-4.584,4.32-5.986,7.285
	c-1.68,3.467-1.566,7.988,1.254,10.752c3.293,3.223,10.523,3.051,12.789,0.4c0.879-1.035,0.297-3.551-0.27-4.814
	c-0.555-1.256-1.648-2.803-4.434-3.863c0,0,3.648-3.607,7.779-3.92l-2.057-3.404l2.656-1.996l-3.109-1.109L136.926,104.107z"/>
<path opacity="0.47" stroke="#000000" stroke-width="0.1503" stroke-miterlimit="10" d="M54.699,98.727
	c-2.588,0.912-9.428,5.893-17.266,7.295c-7.838,1.426-20.006,1.312-23.041,3.135c-3.059,1.816-11.646,5.551-9.883,16.371
	c0,0,4.695-8.139,14.125-10.697c9.424-2.568,34.691-4.156,40.445-11.631l0.668-2.682L54.699,98.727z"/>
<path fill="none" stroke="#000000" stroke-width="1.052" stroke-linecap="round" stroke-linejoin="round" stroke-miterlimit="10" d="
	M57.975,104.619c0,0-14.668,7.145-24.746,7.516c-10.092,0.361-23.359,4.105-28.451,12.973"/>
<path opacity="0.21" d="M141.838,50.689c-0.035,0.131-5.504,5.566-8.316,5.869c-1.902,0.195-8.152,3.418-9.09,2.924
	c-1.484-0.775-1.906,1.51,0,2.047c0.809,0.225,10.965,14.307,7.969,22.9c-3.02,8.568,8.914-10.439,4.277-19.43
	C136.678,65,139.826,58.277,141.838,50.689z"/>
<path opacity="0.21" d="M24.967,48.346c0.051,0.137,5.508,5.551,8.332,5.869c1.898,0.205,7.383,3.975,8.633,4.115
	c0,0,1.016,0.518,0.438,0.84c-0.73,0.416-14.311,14.322-11.316,22.906c3.027,8.584-10.871-10.127-0.93-19.414
	C30.123,62.662,26.99,55.934,24.967,48.346z"/>
<g>
	<g>
		<path fill="#FFFFFF" d="M205.447,9.023h10.027l22.428,70.967h-13.451l-4.113-14.662h-24.043l-3.953,14.662h-13.449l20.441-66.225
			C200.408,10.605,202.447,9.023,205.447,9.023z M208.318,23.252l-8.625,30.133h17.227L208.318,23.252z"/>
		<path fill="#FFFFFF" d="M261.393,79.99V16.445c0-2.051,0.631-3.812,1.881-5.254c1.264-1.445,2.787-2.168,4.58-2.168h22.607
			c6.322,0,11.178,1.514,14.518,4.547c3.34,3.291,5.02,7.764,5.02,13.389c0,3.594-0.656,6.615-1.965,9.086
			c-1.316,2.344-3.168,4.186-5.566,5.566c3.111,1.514,5.508,3.643,7.18,6.396c1.547,2.617,2.332,6.055,2.332,10.318
			c0,6.869-1.922,12.236-5.742,16.084c-3.93,3.73-9.512,5.58-16.688,5.58H261.393z M273.592,36.455h14.531
			c3.105,0,5.375-0.619,6.811-1.855c1.451-1.234,2.154-3.164,2.154-5.781c0-2.607-0.703-4.535-2.154-5.762
			c-1.201-1.104-3.521-1.66-6.998-1.66h-14.344V36.455z M273.592,67.193h15.072c3.346,0,5.912-0.758,7.721-2.266
			c1.654-1.393,2.488-3.717,2.488-7.021c0-3.301-0.834-5.699-2.488-7.217c-1.568-1.363-4.191-2.07-7.896-2.07h-14.896V67.193z"/>
		<path fill="#FFFFFF" d="M315.572,9.023h6.457c1.68,0,3.105,0.684,4.305,2.07c1.191,1.373,1.789,3.023,1.789,4.947v4.326h-12.551
			V9.023z M315.572,25.113h6.457c1.68,0,3.105,0.684,4.305,2.07c1.191,1.361,1.789,3.021,1.789,4.951V79.99h-12.551V25.113z"/>
		<path fill="#FFFFFF" d="M349.83,79.99c-3.945,0.27-8.23,0.215-12.826-0.215c-4.604-0.414-6.9-3.773-6.9-10.111V9.023h6.445
			c1.568,0,2.936,0.684,4.133,2.07c1.199,1.373,1.785,3.023,1.785,4.947v9.281h7.363v2.881c0,2.066-0.605,3.746-1.797,5.059
			c-1.199,1.305-2.625,1.949-4.305,1.949h-1.262v30.537c0,2.344,1.197,3.5,3.594,3.5h3.77V79.99z"/>
		<path fill="#FFFFFF" d="M350.904,58.326v-5.992c0-3.715,1.602-5.57,4.84-5.57h19.906v11.562H350.904z"/>
		<path fill="#FFFFFF" d="M376.725,79.99V16.445c0-2.051,0.625-3.812,1.895-5.254c1.256-1.445,2.785-2.227,4.57-2.367h12.359
			l12.211,54.242l12.193-54.242h18.828V79.99h-11.83V22.637L414.393,79.99h-13.082l-12.73-57.354V79.99H376.725z"/>
		<path fill="#FFFFFF" d="M447.746,75.029c-2.494-2.475-4.297-5.801-5.371-10.004c-1.068-4.205-1.611-8.564-1.611-13.086
			c0-3.721,0.453-7.432,1.344-11.143c0.898-3.707,2.305-6.816,4.219-9.277c3.113-4.131,7.104-6.578,12.02-7.324
			c4.895-0.768,9.316-0.312,13.268,1.328c4.545,2.051,7.891,5.645,10.053,10.723c2.031,4.551,3.033,9.834,3.033,15.893
			c0,4.391-0.416,8.189-1.236,11.328c-0.84,3.174-1.928,5.85-3.246,8.057c-2.867,4.531-6.508,7.35-10.938,8.467
			c-3.941,1.217-7.914,1.344-11.924,0.293C453.346,79.264,450.139,77.5,447.746,75.029z M456.379,38.73
			c-2.514,3.17-3.662,7.867-3.418,14.127c0.244,6.264,1.256,10.609,3.041,13.096c0.729,1.104,1.988,2.031,3.775,2.787
			c1.791,0.752,3.613,0.816,5.469,0.211c1.855-0.631,3.502-2.168,4.936-4.639c1.432-2.486,2.207-6.471,2.324-11.979
			c0-4.936-0.684-8.656-2.059-11.127c-1.367-2.477-2.961-4.053-4.738-4.752c-1.805-0.684-3.594-0.717-5.398-0.098
			C458.514,36.969,457.209,37.77,456.379,38.73z"/>
		<path fill="#FFFFFF" d="M528.299,79.99h-6.285c-1.781,0-3.252-0.678-4.391-1.973c-1.137-1.303-1.707-2.988-1.707-5.053V44.918
			c0-3.307-0.865-5.703-2.598-7.213c-1.73-1.514-3.672-2.275-5.836-2.275s-4.059,0.762-5.738,2.275
			c-1.68,1.51-2.514,3.906-2.514,7.213V79.99h-12.553V47.799c0-9.346,2.129-15.605,6.371-18.76c4.234-3.17,8.936-4.893,14.086-5.156
			c5.26,0,10.109,1.586,14.531,4.721c4.42,3.18,6.633,9.576,6.633,19.195V79.99z"/>
		<path fill="#FFFFFF" d="M542.818,25.113v20.225l15.246-20.225h15.066L556.1,46.158l17.207,33.832h-15.062l-8.785-18.578
			c-1.791-3.691-3.34-5.273-4.668-4.742c-1.316,0.553-1.973,1.383-1.973,2.477v7.637V79.99h-12.553V9.023h6.471
			c1.66,0,3.1,0.684,4.291,2.07c1.197,1.373,1.791,2.949,1.791,4.732V25.113z"/>
		<path fill="#FFFFFF" d="M608.65,63.066h8.969c-1.318,5.771-3.824,10.172-7.529,13.209c-3.705,3.154-8.373,4.736-13.99,4.736
			c-6.811,0-12.129-2.549-15.961-7.627c-3.832-4.951-5.746-12.041-5.746-21.246c0-8.818,1.859-15.684,5.551-20.619
			c3.832-5.094,9.16-7.637,15.973-7.637c7.176,0,12.734,2.465,16.674,7.426c3.842,5.084,5.748,12.174,5.748,21.24
			c0,0.553,0,1.031,0,1.451c0,0.404,0,0.684,0,0.811c0,0.697-0.051,1.176-0.176,1.445h-31.027c0.109,4.271,1.008,7.426,2.688,9.492
			c1.562,2.207,3.887,3.285,6.992,3.285c2.025,0,3.758-0.469,5.203-1.43c0.352-0.137,0.684-0.371,0.977-0.719
			c0.293-0.352,0.631-0.713,0.977-1.137c0.129-0.42,0.578-0.963,1.363-1.65C606.096,63.414,607.219,63.066,608.65,63.066z
			 M587.135,46.998h18.297c-0.258-3.727-1.074-6.484-2.523-8.268c-1.549-1.928-3.756-2.895-6.641-2.895
			c-2.623,0-4.781,0.967-6.445,2.895C588.143,40.664,587.244,43.424,587.135,46.998z"/>
		<path fill="#FFFFFF" d="M627.127,99.361V88.018h3.418c2.371,0,4.266-0.658,5.645-1.953c1.367-1.309,1.641-3.402,0.801-6.289
			l-16.691-54.662h13.809l9.699,38.789l8.432-33.838c0.717-3.281,2.627-4.951,5.748-4.951h8.607l-18.295,62.5
			c-1.438,4.531-3.234,7.754-5.391,9.688c-2.145,1.66-5.684,2.484-10.572,2.484c-0.371,0-0.787,0-1.264,0c-0.475,0-0.898,0-1.256,0
			c-0.357-0.141-0.807-0.248-1.342-0.326C627.941,99.395,627.482,99.361,627.127,99.361z"/>
		<path fill="#FFFFFF" d="M667.668,61.826h12.193c0.117,2.75,1.01,4.814,2.689,6.188c1.787,1.396,4.18,2.07,7.178,2.07
			c2.145,0,4-0.488,5.562-1.451c1.42-0.947,2.148-2.25,2.148-3.91c0-2.48-2.52-4.332-7.531-5.576c-2.156-0.41-3.777-0.82-4.857-1.24
			c-6.334-1.768-10.572-3.906-12.725-6.387c-2.393-2.471-3.59-5.781-3.59-9.908c0-5.219,1.734-9.545,5.201-13.008
			c3.58-3.135,8.252-4.721,13.99-4.721c6.211,0,11.176,1.586,14.891,4.721c3.457,3.463,5.312,7.926,5.559,13.424h-7.711
			c-2.281,0-4.02-1.172-5.199-3.506c-0.484-0.547-0.953-1.094-1.432-1.66c-1.445-1.227-3.412-1.842-5.918-1.842
			c-2.416,0-4.193,0.41-5.396,1.227c-1.074,0.844-1.609,2.064-1.609,3.725c0,2.197,3.113,4.053,9.33,5.566
			c0.713,0.279,1.342,0.475,1.885,0.621c0.531,0.137,1.039,0.205,1.52,0.205c6.098,1.791,10.346,3.861,12.738,6.186
			c2.266,2.471,3.408,5.777,3.408,9.898c0,6.055-1.908,10.732-5.732,14.033c-3.594,3.002-8.969,4.531-16.143,4.531
			c-6.826,0-11.904-1.582-15.248-4.736c-3.469-3.184-5.201-7.773-5.201-13.828V61.826z"/>
	</g>
</g>
<g>
	<g>
		<path fill="#FFFFFF" d="M281.119,146.035c-1.062,9.15-5.848,16.324-14.355,21.504c-8.725,5.035-20.215,7.549-34.457,7.549
			c-16.598,0-29.254-3.578-37.973-10.752c-8.727-6.859-13.086-16.996-13.086-30.42c0-13.725,4.473-24.023,13.406-30.883
			c9.141-7.168,22.33-10.758,39.562-10.758c14.037,0,25.203,2.525,33.5,7.555c7.867,4.883,12.34,11.748,13.402,20.586H267.4
			c-5.104,0-8.723-1.602-10.846-4.805c-1.494-1.979-3.301-3.736-5.424-5.264c-4.264-2.285-9.895-3.428-16.914-3.428
			c-9.785,0-17.34,2.289-22.652,6.859c-5.107,4.576-7.66,11.295-7.66,20.137c0,8.541,2.553,15.094,7.66,19.674
			c4.887,4.727,12.227,7.09,22.016,7.09c6.809,0,12.447-1.221,16.906-3.662c4.043-2.291,6.918-5.947,8.621-10.982H281.119z"/>
		<path fill="#FFFFFF" d="M285.904,173.258v-29.512c0-5.943,1.223-10.938,3.672-14.98c2.441-4.033,5.793-7.285,10.051-9.727
			c4.043-2.281,8.777-3.961,14.199-5.029c5.424-1.064,11.01-1.598,16.752-1.598c0.42,0,0.957,0,1.592,0c0.641,0,1.168,0,1.602,0
			v16.24h-7.344c-6.172,0-10.742,1.07-13.721,3.199c-2.979,2.143-4.467,5.492-4.467,10.068v31.338H285.904z"/>
		<path fill="#FFFFFF" d="M395.025,154.502h15.953c-2.344,6.402-6.812,11.285-13.402,14.635c-6.594,3.51-14.883,5.264-24.883,5.264
			c-12.129,0-21.594-2.822-28.398-8.457c-6.812-5.498-10.215-13.346-10.215-23.57c0-9.75,3.301-17.383,9.896-22.875
			c6.803-5.641,16.27-8.457,28.398-8.457c12.764,0,22.65,2.738,29.668,8.232c6.807,5.645,10.209,13.496,10.209,23.559
			c0,0.611,0,1.148,0,1.607s0,0.762,0,0.912c0,0.768-0.105,1.295-0.312,1.602h-55.203c0.209,4.732,1.805,8.232,4.785,10.523
			c2.768,2.441,6.914,3.662,12.445,3.662c3.613,0,6.703-0.537,9.254-1.607c0.645-0.146,1.219-0.414,1.752-0.801
			c0.533-0.375,1.119-0.795,1.758-1.254c0.209-0.459,1.006-1.07,2.393-1.832C390.506,154.879,392.473,154.502,395.025,154.502z
			 M356.736,136.656h32.547c-0.43-4.111-1.914-7.168-4.473-9.15c-2.762-2.129-6.693-3.199-11.801-3.199
			c-4.684,0-8.512,1.07-11.488,3.199C358.541,129.645,356.945,132.695,356.736,136.656z"/>
		<path fill="#FFFFFF" d="M470.006,170.742c-4.467,1.68-9.203,2.705-14.199,3.092c-5,0.375-9.408,0.566-13.242,0.566
			c-7.656,0-14.355-1.484-20.098-4.453c-5.742-2.979-8.617-7.896-8.617-14.762c0-6.4,2.602-10.98,7.816-13.725
			s11.861-4.57,19.941-5.488c1.061,0,2.344-0.117,3.834-0.342c1.479-0.234,3.189-0.42,5.104-0.576
			c9.355-0.914,14.037-2.891,14.037-5.943c0-2.289-1.65-3.779-4.947-4.463c-3.301-0.688-6.328-1.029-9.09-1.029
			c-2.98,0-5.641,0.303-7.98,0.918c-2.344,0.605-4.043,1.758-5.102,3.428H416.08c0.852-4.727,3.834-8.613,8.938-11.666
			c5.742-3.51,13.93-5.258,24.57-5.258c11.914,0,20.84,1.445,26.805,4.346c6.164,3.051,9.25,7.314,9.25,12.812v20.811
			c0,6.104-1.549,10.863-4.625,14.301C477.928,166.738,474.26,169.219,470.006,170.742z M464.904,142.607
			c-2.984,1.07-7.129,2.057-12.445,2.975l-7.344,1.137c-3.824,0.771-6.594,1.758-8.293,2.979c-1.488,1.68-2.234,3.359-2.234,5.029
			c0,2.291,0.957,4.121,2.875,5.494c1.91,1.221,4.672,1.83,8.297,1.83c5.945,0,10.629-1.221,14.037-3.662
			c3.398-2.441,5.107-5.791,5.107-10.062V142.607z"/>
		<path fill="#FFFFFF" d="M526.482,173.258c-7.018,0.307-14.629,0.225-22.812-0.225c-8.195-0.459-12.285-4.195-12.285-11.211V94.566
			h11.484c2.762,0,5.215,0.771,7.344,2.289c2.123,1.523,3.184,3.355,3.184,5.494v10.287h13.086v3.209c0,2.285-1.066,4.154-3.195,5.6
			c-2.129,1.451-4.676,2.174-7.656,2.174h-2.234v33.857c0,2.592,2.123,3.887,6.387,3.887h6.699V173.258z"/>
		<path fill="#FFFFFF" d="M530.311,94.566h11.484c2.973,0,5.527,0.771,7.656,2.289c2.123,1.523,3.191,3.355,3.191,5.494v4.805
			h-22.332V94.566z M530.311,112.412h11.484c2.973,0,5.527,0.762,7.656,2.281c2.123,1.527,3.191,3.359,3.191,5.498v53.066h-22.332
			V112.412z"/>
		<path fill="#FFFFFF" d="M564.127,167.77c-4.467-2.744-7.656-6.445-9.57-11.094s-2.871-9.498-2.871-14.527
			c0-4.121,0.797-8.232,2.395-12.354c1.596-4.121,4.09-7.549,7.5-10.297c5.527-4.57,12.65-7.275,21.371-8.115
			c8.727-0.84,16.598-0.342,23.617,1.488c8.078,2.281,14.035,6.25,17.863,11.891c3.621,5.033,5.43,10.908,5.43,17.611
			c0,4.883-0.748,9.078-2.238,12.588c-1.488,3.512-3.406,6.48-5.742,8.916c-5.102,5.035-11.596,8.16-19.461,9.381
			c-7.023,1.377-14.098,1.488-21.223,0.342C574.068,172.457,568.385,170.514,564.127,167.77z M579.439,127.506
			c-4.457,3.51-6.484,8.734-6.059,15.674c0.43,6.943,2.236,11.781,5.426,14.521c1.277,1.225,3.51,2.25,6.703,3.086
			c3.188,0.844,6.426,0.918,9.73,0.234c3.293-0.689,6.223-2.402,8.775-5.146s3.932-7.168,4.146-13.268
			c0-5.492-1.23-9.609-3.672-12.354c-2.447-2.748-5.26-4.496-8.453-5.264c-3.188-0.762-6.383-0.795-9.57-0.111
			C583.279,125.566,580.936,126.445,579.439,127.506z"/>
		<path fill="#FFFFFF" d="M707.389,173.258h-11.16c-3.195,0-5.801-0.719-7.818-2.174c-2.025-1.445-3.033-3.314-3.033-5.6v-31.113
			c0-3.662-1.547-6.328-4.629-8.008c-3.086-1.676-6.543-2.51-10.371-2.51s-7.23,0.834-10.209,2.51
			c-2.979,1.68-4.467,4.346-4.467,8.008v38.887h-22.336v-35.684c0-10.371,3.775-17.305,11.328-20.816
			c7.545-3.51,15.898-5.414,25.051-5.717c9.355,0,17.969,1.748,25.844,5.258c7.867,3.512,11.801,10.602,11.801,21.275V173.258z"/>
	</g>
</g>
</svg>
