<?xml version="1.0" encoding="utf-8"?>
<!-- Generator: Adobe Illustrator 15.0.0, SVG Export Plug-In  -->
<!DOCTYPE svg PUBLIC "-//W3C//DTD SVG 1.1//EN" "http://www.w3.org/Graphics/SVG/1.1/DTD/svg11.dtd" [
	<!ENTITY ns_flows "http://ns.adobe.com/Flows/1.0/">
]>
<svg version="1.1"
	 xmlns="http://www.w3.org/2000/svg" xmlns:xlink="http://www.w3.org/1999/xlink" xmlns:a="http://ns.adobe.com/AdobeSVGViewerExtensions/3.0/"
	 x="0px" y="0px" width="800px" height="400px" viewBox="-20.886 -151.741 800 400"
	 overflow="visible" enable-background="new -20.886 -151.741 800 400" xml:space="preserve">
<defs>
</defs>
<path fill="#FFFFFF" d="M9.714,69.878c-3.486-2.623-5.978-6.148-7.477-10.592C0.744,54.849,0,50.225,0,45.42
	c0-3.932,0.622-7.862,1.865-11.792c1.245-3.932,3.196-7.207,5.856-9.826c4.319-4.37,9.883-6.953,16.694-7.754
	c6.812-0.799,12.957-0.328,18.438,1.42c6.312,2.185,10.964,5.97,13.953,11.354c2.824,4.807,4.239,10.414,4.239,16.816
	c0,4.663-0.582,8.664-1.745,12.012c-1.163,3.348-2.658,6.188-4.485,8.516c-3.987,4.805-9.056,7.791-15.2,8.951
	c-5.48,1.311-11.004,1.42-16.569,0.33C17.479,74.355,13.036,72.498,9.714,69.878z M21.675,31.444
	c-3.489,3.351-5.066,8.333-4.733,14.958c0.327,6.625,1.741,11.247,4.233,13.866c0.998,1.168,2.742,2.15,5.234,2.949
	c2.49,0.799,5.021,0.87,7.599,0.215c2.572-0.654,4.86-2.289,6.851-4.908c1.993-2.621,3.072-6.844,3.24-12.669
	c0-5.24-0.958-9.172-2.866-11.792c-1.909-2.62-4.109-4.294-6.602-5.022c-2.494-0.729-4.984-0.765-7.473-0.11
	C24.662,29.587,22.837,30.425,21.675,31.444z"/>
<path fill="#FFFFFF" d="M80.729,89.096c0,2.036-0.833,3.78-2.494,5.239c-1.661,1.451-3.652,2.183-5.978,2.183h-8.472V42.143
	C63.785,31.955,67.188,25,74,21.29c6.811-3.712,14.206-5.569,22.178-5.569c4.149,0,8.348,0.694,12.585,2.075
	c4.233,1.386,7.597,3.382,10.088,6.007c4.986,5.674,7.477,12.957,7.477,21.835c0,9.172-2.491,16.596-7.477,22.273
	c-4.979,5.536-11.38,8.3-19.187,8.3c-4.149,0-7.808-0.656-10.961-1.965c-3.323-1.455-5.979-3.713-7.974-6.77V89.096z
	 M109.137,46.293c0-5.677-1.249-10.044-3.741-13.102c-2.489-3.057-6.063-4.584-10.714-4.584c-4.485,0-7.969,1.527-10.465,4.584
	c-2.325,2.767-3.488,7.134-3.488,13.102c0,5.533,1.247,9.685,3.736,12.449c2.494,3.057,6.065,4.584,10.714,4.584
	c4.321,0,7.728-1.527,10.217-4.584C107.888,55.685,109.137,51.535,109.137,46.293z"/>
<path fill="#FFFFFF" d="M175.416,57.214h12.454c-1.825,6.111-5.318,10.772-10.463,13.974c-5.15,3.351-11.626,5.022-19.433,5.022
	c-9.469,0-16.866-2.693-22.175-8.08c-5.318-5.239-7.978-12.739-7.978-22.493c0-9.313,2.573-16.596,7.728-21.835
	c5.313-5.386,12.706-8.082,22.177-8.082c9.965,0,17.69,2.62,23.17,7.862c5.316,5.386,7.975,12.884,7.975,22.493
	c0,0.584,0,1.09,0,1.527s0,0.731,0,0.873c0,0.731-0.089,1.239-0.248,1.53h-43.108c0.163,4.516,1.41,7.863,3.736,10.046
	c2.159,2.329,5.396,3.495,9.719,3.495c2.824,0,5.234-0.512,7.225-1.53c0.498-0.144,0.954-0.397,1.371-0.765
	c0.414-0.361,0.875-0.763,1.373-1.2c0.164-0.438,0.786-1.019,1.867-1.747C171.884,57.576,173.419,57.214,175.416,57.214z
	 M145.514,40.178h25.415c-0.334-3.929-1.494-6.84-3.488-8.734c-2.161-2.036-5.234-3.057-9.218-3.057
	c-3.657,0-6.647,1.021-8.974,3.057C146.924,33.485,145.677,36.396,145.514,40.178z"/>
<path fill="#FFFFFF" d="M249.417,75.117h-8.719c-2.494,0-4.527-0.686-6.104-2.074c-1.582-1.383-2.368-3.164-2.368-5.347V37.994
	c0-3.492-1.21-6.039-3.611-7.642c-2.41-1.598-5.109-2.4-8.104-2.4c-2.986,0-5.643,0.802-7.969,2.4
	c-2.332,1.603-3.489,4.149-3.489,7.642v37.123h-17.442V41.053c0-9.9,2.948-16.522,8.844-19.875
	c5.899-3.346,12.416-5.164,19.559-5.457c7.309,0,14.036,1.677,20.188,5.022c6.141,3.351,9.216,10.123,9.216,20.311V75.117z"/>
<path fill="#FFFFFF" d="M324.666,89.096v-21.62c-2.16,3.057-4.82,5.314-7.969,6.77c-3.327,1.309-6.979,1.965-10.966,1.965
	c-7.974,0-14.366-2.764-19.187-8.3c-4.82-5.384-7.225-12.808-7.225-22.273c0-9.025,2.405-16.302,7.225-21.835
	c2.494-2.625,5.815-4.621,9.965-6.007c4.155-1.38,8.388-2.075,12.71-2.075c7.975,0,15.362,1.857,22.177,5.569
	c6.808,3.71,10.217,10.665,10.217,20.853v54.375h-8.472c-2.332,0-4.323-0.731-5.982-2.183
	C325.499,92.876,324.666,91.132,324.666,89.096z M296.263,46.293c0,5.242,1.242,9.392,3.739,12.449
	c2.489,3.057,5.895,4.584,10.217,4.584c4.647,0,8.217-1.527,10.711-4.584c2.492-2.764,3.735-6.916,3.735-12.449
	c0-5.677-1.163-10.044-3.484-13.102c-2.494-3.057-5.983-4.584-10.465-4.584c-4.656,0-8.226,1.527-10.715,4.584
	C297.504,36.249,296.263,40.616,296.263,46.293z"/>
<path fill="#FFFFFF" d="M402.408,17.031v34.064c0,10.342-3.075,17.111-9.216,20.311c-6.15,3.206-12.879,4.805-20.187,4.805
	c-7.144-0.291-13.659-2.039-19.559-5.24c-5.896-3.198-8.844-9.826-8.844-19.875V17.031h17.442v37.123
	c0,3.496,1.158,6.042,3.489,7.645c2.326,1.604,4.983,2.402,7.969,2.402c2.995,0,5.693-0.799,8.104-2.402
	c2.401-1.603,3.611-4.148,3.611-7.645V24.458c0-2.038,0.786-3.786,2.369-5.245c1.576-1.451,3.609-2.182,6.104-2.182H402.408z"/>
<path fill="#FFFFFF" d="M451.249,57.214h12.459c-1.833,6.111-5.317,10.772-10.466,13.974c-5.156,3.351-11.633,5.022-19.439,5.022
	c-9.467,0-16.856-2.693-22.174-8.08c-5.318-5.239-7.973-12.739-7.973-22.493c0-9.313,2.576-16.596,7.723-21.835
	c5.316-5.386,12.709-8.082,22.176-8.082c9.968,0,17.694,2.62,23.175,7.862c5.314,5.386,7.974,12.884,7.974,22.493
	c0,0.584,0,1.09,0,1.527s0,0.731,0,0.873c0,0.731-0.087,1.239-0.249,1.53h-43.106c0.164,4.516,1.406,7.863,3.737,10.046
	c2.157,2.329,5.396,3.495,9.718,3.495c2.824,0,5.234-0.512,7.227-1.53c0.498-0.144,0.953-0.397,1.367-0.765
	c0.414-0.361,0.873-0.763,1.371-1.2c0.164-0.438,0.786-1.019,1.871-1.747C447.713,57.576,449.253,57.214,451.249,57.214z
	 M421.347,40.178h25.418c-0.337-3.929-1.5-6.84-3.491-8.734c-2.162-2.036-5.232-3.057-9.222-3.057c-3.654,0-6.643,1.021-8.968,3.057
	C422.753,33.485,421.511,36.396,421.347,40.178z"/>
<path fill="#FFFFFF" d="M465.947,55.904h16.944c0.162,2.911,1.409,5.094,3.739,6.55c2.49,1.456,5.812,2.183,9.967,2.183
	c2.99,0,5.559-0.506,7.723-1.527c1.996-1.017,2.992-2.402,2.992-4.15c0-2.619-3.49-4.584-10.465-5.894
	c-2.995-0.44-5.232-0.875-6.726-1.31c-8.81-1.895-14.704-4.153-17.694-6.772c-3.322-2.62-4.984-6.114-4.984-10.481
	c0-5.533,2.407-10.117,7.228-13.759c4.982-3.345,11.462-5.022,19.437-5.022c8.635,0,15.531,1.677,20.676,5.022
	c4.819,3.642,7.394,8.373,7.727,14.196h-10.713c-3.158,0-5.568-1.239-7.23-3.712c-0.66-0.582-1.326-1.164-1.99-1.75
	c-1.993-1.31-4.733-1.965-8.221-1.965c-3.324,0-5.821,0.44-7.477,1.31c-1.494,0.875-2.239,2.185-2.239,3.932
	c0,2.329,4.313,4.296,12.954,5.895c0.995,0.296,1.865,0.516,2.617,0.655c0.75,0.149,1.448,0.22,2.119,0.22
	c8.471,1.894,14.364,4.076,17.688,6.552c3.158,2.62,4.736,6.115,4.736,10.485c0,6.402-2.661,11.351-7.975,14.846
	c-4.982,3.206-12.459,4.805-22.424,4.805c-9.468,0-16.535-1.672-21.18-5.022c-4.82-3.349-7.229-8.226-7.229-14.628V55.904z"/>
<path fill="#FFFFFF" d="M556.898,75.117c-5.482,0.294-11.422,0.221-17.814-0.217c-6.398-0.438-9.595-4.003-9.595-10.699V0h8.97
	c2.155,0,4.067,0.728,5.729,2.182c1.66,1.459,2.494,3.204,2.494,5.239v9.827h10.217v3.06c0,2.185-0.834,3.966-2.494,5.347
	c-1.662,1.388-3.657,2.077-5.983,2.077h-1.739v32.319c0,2.476,1.655,3.712,4.982,3.712h5.234V75.117z"/>
<path fill="#FFFFFF" d="M559.888,0h8.966c2.326,0,4.321,0.728,5.981,2.182c1.661,1.459,2.496,3.204,2.496,5.239v4.587h-17.443V0z
	 M559.888,17.031h8.966c2.326,0,4.321,0.731,5.981,2.182c1.661,1.459,2.496,3.207,2.496,5.245v50.659h-17.443V17.031z"/>
<path fill="#FFFFFF" d="M586.296,69.878c-3.486-2.623-5.979-6.148-7.472-10.592c-1.499-4.438-2.244-9.062-2.244-13.866
	c0-3.932,0.624-7.862,1.87-11.792c1.244-3.932,3.196-7.207,5.854-9.826c4.317-4.37,9.882-6.953,16.692-7.754
	c6.812-0.799,12.957-0.328,18.438,1.42c6.314,2.185,10.965,5.97,13.958,11.354c2.822,4.807,4.237,10.414,4.237,16.816
	c0,4.663-0.587,8.664-1.748,12.012c-1.164,3.348-2.662,6.188-4.485,8.516c-3.983,4.805-9.054,7.791-15.196,8.951
	c-5.484,1.311-11.012,1.42-16.57,0.33C594.061,74.355,589.618,72.498,586.296,69.878z M598.257,31.444
	c-3.485,3.351-5.068,8.333-4.732,14.958c0.33,6.625,1.744,11.247,4.233,13.866c0.997,1.168,2.741,2.15,5.23,2.949
	c2.497,0.799,5.024,0.87,7.606,0.215c2.574-0.654,4.856-2.289,6.85-4.908c1.99-2.621,3.07-6.844,3.238-12.669
	c0-5.24-0.959-9.172-2.867-11.792c-1.912-2.62-4.112-4.294-6.602-5.022c-2.494-0.729-4.982-0.765-7.473-0.11
	C601.25,29.587,599.419,30.425,598.257,31.444z"/>
<path fill="#FFFFFF" d="M698.179,75.117h-8.725c-2.488,0-4.526-0.686-6.104-2.074c-1.578-1.383-2.365-3.164-2.365-5.347V37.994
	c0-3.492-1.208-6.039-3.615-7.642c-2.41-1.598-5.107-2.4-8.098-2.4c-2.992,0-5.648,0.802-7.975,2.4
	c-2.328,1.603-3.486,4.149-3.486,7.642v37.123h-17.445V41.053c0-9.9,2.948-16.522,8.85-19.875
	c5.895-3.346,12.412-5.164,19.559-5.457c7.304,0,14.035,1.677,20.182,5.022c6.141,3.351,9.223,10.123,9.223,20.311V75.117z"/>
<path fill="#FFFFFF" d="M699.42,55.904h16.944c0.162,2.911,1.409,5.094,3.74,6.55c2.489,1.456,5.81,2.183,9.965,2.183
	c2.988,0,5.563-0.506,7.725-1.527c1.994-1.017,2.989-2.402,2.989-4.15c0-2.619-3.487-4.584-10.462-5.894
	c-2.992-0.44-5.233-0.875-6.729-1.31c-8.806-1.895-14.7-4.153-17.693-6.772c-3.325-2.62-4.986-6.114-4.986-10.481
	c0-5.533,2.41-10.117,7.229-13.759c4.984-3.345,11.466-5.022,19.436-5.022c8.639,0,15.533,1.677,20.683,5.022
	c4.812,3.642,7.388,8.373,7.72,14.196h-10.709c-3.16,0-5.57-1.239-7.228-3.712c-0.665-0.582-1.329-1.164-1.991-1.75
	c-2-1.31-4.734-1.965-8.226-1.965c-3.325,0-5.815,0.44-7.475,1.31c-1.495,0.875-2.243,2.185-2.243,3.932
	c0,2.329,4.321,4.296,12.957,5.895c0.996,0.296,1.869,0.516,2.615,0.655c0.749,0.149,1.455,0.22,2.121,0.22
	c8.468,1.894,14.361,4.076,17.689,6.552c3.154,2.62,4.736,6.115,4.736,10.485c0,6.402-2.658,11.351-7.977,14.846
	c-4.98,3.206-12.457,4.805-22.425,4.805c-9.468,0-16.53-1.672-21.181-5.022c-4.82-3.349-7.226-8.226-7.226-14.628V55.904z"/>
</svg>
