<?xml version="1.0" encoding="utf-8"?>
<!-- Generator: Adobe Illustrator 15.0.0, SVG Export Plug-In  -->
<!DOCTYPE svg PUBLIC "-//W3C//DTD SVG 1.1//EN" "http://www.w3.org/Graphics/SVG/1.1/DTD/svg11.dtd" [
	<!ENTITY ns_flows "http://ns.adobe.com/Flows/1.0/">
]>
<svg version="1.1"
	 xmlns="http://www.w3.org/2000/svg" xmlns:xlink="http://www.w3.org/1999/xlink" xmlns:a="http://ns.adobe.com/AdobeSVGViewerExtensions/3.0/"
	 x="0px" y="0px" width="700px" height="700px" viewBox="-54.433 -60.601 700 700"
	 overflow="visible" enable-background="new -54.433 -60.601 700 700" xml:space="preserve">
<defs>
</defs>
<path fill="#0FFFFF" d="M100.477,245.59c-5.299-3.983-9.087-9.347-11.36-16.096c-2.27-6.747-3.408-13.777-3.408-21.077
	c0-5.972,0.945-11.946,2.837-17.917c1.9-5.977,4.859-10.953,8.904-14.94c6.558-6.637,15.014-10.56,25.372-11.776
	c10.35-1.215,19.692-0.501,28.02,2.153c9.592,3.324,16.662,9.077,21.204,17.261c4.295,7.302,6.44,15.819,6.44,25.55
	c0,7.087-0.885,13.169-2.652,18.254c-1.767,5.096-4.044,9.408-6.816,12.946c-6.061,7.302-13.761,11.838-23.1,13.606
	c-8.332,1.993-16.728,2.159-25.179,0.501C112.277,252.393,105.526,249.573,100.477,245.59z M118.655,187.179
	c-5.304,5.091-7.703,12.67-7.198,22.731c0.507,10.072,2.653,17.091,6.438,21.074c1.519,1.775,4.165,3.27,7.955,4.48
	c3.785,1.221,7.634,1.332,11.545,0.336c3.913-0.995,7.388-3.484,10.417-7.468c3.03-3.983,4.67-10.4,4.926-19.245
	c0-7.969-1.459-13.94-4.354-17.925c-2.911-3.983-6.251-6.523-10.035-7.634c-3.787-1.104-7.579-1.158-11.365-0.165
	C123.199,184.358,120.417,185.632,118.655,187.179z"/>
<path fill="#0FFFFF" d="M206.546,275.273c0,3.096,0.594,5.272-1.93,7.489c-2.53,2.209-5.556,3.319-9.089,3.319l-12.877-8.686
	v-73.954c0-15.486,5.174-26.05,15.53-31.697c10.348-5.64,21.583-8.461,33.704-8.461c6.304,0,12.684,1.056,19.12,3.152
	c6.436,2.106,11.547,5.149,15.341,9.125c7.57,8.631,11.356,19.697,11.356,33.188c0,13.94-3.786,25.224-11.356,33.855
	c-7.579,8.408-17.3,12.614-29.163,12.614c-6.311,0-11.871-0.998-16.663-2.991c-5.049-2.208-9.089-5.64-12.115-10.287
	L206.546,275.273z M251.573,209.745c0-8.627-1.898-15.265-5.682-19.914c-3.786-4.646-9.217-6.969-16.282-6.969
	c-6.818,0-12.122,2.323-15.907,6.969c-3.538,4.208-5.299,10.844-5.299,19.914c0,8.413,1.892,14.718,5.679,18.918
	c3.786,4.647,9.215,6.97,16.28,6.97c6.564,0,11.744-2.323,15.53-6.97C249.675,224.015,251.573,217.708,251.573,209.745z"/>
<path fill="#0FFFFF" d="M352.299,226.338h18.938c-2.781,9.295-8.081,16.377-15.902,21.241c-7.834,5.093-17.682,7.638-29.541,7.638
	c-14.389,0-25.63-4.093-33.704-12.284c-8.08-7.962-12.119-19.354-12.119-34.186c0-14.155,3.911-25.22,11.742-33.188
	c8.072-8.18,19.314-12.277,33.701-12.277c15.148,0,26.886,3.982,35.223,11.946c8.07,8.189,12.115,19.586,12.115,34.185
	c0,0.887,0,1.658,0,2.324s0,1.113,0,1.325c0,1.111-0.133,1.886-0.38,2.326h-65.513c0.252,6.861,2.141,11.945,5.681,15.269
	c3.278,3.538,8.194,5.31,14.769,5.31c4.288,0,7.953-0.774,10.983-2.328c0.752-0.214,1.444-0.605,2.081-1.16
	c0.627-0.546,1.322-1.165,2.086-1.822c0.246-0.663,1.19-1.544,2.837-2.657C346.935,226.895,349.272,226.338,352.299,226.338z
	 M306.858,200.454h38.627c-0.512-5.974-2.273-10.399-5.304-13.275c-3.284-3.096-7.948-4.648-14.009-4.648
	c-5.558,0-10.103,1.553-13.634,4.648C308.999,190.278,307.11,194.702,306.858,200.454z"/>
<path fill="#0FFFFF" d="M464.766,253.553h-13.251c-3.781,0-6.882-1.048-9.277-3.152c-2.402-2.1-3.598-4.812-3.598-8.13v-45.138
	c0-5.308-1.835-9.178-5.491-11.612c-3.665-2.435-7.761-3.651-12.308-3.651c-4.545,0-8.586,1.217-12.117,3.651
	c-3.534,2.434-5.297,6.304-5.297,11.612v56.42h-26.511V201.78c0-15.042,4.478-25.107,13.442-30.197
	c8.959-5.093,18.868-7.852,29.729-8.301c11.102,0,21.328,2.548,30.67,7.633c9.341,5.096,14.009,15.38,14.009,30.864V253.553z"/>
<path fill="#0FFFFF" d="M91.767,405.508V296.737c0-9.533,2.869-16.676,8.599-21.435c5.445-4.5,14.348-6.749,26.73-6.749
	c3.017,0,5.44,0.139,7.251,0.397c3.316,0,5.887,0.134,7.701,0.395v21.833h-8.154c-4.236,0-7.247,0.529-9.061,1.588
	c-1.516,1.059-2.259,3.174-2.259,6.354v7.142h19.475v5.956c0,3.971-1.519,7.213-4.529,9.725c-3.028,2.516-6.502,3.771-10.423,3.771
	h-4.522v79.795H91.767z"/>
<path fill="#0FFFFF" d="M221.314,401.137c-6.343,2.919-13.062,4.698-20.154,5.363c-7.1,0.651-13.369,0.993-18.8,0.993
	c-10.87,0-20.38-2.584-28.535-7.738c-8.152-5.165-12.23-13.703-12.23-25.615c0-11.111,3.692-19.05,11.095-23.812
	c7.397-4.766,16.834-7.937,28.311-9.527c1.51,0,3.317-0.197,5.437-0.592c2.11-0.402,4.532-0.73,7.247-0.998
	c13.28-1.586,19.931-5.021,19.931-10.322c0-3.967-2.347-6.55-7.024-7.746c-4.688-1.182-8.989-1.775-12.907-1.775
	c-4.234,0-8.005,0.535-11.325,1.582c-3.326,1.063-5.738,3.047-7.248,5.962h-30.354c1.21-8.204,5.443-14.952,12.691-20.249
	c8.153-6.088,19.771-9.135,34.875-9.135c16.907,0,29.591,2.521,38.048,7.551c8.758,5.29,13.14,12.694,13.14,22.229v36.123
	c0,10.586-2.198,18.855-6.568,24.812C232.56,394.188,227.352,398.499,221.314,401.137z M214.065,352.313
	c-4.23,1.854-10.118,3.571-17.666,5.162l-10.417,1.986c-5.437,1.319-9.361,3.041-11.777,5.152c-2.113,2.92-3.174,5.828-3.174,8.734
	c0,3.975,1.363,7.145,4.081,9.53c2.722,2.124,6.64,3.173,11.776,3.173c8.445,0,15.098-2.111,19.931-6.352
	c4.829-4.229,7.246-10.052,7.246-17.466V352.313z"/>
<path fill="#0FFFFF" d="M327.759,430.914v-39.3c-3.929,5.555-8.764,9.664-14.492,12.304c-6.046,2.377-12.686,3.575-19.936,3.575
	c-14.495,0-26.118-5.025-34.875-15.088c-8.759-9.785-13.14-23.286-13.14-40.492c0-16.406,4.38-29.637,13.14-39.695
	c4.532-4.764,10.568-8.396,18.12-10.916c7.544-2.507,15.243-3.775,23.095-3.775c14.498,0,27.93,3.377,40.32,10.127
	c12.381,6.744,18.575,19.392,18.575,37.908v98.848h-15.405c-4.232,0-7.857-1.326-10.867-3.965
	C329.265,437.793,327.759,434.612,327.759,430.914z M276.125,353.104c0,9.526,2.262,17.072,6.793,22.628
	c4.527,5.56,10.714,8.336,18.567,8.336c8.453,0,14.955-2.776,19.479-8.336c4.524-5.026,6.794-12.565,6.794-22.628
	c0-10.321-2.117-18.259-6.342-23.82c-4.53-5.554-10.875-8.335-19.025-8.335c-8.458,0-14.946,2.781-19.473,8.335
	C278.387,334.845,276.125,342.782,276.125,353.104z"/>
<path fill="#0FFFFF" d="M361.278,370.573h30.805c0.291,5.302,2.554,9.271,6.792,11.904c4.527,2.65,10.566,3.977,18.119,3.977
	c5.435,0,10.116-0.926,14.041-2.777c3.622-1.855,5.433-4.371,5.433-7.551c0-4.764-6.34-8.33-19.022-10.717
	c-5.437-0.795-9.511-1.585-12.235-2.381c-16.002-3.433-26.717-7.537-32.148-12.307c-6.048-4.768-9.066-11.113-9.066-19.055
	c0-10.054,4.376-18.393,13.133-25.006c9.066-6.088,20.844-9.135,35.338-9.135c15.691,0,28.229,3.047,37.593,9.135
	c8.749,6.613,13.43,15.217,14.046,25.805H444.62c-5.738,0-10.119-2.252-13.127-6.753c-1.219-1.056-2.42-2.119-3.629-3.176
	c-3.625-2.382-8.605-3.571-14.952-3.571c-6.044,0-10.568,0.795-13.583,2.385c-2.715,1.582-4.08,3.967-4.08,7.141
	c0,4.237,7.854,7.816,23.555,10.719c1.816,0.533,3.4,0.932,4.758,1.19c1.357,0.268,2.643,0.399,3.848,0.399
	c15.403,3.445,26.115,7.414,32.161,11.908c5.729,4.768,8.609,11.116,8.609,19.057c0,11.645-4.832,20.641-14.499,26.988
	c-9.061,5.823-22.646,8.74-40.769,8.74c-17.209,0-30.051-3.044-38.493-9.135c-8.762-6.083-13.141-14.949-13.141-26.594V370.573z"/>
<g>
	<path fill="#FFFFFF" d="M15.52,338.31c6.648,26.124,16.582,50.988,29.761,73.817c3.283,5.708,6.791,11.271,10.458,16.706
		c3.658,5.441,7.512,10.736,11.549,15.873c8.098,10.253,16.815,19.958,26.211,28.911c9.408,8.937,19.343,17.26,29.843,24.753
		c5.242,3.754,10.626,7.293,16.104,10.657c5.47,3.375,11.057,6.545,16.745,9.502c22.772,11.777,47.05,20.372,71.973,25.152
		c12.448,2.432,25.041,3.994,37.663,4.583c12.623,0.591,25.261,0.242,37.81-0.923c12.532-1.191,25.033-3.31,37.235-6.297
		c12.21-3.014,24.218-6.748,35.843-11.433c11.632-4.66,22.895-10.187,33.689-16.492c10.825-6.252,21.182-13.306,30.96-21.083
		c9.786-7.769,18.961-16.292,27.526-25.379c8.577-9.08,16.457-18.811,23.64-29.024c14.353-20.441,25.731-42.955,33.703-66.615
		c3.994-11.829,7.098-23.955,9.361-36.24c2.232-12.291,3.589-24.749,4.048-37.258c0.896-24.998-1.821-50.281-7.999-74.709
		c-6.085-24.457-15.926-47.973-28.801-69.825c-25.855-43.663-64.798-80.084-111.261-103.504
		c-11.608-5.857-23.659-10.967-36.089-15.12c-12.403-4.252-25.181-7.527-38.177-9.989c-26.01-4.87-52.933-6.042-79.934-3.729
		l-0.012,0.001c-3.375,0.289-6.346-2.213-6.635-5.588c-0.258-3.017,1.716-5.71,4.548-6.454
		C290.009-5.826,350.514-2.022,404.922,19.39c13.596,5.356,26.859,11.694,39.583,19.057c12.706,7.389,24.901,15.733,36.453,24.951
		c23.006,18.537,43.438,40.569,60.019,65.379c16.712,24.724,29.464,52.21,38.046,80.945c8.496,28.759,12.749,58.801,12.393,88.97
		c-0.316,30.147-5.303,60.299-14.646,89.023c-9.33,28.735-23.042,56.029-40.43,80.722c-8.686,12.354-18.328,24.028-28.743,34.959
		c-10.426,10.925-21.714,21.017-33.648,30.257c-11.942,9.232-24.566,17.58-37.735,24.945c-13.198,7.312-26.94,13.618-41.053,18.88
		c-14.117,5.239-28.588,9.51-43.296,12.541c-14.716,3.056-29.571,5.033-44.549,5.929c-14.96,0.922-29.985,0.634-44.88-0.765
		c-14.894-1.398-29.671-3.87-44.143-7.473c-28.924-7.274-56.669-18.79-81.906-34.208c-6.316-3.839-12.484-7.904-18.489-12.186
		c-5.998-4.29-11.807-8.829-17.448-13.55c-11.268-9.458-21.857-19.68-31.507-30.691c-9.662-10.995-18.536-22.639-26.355-34.92
		c-3.922-6.13-7.611-12.396-11.057-18.779c-3.437-6.389-6.594-12.914-9.52-19.523C10.333,397.414,2.854,369.293,0.042,341.06
		l-0.002-0.024c-0.432-4.331,2.73-8.192,7.061-8.624C11.033,332.02,14.577,334.592,15.52,338.31z"/>
</g>
</svg>
