<?xml version="1.0" encoding="utf-8"?>
<!-- Generator: Adobe Illustrator 15.0.0, SVG Export Plug-In  -->
<!DOCTYPE svg PUBLIC "-//W3C//DTD SVG 1.1//EN" "http://www.w3.org/Graphics/SVG/1.1/DTD/svg11.dtd" [
	<!ENTITY ns_flows "http://ns.adobe.com/Flows/1.0/">
]>
<svg version="1.1"
	 xmlns="http://www.w3.org/2000/svg" xmlns:xlink="http://www.w3.org/1999/xlink" xmlns:a="http://ns.adobe.com/AdobeSVGViewerExtensions/3.0/"
	 x="0px" y="0px" width="800px" height="400px" viewBox="-29.31 -165.352 800 400"
	 overflow="visible" enable-background="new -29.31 -165.352 800 400" xml:space="preserve">
<defs>
</defs>
<path fill="#FFFFFF" d="M10.217,57.002c-3.67-2.758-6.29-6.465-7.862-11.137C0.785,41.198,0,36.336,0,31.283
	c0-4.135,0.653-8.267,1.964-12.399c1.306-4.135,3.361-7.579,6.154-10.333c4.543-4.595,10.395-7.312,17.557-8.154
	c7.163-0.84,13.625-0.344,19.391,1.493c6.634,2.297,11.529,6.278,14.672,11.939c2.97,5.055,4.458,10.95,4.458,17.683
	c0,4.904-0.614,9.11-1.837,12.63c-1.221,3.521-2.796,6.508-4.713,8.955c-4.193,5.053-9.526,8.193-15.983,9.414
	c-5.766,1.377-11.576,1.493-17.427,0.348C18.382,61.71,13.708,59.757,10.217,57.002z M22.796,16.586
	c-3.67,3.523-5.331,8.763-4.981,15.73c0.347,6.967,1.834,11.826,4.455,14.581c1.05,1.229,2.881,2.263,5.501,3.102
	c2.623,0.841,5.284,0.915,7.994,0.227c2.705-0.689,5.107-2.408,7.201-5.163c2.099-2.754,3.231-7.195,3.411-13.322
	c0-5.51-1.008-9.645-3.017-12.399c-2.008-2.755-4.322-4.515-6.942-5.281c-2.62-0.766-5.242-0.804-7.859-0.116
	C25.936,14.633,24.013,15.515,22.796,16.586z"/>
<path fill="#FFFFFF" d="M84.892,77.212c0,2.14-0.873,3.976-2.62,5.509c-1.75,1.526-3.843,2.295-6.287,2.295h-8.909V27.837
	c0-10.713,3.576-18.027,10.738-21.928c7.163-3.904,14.939-5.857,23.325-5.857c4.36,0,8.777,0.73,13.231,2.182
	c4.454,1.457,7.988,3.557,10.611,6.317c5.24,5.967,7.862,13.625,7.862,22.961c0,9.644-2.623,17.452-7.862,23.421
	c-5.239,5.821-11.967,8.727-20.176,8.727c-4.366,0-8.211-0.688-11.528-2.066c-3.496-1.528-6.289-3.902-8.386-7.119V77.212z
	 M114.765,32.201c0-5.97-1.311-10.562-3.931-13.777c-2.617-3.215-6.38-4.821-11.267-4.821c-4.719,0-8.383,1.606-11.008,4.821
	c-2.443,2.909-3.667,7.501-3.667,13.777c0,5.817,1.314,10.184,3.931,13.09c2.623,3.216,6.375,4.821,11.267,4.821
	c4.54,0,8.126-1.605,10.744-4.821C113.454,42.076,114.765,37.713,114.765,32.201z"/>
<path fill="#FFFFFF" d="M184.461,43.686h13.099c-1.923,6.427-5.592,11.327-11.005,14.693c-5.413,3.523-12.223,5.281-20.432,5.281
	c-9.962,0-17.736-2.832-23.322-8.496c-5.592-5.509-8.386-13.396-8.386-23.652c0-9.794,2.706-17.452,8.127-22.961
	c5.584-5.664,13.36-8.499,23.316-8.499c10.479,0,18.603,2.754,24.369,8.267c5.587,5.664,8.383,13.548,8.383,23.653
	c0,0.614,0,1.146,0,1.605c0,0.46,0,0.769,0,0.917c0,0.769-0.091,1.304-0.262,1.608h-45.331c0.174,4.75,1.485,8.271,3.932,10.565
	c2.267,2.448,5.674,3.675,10.22,3.675c2.967,0,5.502-0.537,7.595-1.608c0.523-0.151,1.005-0.419,1.443-0.805
	c0.433-0.38,0.917-0.802,1.441-1.262c0.173-0.46,0.826-1.071,1.964-1.837C180.75,44.065,182.365,43.686,184.461,43.686z
	 M153.018,25.771h26.725c-0.35-4.132-1.57-7.193-3.667-9.185c-2.273-2.141-5.501-3.215-9.694-3.215
	c-3.846,0-6.989,1.074-9.432,3.215C154.502,18.732,153.191,21.793,153.018,25.771z"/>
<path fill="#FFFFFF" d="M262.281,62.512h-9.17c-2.62,0-4.757-0.723-6.418-2.182c-1.664-1.455-2.491-3.328-2.491-5.623V23.474
	c0-3.672-1.27-6.35-3.799-8.036c-2.535-1.68-5.372-2.523-8.518-2.523c-3.141,0-5.937,0.843-8.38,2.523
	c-2.452,1.686-3.672,4.364-3.672,8.036v39.038h-18.339V26.691c0-10.41,3.096-17.375,9.3-20.9c6.201-3.518,13.052-5.43,20.567-5.738
	c7.686,0,14.761,1.763,21.226,5.281c6.46,3.523,9.694,10.645,9.694,21.358V62.512z"/>
<path fill="#FFFFFF" d="M339.84,59.985c-3.669,1.688-7.556,2.716-11.662,3.103c-4.104,0.381-7.726,0.572-10.873,0.572
	c-6.289,0-11.791-1.49-16.509-4.477c-4.713-2.986-7.072-7.923-7.072-14.809c0-6.431,2.132-11.026,6.418-13.78
	c4.276-2.758,9.736-4.592,16.375-5.512c0.873,0,1.922-0.113,3.146-0.345c1.224-0.231,2.621-0.419,4.19-0.576
	c7.686-0.915,11.529-2.906,11.529-5.97c0-2.295-1.354-3.788-4.061-4.477c-2.711-0.688-5.199-1.033-7.468-1.033
	c-2.444,0-4.628,0.309-6.548,0.919c-1.922,0.612-3.322,1.758-4.196,3.444h-17.556c0.697-4.744,3.148-8.647,7.338-11.713
	c4.719-3.518,11.44-5.281,20.176-5.281c9.78,0,17.119,1.458,22.011,4.361c5.064,3.066,7.599,7.35,7.599,12.862V38.17
	c0,6.127-1.267,10.909-3.799,14.353C346.347,55.967,343.331,58.46,339.84,59.985z M335.645,31.741
	c-2.443,1.074-5.854,2.066-10.218,2.986l-6.024,1.146c-3.144,0.768-5.419,1.763-6.815,2.986c-1.223,1.688-1.832,3.372-1.832,5.053
	c0,2.297,0.785,4.134,2.354,5.512c1.579,1.227,3.843,1.837,6.816,1.837c4.884,0,8.733-1.224,11.529-3.675
	c2.794-2.445,4.19-5.817,4.19-10.104V31.741z"/>
<path fill="#FFFFFF" d="M416.085,62.512h-9.166c-2.625,0-4.763-0.723-6.417-2.182c-1.672-1.455-2.497-3.328-2.497-5.623V23.474
	c0-3.672-1.267-6.35-3.796-8.036c-2.535-1.68-5.371-2.523-8.52-2.523c-3.141,0-5.938,0.843-8.383,2.523
	c-2.447,1.686-3.665,4.364-3.665,8.036v39.038H355.3V26.691c0-10.41,3.099-17.375,9.297-20.9c6.201-3.518,13.058-5.43,20.571-5.738
	c7.686,0,14.76,1.763,21.229,5.281c6.457,3.523,9.688,10.645,9.688,21.358V62.512z"/>
<path fill="#FFFFFF" d="M417.397,42.309h17.816c0.171,3.061,1.486,5.355,3.93,6.886c2.625,1.532,6.115,2.295,10.482,2.295
	c3.146,0,5.852-0.531,8.123-1.605c2.097-1.069,3.144-2.526,3.144-4.362c0-2.756-3.666-4.822-11.005-6.199
	c-3.145-0.463-5.502-0.92-7.073-1.378c-9.263-1.991-15.462-4.367-18.603-7.121c-3.498-2.755-5.242-6.43-5.242-11.022
	c0-5.818,2.529-10.639,7.598-14.468c5.24-3.518,12.053-5.281,20.441-5.281c9.077,0,16.33,1.763,21.746,5.281
	c5.063,3.829,7.771,8.805,8.121,14.928h-11.268c-3.316,0-5.851-1.303-7.598-3.903c-0.699-0.612-1.402-1.223-2.1-1.84
	c-2.094-1.377-4.978-2.066-8.642-2.066c-3.499,0-6.118,0.463-7.865,1.377c-1.569,0.92-2.354,2.297-2.354,4.135
	c0,2.449,4.537,4.518,13.623,6.198c1.049,0.312,1.967,0.543,2.754,0.689c0.785,0.157,1.526,0.231,2.225,0.231
	c8.91,1.991,15.109,4.286,18.604,6.89c3.316,2.754,4.978,6.43,4.978,11.024c0,6.734-2.798,11.938-8.383,15.611
	c-5.242,3.373-13.102,5.053-23.581,5.053c-9.958,0-17.384-1.758-22.271-5.281c-5.069-3.52-7.601-8.648-7.601-15.383V42.309z"/>
<path fill="#FFFFFF" d="M559.411,62.512h-18.34l-10.744-43.627l-10.744,43.627h-18.339L482.118,1.429h17.814l11.01,42.256
	l9.953-42.256H539.5l9.432,42.256l9.695-36.744c1.045-3.674,3.84-5.512,8.381-5.512h11.529L559.411,62.512z"/>
<path fill="#FFFFFF" d="M631.731,43.686h13.098c-1.922,6.427-5.592,11.327-11,14.693c-5.418,3.523-12.232,5.281-20.438,5.281
	c-9.959,0-17.734-2.832-23.322-8.496c-5.592-5.509-8.385-13.396-8.385-23.652c0-9.794,2.705-17.452,8.127-22.961
	c5.584-5.664,13.361-8.499,23.314-8.499c10.48,0,18.605,2.754,24.371,8.267c5.588,5.664,8.383,13.548,8.383,23.653
	c0,0.614,0,1.146,0,1.605c0,0.46,0,0.769,0,0.917c0,0.769-0.088,1.304-0.26,1.608h-45.332c0.174,4.75,1.484,8.271,3.932,10.565
	c2.268,2.448,5.674,3.675,10.219,3.675c2.967,0,5.502-0.537,7.6-1.608c0.521-0.151,1.002-0.419,1.439-0.805
	c0.432-0.38,0.914-0.802,1.441-1.262c0.17-0.46,0.826-1.071,1.963-1.837C628.02,44.065,629.633,43.686,631.731,43.686z
	 M600.288,25.771h26.725c-0.352-4.132-1.57-7.193-3.668-9.185c-2.271-2.141-5.5-3.215-9.693-3.215c-3.846,0-6.99,1.074-9.432,3.215
	C601.772,18.732,600.461,21.793,600.288,25.771z"/>
<path fill="#FFFFFF" d="M648.764,62.512V32.89c0-5.97,1-10.984,3.012-15.042c2.008-4.052,4.76-7.308,8.254-9.76
	c3.314-2.297,7.201-3.978,11.66-5.052c4.457-1.066,9.037-1.606,13.756-1.606c0.348,0,0.785,0,1.311,0c0.521,0,0.953,0,1.309,0
	v16.306h-6.023c-5.068,0-8.826,1.074-11.266,3.214c-2.451,2.146-3.674,5.51-3.674,10.102v31.46H648.764z"/>
<path fill="#FFFFFF" d="M688.325,42.309h17.82c0.172,3.061,1.48,5.355,3.93,6.886c2.619,1.532,6.109,2.295,10.482,2.295
	c3.143,0,5.848-0.531,8.123-1.605c2.094-1.069,3.143-2.526,3.143-4.362c0-2.756-3.67-4.822-11.004-6.199
	c-3.146-0.463-5.504-0.92-7.076-1.378c-9.26-1.991-15.459-4.367-18.605-7.121c-3.498-2.755-5.24-6.43-5.24-11.022
	c0-5.818,2.533-10.639,7.602-14.468c5.236-3.518,12.053-5.281,20.438-5.281c9.082,0,16.328,1.763,21.744,5.281
	c5.064,3.829,7.771,8.805,8.125,14.928h-11.27c-3.318,0-5.854-1.303-7.596-3.903c-0.699-0.612-1.4-1.223-2.098-1.84
	c-2.096-1.377-4.977-2.066-8.646-2.066c-3.494,0-6.117,0.463-7.861,1.377c-1.568,0.92-2.359,2.297-2.359,4.135
	c0,2.449,4.543,4.518,13.629,6.198c1.047,0.312,1.965,0.543,2.752,0.689c0.781,0.157,1.521,0.231,2.225,0.231
	c8.908,1.991,15.107,4.286,18.605,6.89c3.312,2.754,4.977,6.43,4.977,11.024c0,6.734-2.795,11.938-8.387,15.611
	c-5.24,3.373-13.096,5.053-23.58,5.053c-9.955,0-17.383-1.758-22.271-5.281c-5.066-3.52-7.6-8.648-7.6-15.383V42.309z"/>
</svg>
