<?xml version="1.0" encoding="utf-8"?>
<!-- Generator: Adobe Illustrator 15.0.0, SVG Export Plug-In  -->
<!DOCTYPE svg PUBLIC "-//W3C//DTD SVG 1.1//EN" "http://www.w3.org/Graphics/SVG/1.1/DTD/svg11.dtd" [
	<!ENTITY ns_flows "http://ns.adobe.com/Flows/1.0/">
]>
<svg version="1.1"
	 xmlns="http://www.w3.org/2000/svg" xmlns:xlink="http://www.w3.org/1999/xlink" xmlns:a="http://ns.adobe.com/AdobeSVGViewerExtensions/3.0/"
	 x="0px" y="0px" width="700px" height="700px" viewBox="-35.125 -25.058 700 700"
	 overflow="visible" enable-background="new -35.125 -25.058 700 700" xml:space="preserve">
<defs>
</defs>
<g>
	<path fill="#FFFFFF" d="M16.323,355.828c6.991,27.477,17.438,53.628,31.299,77.638c3.452,6.004,7.142,11.854,10.999,17.571
		c3.847,5.723,7.9,11.292,12.146,16.693c8.517,10.784,17.685,20.992,27.568,30.408c9.895,9.398,20.345,18.152,31.388,26.032
		c5.514,3.948,11.177,7.67,16.937,11.209c5.754,3.55,11.63,6.884,17.612,9.993c23.951,12.387,49.486,21.426,75.7,26.452
		c13.093,2.558,26.336,4.2,39.612,4.819c13.275,0.621,26.568,0.255,39.767-0.971c13.182-1.253,26.327-3.48,39.161-6.624
		c12.845-3.163,25.463-7.129,37.682-12.068c12.23-4.901,24.091-10.68,35.448-17.306c11.38-6.588,22.248-14.037,32.534-22.211
		c20.578-16.339,38.762-35.675,53.844-57.182c15.096-21.499,27.064-45.178,35.448-70.063c4.201-12.441,7.466-25.194,9.846-38.115
		c2.349-12.927,3.774-26.03,4.259-39.187c0.938-26.293-1.908-52.883-8.422-78.572c-6.482-25.691-16.715-50.467-30.289-73.44
		c-27.194-45.923-68.152-84.229-117.021-108.861c-12.209-6.161-24.884-11.535-37.956-15.903
		c-13.045-4.473-26.484-7.916-40.153-10.506c-27.355-5.121-55.672-6.354-84.071-3.921l-0.013,0.001
		c-3.55,0.305-6.674-2.327-6.978-5.877c-0.271-3.173,1.804-6.006,4.783-6.788C305.013-6.127,368.65-2.127,425.875,20.393
		c14.299,5.633,28.25,12.299,41.632,20.044c13.363,7.771,26.19,16.547,38.34,26.242c24.196,19.496,45.687,42.669,63.126,68.762
		c17.547,26.013,31.077,54.878,40.024,85.131c8.927,30.25,13.408,61.85,13.03,93.578c-0.332,31.709-5.578,63.42-15.404,93.631
		c-9.813,30.224-24.234,58.93-42.522,84.9c-18.29,25.972-40.471,49.195-65.591,68.631c-12.559,9.716-25.86,18.466-39.717,26.199
		c-13.877,7.698-28.316,14.365-43.161,19.9c-14.856,5.498-30.087,9.953-45.553,13.147c-15.478,3.215-31.104,5.295-46.855,6.237
		c-15.735,0.97-31.538,0.667-47.203-0.805c-15.665-1.47-31.207-4.069-46.428-7.858c-30.421-7.649-59.604-19.761-86.147-35.976
		c-6.644-4.037-13.131-8.313-19.446-12.815c-6.309-4.513-12.419-9.286-18.352-14.251c-11.852-9.947-22.99-20.697-33.139-32.279
		c-10.162-11.563-19.496-23.811-27.72-36.728c-4.126-6.447-8.005-13.037-11.63-19.751c-3.615-6.719-6.936-13.582-10.012-20.534
		c-12.282-27.808-20.146-57.386-23.103-87.081l-0.002-0.025c-0.454-4.556,2.872-8.616,7.427-9.07
		C11.604,349.211,15.332,351.917,16.323,355.828z"/>
</g>
<path fill="#0FFFFF" d="M130.562,429.687v-18.888c-1.887,2.673-4.211,4.645-6.963,5.917c-2.903,1.143-6.094,1.715-9.576,1.715
	c-6.967,0-12.558-2.41-16.764-7.245c-4.208-4.704-6.309-11.19-6.309-19.457c0-7.885,2.101-14.239,6.309-19.075
	c2.179-2.29,5.079-4.038,8.707-5.248c3.625-1.208,7.325-1.811,11.102-1.811c6.963,0,13.418,1.62,19.371,4.865
	c5.948,3.242,8.925,9.315,8.925,18.216v47.494h-7.401c-2.034,0-3.776-0.637-5.224-1.906
	C131.29,432.991,130.562,431.466,130.562,429.687z M105.749,392.297c0,4.584,1.09,8.207,3.266,10.878
	c2.177,2.668,5.148,4.003,8.922,4.003c4.062,0,7.183-1.335,9.359-4.003c2.176-2.419,3.266-6.042,3.266-10.878
	c0-4.955-1.014-8.773-3.048-11.442c-2.173-2.673-5.225-4.005-9.14-4.005c-4.065,0-7.183,1.332-9.359,4.005
	C106.839,383.524,105.749,387.342,105.749,392.297z"/>
<path fill="#0FFFFF" d="M198.473,366.741v29.757c0,9.032-2.69,14.946-8.053,17.735c-5.37,2.806-11.246,4.198-17.633,4.198
	c-6.242-0.255-11.937-1.779-17.081-4.577c-5.156-2.796-7.729-8.583-7.729-17.356v-29.757h15.232v32.426
	c0,3.056,1.018,5.276,3.049,6.677c2.028,1.399,4.355,2.098,6.966,2.098c2.611,0,4.967-0.698,7.073-2.098
	c2.101-1.4,3.156-3.621,3.156-6.677v-25.939c0-1.779,0.686-3.307,2.065-4.58c1.38-1.271,3.159-1.906,5.331-1.906H198.473z"/>
<path fill="#0FFFFF" d="M241.125,401.836h10.884c-1.6,5.342-4.642,9.411-9.142,12.207c-4.501,2.929-10.156,4.388-16.975,4.388
	c-8.27,0-14.729-2.349-19.375-7.056c-4.646-4.576-6.959-11.125-6.959-19.646c0-8.137,2.245-14.499,6.745-19.075
	c4.643-4.704,11.102-7.059,19.368-7.059c8.708,0,15.453,2.285,20.243,6.869c4.643,4.703,6.967,11.253,6.967,19.644
	c0,0.511,0,0.954,0,1.338c0,0.379,0,0.638,0,0.759c0,0.642-0.08,1.087-0.222,1.339h-37.648c0.142,3.944,1.228,6.868,3.263,8.772
	c1.883,2.039,4.715,3.052,8.487,3.052c2.466,0,4.573-0.444,6.314-1.335c0.432-0.123,0.831-0.349,1.197-0.665
	c0.358-0.317,0.758-0.673,1.196-1.052c0.142-0.38,0.686-0.89,1.634-1.525C238.042,402.157,239.384,401.836,241.125,401.836z
	 M215.012,386.958h22.199c-0.293-3.434-1.311-5.972-3.052-7.626c-1.887-1.779-4.566-2.673-8.049-2.673
	c-3.197,0-5.809,0.894-7.836,2.673C216.239,381.111,215.153,383.655,215.012,386.958z"/>
<path fill="#0FFFFF" d="M253.971,400.695h14.795c0.148,2.541,1.231,4.449,3.27,5.717c2.173,1.277,5.073,1.915,8.708,1.915
	c2.61,0,4.859-0.448,6.745-1.338c1.742-0.89,2.611-2.097,2.611-3.624c0-2.291-3.049-4.008-9.143-5.153
	c-2.614-0.38-4.569-0.762-5.877-1.141c-7.69-1.656-12.843-3.625-15.453-5.915c-2.903-2.29-4.352-5.342-4.352-9.152
	c0-4.836,2.1-8.839,6.311-12.022c4.355-2.921,10.012-4.386,16.978-4.386c7.543,0,13.563,1.465,18.064,4.386
	c4.207,3.184,6.456,7.319,6.745,12.401h-9.355c-2.76,0-4.866-1.082-6.315-3.246c-0.579-0.506-1.162-1.016-1.741-1.523
	c-1.738-1.145-4.135-1.713-7.181-1.713c-2.903,0-5.083,0.379-6.53,1.141c-1.305,0.762-1.956,1.906-1.956,3.435
	c0,2.032,3.77,3.749,11.318,5.149c0.873,0.256,1.631,0.447,2.283,0.568c0.655,0.131,1.269,0.196,1.852,0.196
	c7.397,1.652,12.55,3.559,15.453,5.719c2.752,2.292,4.135,5.342,4.135,9.159c0,5.594-2.32,9.919-6.966,12.966
	c-4.352,2.806-10.881,4.198-19.589,4.198c-8.272,0-14.438-1.459-18.501-4.388c-4.208-2.92-6.309-7.183-6.309-12.776V400.695z"/>
<path fill="#0FFFFF" d="M333.415,417.479c-4.787,0.252-9.978,0.189-15.562-0.189c-5.59-0.383-8.38-3.498-8.38-9.349v-56.082h7.836
	c1.883,0,3.555,0.639,5.003,1.906c1.452,1.276,2.181,2.804,2.181,4.584v8.581h8.922v2.668c0,1.911-0.726,3.47-2.177,4.673
	c-1.452,1.215-3.193,1.818-5.221,1.818h-1.524v28.227c0,2.166,1.444,3.245,4.352,3.245h4.57V417.479z"/>
<path fill="#0FFFFF" d="M336.021,351.859h7.835c2.031,0,3.773,0.639,5.226,1.906c1.448,1.276,2.176,2.804,2.176,4.584v4.004h-15.236
	V351.859z M336.021,366.741h7.835c2.031,0,3.773,0.636,5.226,1.906c1.448,1.273,2.176,2.801,2.176,4.58v44.252h-15.236V366.741z"/>
<path fill="#0FFFFF" d="M359.1,412.904c-3.049-2.294-5.225-5.37-6.532-9.253c-1.303-3.876-1.955-7.918-1.955-12.116
	c0-3.427,0.538-6.862,1.628-10.297c1.09-3.436,2.793-6.294,5.118-8.584c3.77-3.814,8.628-6.069,14.581-6.77
	c5.948-0.704,11.318-0.289,16.104,1.238c5.519,1.906,9.577,5.213,12.191,9.918c2.466,4.197,3.7,9.092,3.7,14.688
	c0,4.071-0.51,7.565-1.521,10.493c-1.018,2.922-2.328,5.404-3.921,7.436c-3.484,4.196-7.912,6.805-13.281,7.821
	c-4.783,1.142-9.611,1.242-14.471,0.287C365.88,416.813,362,415.189,359.1,412.904z M369.549,379.332
	c-3.052,2.924-4.432,7.282-4.142,13.066c0.293,5.787,1.528,9.824,3.704,12.107c0.869,1.024,2.39,1.881,4.569,2.579
	c2.177,0.701,4.391,0.763,6.642,0.189c2.246-0.571,4.239-2.003,5.98-4.294c1.741-2.285,2.687-5.972,2.832-11.062
	c0-4.576-0.836-8.012-2.505-10.301c-1.669-2.286-3.59-3.749-5.766-4.388c-2.177-0.632-4.352-0.665-6.532-0.094
	C372.16,377.707,370.56,378.44,369.549,379.332z"/>
<path fill="#0FFFFF" d="M456.827,417.479h-7.625c-2.173,0-3.952-0.604-5.328-1.814c-1.383-1.206-2.069-2.761-2.069-4.668v-25.945
	c0-3.048-1.055-5.275-3.155-6.68c-2.107-1.394-4.459-2.093-7.073-2.093c-2.61,0-4.935,0.699-6.963,2.093
	c-2.034,1.404-3.052,3.632-3.052,6.68v32.428h-15.232v-29.757c0-8.646,2.572-14.431,7.729-17.358
	c5.146-2.925,10.843-4.511,17.081-4.769c6.387,0,12.264,1.465,17.633,4.386c5.366,2.932,8.056,8.839,8.056,17.741V417.479z"/>
<path fill="#0FFFFF" d="M457.91,400.695h14.795c0.148,2.541,1.231,4.449,3.269,5.717c2.177,1.277,5.073,1.915,8.708,1.915
	c2.611,0,4.86-0.448,6.746-1.338c1.741-0.89,2.61-2.097,2.61-3.624c0-2.291-3.049-4.008-9.143-5.153
	c-2.61-0.38-4.566-0.762-5.876-1.141c-7.69-1.656-12.84-3.625-15.453-5.915c-2.904-2.29-4.353-5.342-4.353-9.152
	c0-4.836,2.101-8.839,6.314-12.022c4.353-2.921,10.008-4.386,16.975-4.386c7.545,0,13.566,1.465,18.063,4.386
	c4.207,3.184,6.456,7.319,6.746,12.401h-9.356c-2.759,0-4.866-1.082-6.314-3.246c-0.58-0.506-1.162-1.016-1.741-1.523
	c-1.735-1.145-4.135-1.713-7.181-1.713c-2.904,0-5.08,0.379-6.531,1.141c-1.305,0.762-1.956,1.906-1.956,3.435
	c0,2.032,3.77,3.749,11.318,5.149c0.873,0.256,1.632,0.447,2.283,0.568c0.655,0.131,1.27,0.196,1.853,0.196
	c7.396,1.652,12.549,3.559,15.452,5.719c2.753,2.292,4.136,5.342,4.136,9.159c0,5.594-2.321,9.919-6.966,12.966
	c-4.353,2.806-10.881,4.198-19.589,4.198c-8.273,0-14.439-1.459-18.502-4.388c-4.207-2.92-6.308-7.183-6.308-12.776V400.695z"/>
<path fill="#0FFFFF" d="M335.907,293.708c-6.007,3.804-12.68,6.286-20.009,7.45c-8.008,1.759-16.509,2.634-25.516,2.634
	c-26.014,0-46.52-7.014-61.527-21.044c-14.681-14.032-22.01-33.32-22.01-57.872c0-24.55,7.329-43.987,22.01-58.306
	c15.67-14.321,36.179-21.484,61.527-21.484c25.016,0,45.524,7.163,61.533,21.484c15.005,14.615,22.51,34.052,22.51,58.306
	c0,10.522-1.504,20.169-4.504,28.938c-3.001,9.06-7.673,16.808-14.002,23.233l19.006,15.784l-9.501,8.326
	c-3.342,2.92-6.846,4.169-10.508,3.728c-3.674-0.439-6.677-1.531-9.005-3.291L335.907,293.708z M310.895,273.103l-18.009-15.345
	l6.004-5.699c2.666-2.632,6.249-4.231,10.753-4.821c4.504-0.584,8.256,0,11.257,1.751L330.904,256c2.33-3.792,4.327-8.47,6-14.024
	c0.331-2.632,0.756-5.333,1.252-8.115c0.5-2.772,0.752-5.763,0.752-8.984c0-16.366-4.338-29.371-13.005-39.018
	c-8.677-9.056-20.513-13.594-35.521-13.594c-15.34,0-27.187,4.538-35.519,13.594c-8.335,9.063-12.505,22.068-12.505,39.018
	c0,16.954,4.17,29.815,12.505,38.585c8.332,9.058,20.179,13.587,35.519,13.587c5.003,0,8.673-0.287,11.007-0.877
	C305.056,275.292,308.222,274.272,310.895,273.103z"/>
</svg>
