<?xml version="1.0" encoding="utf-8"?>
<!-- Generator: Adobe Illustrator 15.0.0, SVG Export Plug-In  -->
<!DOCTYPE svg PUBLIC "-//W3C//DTD SVG 1.1//EN" "http://www.w3.org/Graphics/SVG/1.1/DTD/svg11.dtd" [
	<!ENTITY ns_flows "http://ns.adobe.com/Flows/1.0/">
]>
<svg version="1.1"
	 xmlns="http://www.w3.org/2000/svg" xmlns:xlink="http://www.w3.org/1999/xlink" xmlns:a="http://ns.adobe.com/AdobeSVGViewerExtensions/3.0/"
	 x="0px" y="0px" width="700px" height="700px" viewBox="-45.817 -36.918 700 700"
	 overflow="visible" enable-background="new -45.817 -36.918 700 700" xml:space="preserve">
<defs>
</defs>
<g>
	<path fill="#FFFFFF" d="M16.323,355.828c6.991,27.476,17.439,53.627,31.3,77.637c3.453,6.004,7.143,11.854,10.999,17.571
		c3.848,5.724,7.9,11.292,12.146,16.694c8.517,10.783,17.686,20.991,27.568,30.407c9.895,9.398,20.345,18.152,31.388,26.032
		c5.514,3.949,11.177,7.671,16.938,11.209c5.754,3.55,11.63,6.884,17.611,9.994c23.951,12.386,49.485,21.425,75.7,26.452
		c13.092,2.558,26.336,4.2,39.611,4.819c13.275,0.621,26.568,0.255,39.767-0.971c13.182-1.253,26.328-3.479,39.162-6.623
		c12.845-3.163,25.463-7.129,37.682-12.068c12.23-4.901,24.091-10.68,35.448-17.305c11.379-6.589,22.248-14.037,32.533-22.211
		c20.579-16.339,38.763-35.675,53.845-57.182c15.096-21.499,27.063-45.178,35.448-70.062c4.201-12.441,7.466-25.195,9.846-38.116
		c2.348-12.927,3.774-26.029,4.258-39.186c0.939-26.292-1.909-52.884-8.421-78.573c-6.481-25.691-16.715-50.467-30.288-73.44
		c-27.193-45.923-68.151-84.23-117.019-108.863c-12.209-6.16-24.884-11.534-37.956-15.902c-13.045-4.473-26.484-7.917-40.153-10.507
		c-27.355-5.121-55.673-6.354-84.071-3.921l-0.012,0.001c-3.55,0.305-6.674-2.327-6.979-5.877c-0.271-3.173,1.804-6.006,4.783-6.788
		c57.56-15.177,121.198-11.176,178.422,11.345c14.299,5.633,28.25,12.299,41.632,20.044c13.363,7.771,26.189,16.547,38.339,26.242
		c24.196,19.497,45.687,42.67,63.125,68.763c17.547,26.014,31.077,54.878,40.023,85.132c8.926,30.25,13.408,61.848,13.03,93.578
		c-0.333,31.708-5.577,63.42-15.404,93.631c-9.813,30.224-24.234,58.93-42.522,84.9c-18.29,25.971-40.471,49.194-65.591,68.629
		c-12.56,9.717-25.861,18.466-39.718,26.2c-13.876,7.698-28.316,14.365-43.161,19.899c-14.855,5.498-30.087,9.953-45.553,13.147
		c-15.478,3.214-31.104,5.294-46.855,6.236c-15.734,0.97-31.537,0.667-47.203-0.805c-15.665-1.47-31.206-4.069-46.428-7.858
		c-30.421-7.65-59.604-19.761-86.146-35.977c-6.644-4.037-13.131-8.313-19.446-12.815c-6.309-4.513-12.418-9.286-18.352-14.251
		c-11.852-9.946-22.989-20.697-33.139-32.279C62.348,511.248,53.014,499,44.79,486.084c-4.125-6.448-8.005-13.038-11.629-19.751
		c-3.615-6.72-6.936-13.583-10.013-20.535C10.866,417.991,3,388.414,0.043,358.718l-0.002-0.025
		c-0.454-4.556,2.871-8.616,7.427-9.07C11.604,349.211,15.332,351.917,16.323,355.828z"/>
</g>
<path fill="#0FFFFF" d="M129.806,378.013v23.144c0,7.021-2.086,11.619-6.259,13.795c-4.18,2.176-8.749,3.267-13.712,3.267
	c-4.856-0.197-9.284-1.388-13.288-3.564c-4.007-2.175-6.011-6.676-6.011-13.497v-23.144h11.847v25.219
	c0,2.375,0.789,4.104,2.369,5.19c1.583,1.091,3.39,1.636,5.417,1.636c2.035,0,3.87-0.545,5.501-1.636
	c1.635-1.086,2.46-2.815,2.46-5.19v-20.173c0-1.388,0.533-2.573,1.61-3.562c1.068-0.986,2.448-1.483,4.141-1.483H129.806z"/>
<path fill="#0FFFFF" d="M170.942,417.475h-5.924c-1.694,0-3.073-0.468-4.146-1.41c-1.072-0.94-1.61-2.151-1.61-3.635v-20.174
	c0-2.376-0.82-4.108-2.455-5.197c-1.635-1.083-3.466-1.629-5.5-1.629c-2.029,0-3.84,0.546-5.419,1.629
	c-1.582,1.089-2.369,2.821-2.369,5.197v25.219h-11.849v-23.143c0-6.729,2.004-11.226,6.011-13.502
	c4.004-2.273,8.436-3.507,13.291-3.707c4.959,0,9.532,1.138,13.712,3.41c4.173,2.275,6.259,6.876,6.259,13.799V417.475z"/>
<path fill="#0FFFFF" d="M201.583,415.841c-2.373,1.09-4.884,1.756-7.536,2.003c-2.654,0.249-4.993,0.374-7.027,0.374
	c-4.059,0-7.615-0.967-10.659-2.894c-3.05-1.933-4.573-5.123-4.573-9.57c0-4.156,1.383-7.122,4.148-8.904
	c2.763-1.779,6.29-2.967,10.58-3.559c0.562,0,1.237-0.073,2.031-0.226c0.79-0.144,1.693-0.266,2.711-0.368
	c4.963-0.594,7.446-1.877,7.446-3.856c0-1.486-0.877-2.448-2.625-2.896c-1.753-0.441-3.359-0.665-4.821-0.665
	c-1.586,0-2.99,0.2-4.238,0.593c-1.238,0.399-2.146,1.138-2.704,2.229h-11.343c0.448-3.062,2.027-5.588,4.738-7.567
	c3.05-2.272,7.394-3.41,13.036-3.41c6.317,0,11.06,0.938,14.222,2.818c3.27,1.979,4.907,4.744,4.907,8.308v13.501
	c0,3.952-0.82,7.046-2.455,9.27C205.787,413.248,203.835,414.852,201.583,415.841z M198.875,397.595
	c-1.582,0.692-3.786,1.334-6.607,1.928l-3.89,0.744c-2.035,0.493-3.504,1.139-4.4,1.924c-0.794,1.091-1.189,2.179-1.189,3.263
	c0,1.487,0.513,2.673,1.527,3.563c1.015,0.793,2.483,1.185,4.404,1.185c3.154,0,5.634-0.784,7.444-2.371
	c1.805-1.584,2.711-3.757,2.711-6.528V397.595z"/>
<path fill="#0FFFFF" d="M250.84,417.475h-5.925c-1.69,0-3.073-0.468-4.143-1.41c-1.075-0.94-1.61-2.151-1.61-3.635v-20.174
	c0-2.376-0.821-4.108-2.455-5.197c-1.635-1.083-3.469-1.629-5.504-1.629c-2.027,0-3.834,0.546-5.418,1.629
	c-1.579,1.089-2.369,2.821-2.369,5.197v25.219h-11.846v-23.143c0-6.729,2.004-11.226,6.011-13.502
	c4.004-2.273,8.436-3.507,13.288-3.707c4.962,0,9.535,1.138,13.712,3.41c4.172,2.275,6.259,6.876,6.259,13.799V417.475z"/>
<path fill="#0FFFFF" d="M251.693,404.419h11.511c0.113,1.979,0.959,3.463,2.542,4.452c1.689,0.986,3.948,1.483,6.77,1.483
	c2.031,0,3.779-0.346,5.249-1.042c1.352-0.69,2.031-1.631,2.031-2.818c0-1.779-2.373-3.117-7.111-4.007
	c-2.031-0.297-3.557-0.594-4.573-0.89c-5.979-1.283-9.984-2.818-12.018-4.598c-2.257-1.779-3.384-4.151-3.384-7.12
	c0-3.759,1.634-6.871,4.907-9.347c3.387-2.272,7.787-3.41,13.205-3.41c5.865,0,10.549,1.138,14.053,3.41
	c3.266,2.476,5.018,5.69,5.249,9.643h-7.284c-2.145,0-3.782-0.842-4.906-2.524c-0.452-0.393-0.904-0.786-1.355-1.187
	c-1.355-0.89-3.218-1.331-5.587-1.331c-2.259,0-3.953,0.296-5.076,0.89c-1.019,0.594-1.528,1.483-1.528,2.669
	c0,1.584,2.938,2.922,8.805,4.005c0.677,0.2,1.269,0.352,1.779,0.448c0.508,0.096,0.983,0.146,1.435,0.146
	c5.76,1.288,9.764,2.771,12.025,4.452c2.139,1.779,3.214,4.15,3.214,7.117c0,4.356-1.811,7.715-5.417,10.091
	c-3.388,2.176-8.463,3.267-15.236,3.267c-6.432,0-11.229-1.139-14.392-3.416c-3.272-2.275-4.906-5.585-4.906-9.941V404.419z"/>
<path fill="#0FFFFF" d="M343.439,417.475h-11.85l-6.938-28.188l-6.942,28.188h-11.847l-12.359-39.462h11.511l7.108,27.296
	l6.435-27.296h12.02l6.093,27.296l6.267-23.736c0.676-2.374,2.479-3.56,5.411-3.56h7.453L343.439,417.475z"/>
<path fill="#0FFFFF" d="M390.162,405.309h8.463c-1.245,4.155-3.61,7.321-7.11,9.493c-3.498,2.277-7.898,3.416-13.205,3.416
	c-6.429,0-11.453-1.831-15.064-5.491c-3.613-3.56-5.417-8.653-5.417-15.281c0-6.328,1.752-11.277,5.248-14.836
	c3.607-3.658,8.633-5.486,15.068-5.486c6.771,0,12.018,1.779,15.739,5.342c3.614,3.656,5.421,8.749,5.421,15.278
	c0,0.396,0,0.74,0,1.036c0,0.298,0,0.498,0,0.595c0,0.496-0.059,0.841-0.173,1.037h-29.286c0.114,3.07,0.959,5.343,2.538,6.825
	c1.471,1.583,3.671,2.373,6.608,2.373c1.913,0,3.549-0.346,4.907-1.034c0.342-0.102,0.646-0.272,0.928-0.522
	c0.282-0.244,0.593-0.52,0.935-0.816c0.11-0.296,0.535-0.692,1.27-1.187C387.761,405.557,388.807,405.309,390.162,405.309z
	 M369.845,393.739h17.269c-0.228-2.669-1.018-4.648-2.369-5.936c-1.469-1.386-3.557-2.075-6.264-2.075
	c-2.482,0-4.515,0.689-6.098,2.075C370.804,389.189,369.959,391.167,369.845,393.739z"/>
<path fill="#0FFFFF" d="M401.167,417.475v-19.14c0-3.858,0.645-7.097,1.944-9.718c1.298-2.618,3.073-4.717,5.336-6.305
	c2.142-1.482,4.655-2.568,7.528-3.265c2.879-0.691,5.842-1.035,8.888-1.035c0.228,0,0.51,0,0.848,0s0.621,0,0.849,0v10.532h-3.895
	c-3.275,0-5.7,0.693-7.283,2.075c-1.579,1.388-2.369,3.559-2.369,6.529v20.325H401.167z"/>
<path fill="#0FFFFF" d="M459.062,405.309h8.463c-1.245,4.155-3.614,7.321-7.11,9.493c-3.497,2.277-7.901,3.416-13.208,3.416
	c-6.43,0-11.453-1.831-15.064-5.491c-3.61-3.56-5.418-8.653-5.418-15.281c0-6.328,1.752-11.277,5.25-14.836
	c3.61-3.658,8.634-5.486,15.07-5.486c6.769,0,12.018,1.779,15.738,5.342c3.611,3.656,5.418,8.749,5.418,15.278
	c0,0.396,0,0.74,0,1.036c0,0.298,0,0.498,0,0.595c0,0.496-0.059,0.841-0.172,1.037h-29.286c0.113,3.07,0.959,5.343,2.542,6.825
	c1.47,1.583,3.666,2.373,6.604,2.373c1.918,0,3.553-0.346,4.908-1.034c0.342-0.102,0.648-0.272,0.928-0.522
	c0.283-0.244,0.594-0.52,0.934-0.816c0.114-0.296,0.535-0.692,1.271-1.187C456.658,405.557,457.704,405.309,459.062,405.309z
	 M438.743,393.739h17.268c-0.228-2.669-1.018-4.648-2.369-5.936c-1.47-1.386-3.556-2.075-6.264-2.075
	c-2.479,0-4.513,0.689-6.093,2.075C439.702,389.189,438.856,391.167,438.743,393.739z"/>
<path fill="#0FFFFF" d="M499.856,366.292h5.756c1.576,0,2.936,0.521,4.062,1.556c1.128,1.042,1.692,2.203,1.692,3.488v28.932
	c0,7.021-2.312,11.77-6.94,14.239c-4.629,2.473-9.65,3.712-15.063,3.712c-2.939,0-5.819-0.421-8.633-1.263
	c-2.828-0.839-5.079-2.2-6.777-4.083c-3.272-3.655-4.906-8.653-4.906-14.981c0-6.229,1.634-11.226,4.906-14.984
	c3.391-3.858,7.729-5.783,13.037-5.783c2.82,0,5.307,0.496,7.452,1.483c2.255,1.186,4.059,2.72,5.414,4.596V366.292z
	 M480.562,397.446c0,3.96,0.844,6.974,2.537,9.049c1.694,2.081,4.117,3.115,7.276,3.115c3.049,0,5.419-1.034,7.111-3.115
	c1.579-2.075,2.369-5.089,2.369-9.049c0-3.562-0.849-6.376-2.541-8.456c-1.804-1.979-4.231-2.966-7.277-2.966
	c-2.938,0-5.244,1.035-6.938,3.113C481.406,391.118,480.562,393.883,480.562,397.446z"/>
<path fill="#0FFFFF" d="M260.127,149.031v94.259c0,11.689,2.5,20.318,7.504,25.863c5.332,5.263,13.833,7.895,25.51,7.895
	c11.336,0,19.841-2.632,25.514-7.895c5.33-5.259,8.003-13.878,8.003-25.863v-94.259h35.519v97.766
	c0,18.708-6.001,32.882-18.013,42.528c-11.001,9.646-28.009,14.467-51.022,14.467c-23.009,0-40.018-4.821-51.022-14.467
	c-12.009-9.646-18.01-23.82-18.01-42.528v-81.109c0-4.38,1.75-8.253,5.253-11.614c3.5-3.356,7.753-5.042,12.757-5.042H260.127z"/>
</svg>
