<?xml version="1.0" encoding="utf-8"?>
<!-- Generator: Adobe Illustrator 15.0.0, SVG Export Plug-In  -->
<!DOCTYPE svg PUBLIC "-//W3C//DTD SVG 1.1//EN" "http://www.w3.org/Graphics/SVG/1.1/DTD/svg11.dtd" [
	<!ENTITY ns_flows "http://ns.adobe.com/Flows/1.0/">
]>
<svg version="1.1"
	 xmlns="http://www.w3.org/2000/svg" xmlns:xlink="http://www.w3.org/1999/xlink" xmlns:a="http://ns.adobe.com/AdobeSVGViewerExtensions/3.0/"
	 x="0px" y="0px" width="700px" height="700px" viewBox="-48.833 -44.578 700 700"
	 overflow="visible" enable-background="new -48.833 -44.578 700 700" xml:space="preserve">
<defs>
</defs>
<g>
	<path fill="#71CCDC" d="M13.982,355.744C20.703,383.49,31,409.996,44.798,434.379c6.904,12.179,14.625,23.837,23.124,34.843
		c8.528,10.983,17.745,21.381,27.686,30.993c9.952,9.596,20.493,18.531,31.639,26.595c5.566,4.039,11.284,7.853,17.107,11.478
		c5.817,3.634,11.762,7.05,17.815,10.241c24.236,12.717,50.139,22.018,76.765,27.258c13.301,2.658,26.766,4.378,40.27,5.062
		c13.503,0.688,27.033,0.368,40.47-0.844c13.422-1.234,26.805-3.461,39.884-6.621c13.086-3.183,25.956-7.167,38.424-12.156
		c12.474-4.967,24.559-10.862,36.143-17.599c11.611-6.688,22.723-14.235,33.215-22.56c10.503-8.314,20.346-17.444,29.545-27.17
		c9.206-9.724,17.697-20.125,25.386-31.088c7.7-10.957,14.538-22.506,20.602-34.438c6.065-11.934,11.256-24.312,15.506-37.007
		c8.44-25.4,13.402-51.991,14.237-78.819c0.399-13.407-0.044-26.863-1.524-40.246c-1.459-13.385-3.934-26.689-7.282-39.743
		c-6.619-26.155-17.235-51.293-31.128-74.588c-27.868-46.566-69.717-85.189-119.399-109.743
		c-12.412-6.144-25.286-11.469-38.544-15.78c-13.234-4.4-26.849-7.768-40.679-10.244c-27.676-4.907-56.25-5.841-84.786-3.021
		l-0.011,0.001c-3.032,0.3-5.733-1.916-6.032-4.947c-0.273-2.76,1.54-5.246,4.154-5.895c28.851-7.203,59.141-9.771,89.296-7.586
		c15.084,1.055,30.121,3.371,44.961,6.737c14.817,3.452,29.44,7.976,43.656,13.641c14.201,5.692,28.04,12.412,41.309,20.188
		c13.252,7.799,25.96,16.592,37.986,26.29c23.966,19.487,45.201,42.602,62.427,68.562c17.347,25.881,30.584,54.593,39.452,84.6
		c4.405,15.024,7.634,30.363,9.789,45.881c2.135,15.521,3.199,31.233,2.938,46.947c-0.71,62.904-21.134,125.527-57.547,176.896
		c-9.066,12.865-19.075,25.064-29.923,36.469c-10.852,11.402-22.614,21.928-35.046,31.572c-12.44,9.635-25.594,18.348-39.315,26.038
		c-13.748,7.643-28.066,14.239-42.772,19.748c-14.712,5.488-29.8,9.956-45.135,13.154c-15.342,3.221-30.842,5.32-46.467,6.289
		c-15.608,0.993-31.287,0.739-46.836-0.675c-15.55-1.413-30.981-3.951-46.104-7.664c-30.229-7.485-59.254-19.416-85.709-35.411
		c-6.62-3.984-13.087-8.207-19.386-12.656c-6.292-4.458-12.393-9.173-18.318-14.082C94.8,543.448,83.669,532.802,73.5,521.336
		c-20.398-22.866-37.239-48.732-49.653-76.398c-12.447-27.635-20.533-57.073-23.8-86.72l-0.003-0.029
		c-0.429-3.892,2.379-7.396,6.271-7.824C9.902,349.969,13.159,352.325,13.982,355.744z"/>
</g>
<path fill="#231F20" d="M260.206,415.317c-3.059,1.406-6.305,2.258-9.723,2.582c-3.422,0.316-6.445,0.48-9.066,0.48
	c-5.246,0-9.832-1.246-13.766-3.738c-3.934-2.484-5.898-6.605-5.898-12.348c0-5.359,1.777-9.195,5.352-11.488
	c3.566-2.301,8.121-3.832,13.66-4.598c0.727,0,1.602-0.094,2.621-0.285c1.016-0.191,2.184-0.352,3.496-0.48
	c6.406-0.766,9.609-2.426,9.609-4.98c0-1.914-1.129-3.16-3.383-3.734c-2.262-0.57-4.336-0.859-6.227-0.859
	c-2.047,0-3.863,0.258-5.465,0.766c-1.605,0.508-2.77,1.473-3.496,2.871H223.28c0.582-3.953,2.625-7.211,6.121-9.766
	c3.93-2.934,9.535-4.402,16.82-4.402c8.16,0,14.277,1.215,18.355,3.637c4.223,2.555,6.336,6.129,6.336,10.723v17.426
	c0,5.109-1.059,9.098-3.168,11.969C265.632,411.961,263.12,414.043,260.206,415.317z M256.71,391.762
	c-2.039,0.891-4.883,1.723-8.52,2.488l-5.027,0.957c-2.621,0.641-4.516,1.469-5.68,2.492c-1.023,1.406-1.531,2.805-1.531,4.207
	c0,1.918,0.656,3.449,1.969,4.602c1.309,1.02,3.203,1.527,5.68,1.527c4.078,0,7.285-1.02,9.613-3.062
	c2.328-2.039,3.496-4.848,3.496-8.426V391.762z"/>
<path fill="#231F20" d="M271.788,400.571h14.852c0.148,2.551,1.238,4.465,3.281,5.742c2.184,1.277,5.094,1.918,8.742,1.918
	c2.621,0,4.878-0.449,6.773-1.344c1.746-0.891,2.621-2.102,2.621-3.637c0-2.301-3.062-4.023-9.179-5.172
	c-2.621-0.379-4.586-0.766-5.898-1.145c-7.719-1.664-12.891-3.641-15.512-5.938c-2.914-2.301-4.371-5.363-4.371-9.191
	c0-4.855,2.109-8.871,6.34-12.066c4.367-2.934,10.047-4.402,17.039-4.402c7.574,0,13.617,1.469,18.132,4.402
	c4.227,3.195,6.48,7.344,6.773,12.445h-9.395c-2.77,0-4.883-1.082-6.336-3.254c-0.582-0.508-1.168-1.02-1.75-1.527
	c-1.742-1.156-4.148-1.727-7.207-1.727c-2.914,0-5.102,0.383-6.555,1.148c-1.312,0.766-1.965,1.914-1.965,3.445
	c0,2.043,3.785,3.766,11.363,5.172c0.875,0.254,1.633,0.449,2.289,0.57c0.66,0.133,1.273,0.195,1.859,0.195
	c7.43,1.664,12.598,3.578,15.516,5.742c2.762,2.301,4.148,5.363,4.148,9.195c0,5.617-2.328,9.957-6.992,13.02
	c-4.371,2.812-10.922,4.215-19.664,4.215c-8.305,0-14.496-1.469-18.574-4.406c-4.223-2.934-6.332-7.211-6.332-12.828V400.571z"/>
<path fill="#231F20" d="M341.049,366.481v18.766l18.574-18.766h18.355l-20.758,19.531l20.977,31.406h-18.355l-10.707-17.234
	c-2.184-3.441-4.074-4.914-5.676-4.406c-1.609,0.516-2.41,1.281-2.41,2.301v7.086v12.254h-15.293v-65.871h7.867
	c2.035,0,3.785,0.637,5.242,1.914s2.184,2.746,2.184,4.402V366.481z"/>
<path fill="#231F20" d="M284.034,148.367h28.125l62.773,151.402h-37.668l-11.547-31.25h-67.292l-11.047,31.25h-37.664l57.25-141.281
	C269.976,151.746,275.663,148.367,284.034,148.367z M292.069,178.738l-24.105,64.254h48.214L292.069,178.738z"/>
</svg>
