<?xml version="1.0" encoding="utf-8"?>
<!-- Generator: Adobe Illustrator 15.0.0, SVG Export Plug-In  -->
<!DOCTYPE svg PUBLIC "-//W3C//DTD SVG 1.1//EN" "http://www.w3.org/Graphics/SVG/1.1/DTD/svg11.dtd" [
	<!ENTITY ns_flows "http://ns.adobe.com/Flows/1.0/">
]>
<svg version="1.1"
	 xmlns="http://www.w3.org/2000/svg" xmlns:xlink="http://www.w3.org/1999/xlink" xmlns:a="http://ns.adobe.com/AdobeSVGViewerExtensions/3.0/"
	 x="0px" y="0px" width="700px" height="700px" viewBox="-48.5 -43.98 700 700"
	 overflow="visible" enable-background="new -48.5 -43.98 700 700" xml:space="preserve">
<defs>
</defs>
<g>
	<path fill="#71CCDC" d="M13.982,355.74c6.72,27.747,17.017,54.253,30.814,78.638c6.905,12.178,14.626,23.836,23.124,34.843
		c8.528,10.983,17.744,21.381,27.686,30.993c9.952,9.596,20.494,18.531,31.639,26.595c5.566,4.039,11.284,7.854,17.107,11.478
		c5.817,3.634,11.762,7.05,17.815,10.241c24.236,12.717,50.139,22.019,76.766,27.258c13.301,2.659,26.766,4.378,40.27,5.062
		c13.504,0.687,27.034,0.368,40.471-0.844c13.422-1.234,26.804-3.46,39.882-6.62c13.087-3.184,25.957-7.169,38.425-12.158
		c12.474-4.967,24.559-10.863,36.143-17.6c11.612-6.688,22.723-14.235,33.216-22.56c10.503-8.314,20.346-17.444,29.545-27.171
		c9.205-9.723,17.697-20.124,25.386-31.087c7.7-10.957,14.539-22.506,20.603-34.438c6.066-11.933,11.256-24.312,15.507-37.006
		c8.44-25.4,13.403-51.992,14.239-78.819c0.398-13.407-0.044-26.864-1.523-40.247c-1.459-13.385-3.934-26.686-7.283-39.741
		c-6.621-26.155-17.238-51.293-31.132-74.589c-27.868-46.565-69.718-85.188-119.401-109.741
		c-12.412-6.144-25.287-11.469-38.545-15.78c-13.234-4.4-26.85-7.767-40.679-10.243c-27.677-4.906-56.251-5.841-84.787-3.02
		l-0.011,0.001c-3.032,0.3-5.733-1.915-6.033-4.947c-0.272-2.76,1.54-5.245,4.154-5.896c28.851-7.202,59.141-9.771,89.297-7.587
		c15.084,1.055,30.12,3.371,44.961,6.736c14.817,3.452,29.44,7.976,43.656,13.641c14.201,5.691,28.041,12.411,41.309,20.188
		c13.253,7.799,25.961,16.592,37.988,26.29c23.966,19.486,45.201,42.601,62.428,68.56c17.348,25.882,30.586,54.593,39.455,84.6
		c4.406,15.022,7.636,30.364,9.791,45.883c2.134,15.521,3.198,31.232,2.936,46.947c-0.711,62.904-21.137,125.527-57.55,176.896
		c-9.067,12.865-19.075,25.064-29.923,36.469c-10.853,11.402-22.615,21.928-35.046,31.572
		c-12.441,9.635-25.595,18.348-39.315,26.038c-13.748,7.643-28.066,14.24-42.773,19.749c-14.711,5.489-29.799,9.957-45.133,13.155
		c-15.342,3.222-30.845,5.321-46.469,6.29c-15.607,0.992-31.287,0.738-46.836-0.676c-15.549-1.413-30.981-3.952-46.104-7.664
		c-30.229-7.486-59.254-19.417-85.709-35.412c-6.62-3.984-13.087-8.207-19.386-12.656c-6.293-4.458-12.393-9.173-18.318-14.082
		c-11.838-9.832-22.968-20.478-33.138-31.943c-20.397-22.866-37.239-48.733-49.653-76.399C11.398,417.3,3.313,387.861,0.047,358.214
		l-0.003-0.029c-0.429-3.893,2.379-7.396,6.271-7.824C9.902,349.965,13.159,352.321,13.982,355.74z"/>
</g>
<path fill="#231F20" d="M129.87,429.672v-18.957c-1.895,2.68-4.227,4.66-6.992,5.938c-2.914,1.145-6.117,1.723-9.613,1.723
	c-6.992,0-12.602-2.422-16.828-7.277c-4.223-4.719-6.332-11.234-6.332-19.531c0-7.914,2.109-14.297,6.332-19.148
	c2.188-2.301,5.098-4.055,8.742-5.27c3.637-1.211,7.352-1.816,11.141-1.816c6.992,0,13.473,1.625,19.449,4.883
	c5.973,3.258,8.961,9.352,8.961,18.285v47.684h-7.434c-2.039,0-3.789-0.641-5.242-1.914
	C130.597,432.989,129.87,431.461,129.87,429.672z M104.96,392.137c0,4.602,1.094,8.238,3.281,10.922
	c2.18,2.68,5.164,4.016,8.953,4.016c4.078,0,7.211-1.336,9.395-4.016c2.188-2.43,3.281-6.066,3.281-10.922
	c0-4.973-1.02-8.805-3.062-11.488c-2.18-2.68-5.242-4.02-9.172-4.02c-4.082,0-7.215,1.34-9.395,4.02
	C106.054,383.333,104.96,387.165,104.96,392.137z"/>
<path fill="#231F20" d="M198.046,366.481v29.871c0,9.066-2.703,15.004-8.086,17.809c-5.391,2.812-11.289,4.215-17.703,4.215
	c-6.262-0.262-11.98-1.789-17.148-4.598c-5.176-2.805-7.758-8.617-7.758-17.426v-29.871h15.293v32.555
	c0,3.062,1.02,5.297,3.062,6.703c2.035,1.406,4.371,2.102,6.992,2.102s4.984-0.695,7.098-2.102c2.109-1.406,3.172-3.641,3.172-6.703
	v-26.043c0-1.785,0.688-3.32,2.074-4.598c1.383-1.273,3.168-1.914,5.352-1.914H198.046z"/>
<path fill="#231F20" d="M240.862,401.715h10.926c-1.605,5.359-4.66,9.445-9.18,12.254c-4.516,2.941-10.195,4.406-17.039,4.406
	c-8.301,0-14.785-2.359-19.449-7.086c-4.664-4.594-6.988-11.168-6.988-19.723c0-8.168,2.258-14.555,6.773-19.148
	c4.66-4.723,11.145-7.086,19.445-7.086c8.738,0,15.512,2.297,20.32,6.895c4.66,4.723,6.992,11.301,6.992,19.723
	c0,0.512,0,0.957,0,1.344c0,0.379,0,0.637,0,0.758c0,0.648-0.078,1.09-0.219,1.344h-37.797c0.141,3.961,1.234,6.895,3.273,8.809
	c1.891,2.047,4.734,3.062,8.523,3.062c2.473,0,4.59-0.445,6.336-1.34c0.434-0.125,0.836-0.352,1.203-0.668
	c0.359-0.316,0.762-0.672,1.199-1.055c0.141-0.379,0.688-0.895,1.641-1.531C237.765,402.036,239.112,401.715,240.862,401.715z
	 M214.647,386.778h22.285c-0.293-3.445-1.316-5.996-3.062-7.656c-1.895-1.789-4.586-2.688-8.082-2.688
	c-3.207,0-5.828,0.898-7.867,2.688S214.788,383.461,214.647,386.778z"/>
<path fill="#231F20" d="M253.757,400.567h14.855c0.145,2.555,1.234,4.469,3.281,5.742c2.18,1.281,5.09,1.918,8.738,1.918
	c2.621,0,4.879-0.449,6.773-1.34c1.746-0.895,2.621-2.105,2.621-3.641c0-2.297-3.062-4.023-9.18-5.172
	c-2.621-0.379-4.586-0.766-5.898-1.145c-7.719-1.66-12.891-3.637-15.512-5.938c-2.914-2.301-4.371-5.363-4.371-9.191
	c0-4.852,2.109-8.871,6.34-12.062c4.367-2.938,10.047-4.406,17.039-4.406c7.574,0,13.617,1.469,18.137,4.406
	c4.223,3.191,6.477,7.344,6.77,12.445h-9.395c-2.766,0-4.883-1.086-6.336-3.258c-0.582-0.508-1.168-1.02-1.75-1.527
	c-1.742-1.152-4.148-1.723-7.207-1.723c-2.914,0-5.102,0.379-6.555,1.145c-1.309,0.77-1.965,1.914-1.965,3.449
	c0,2.039,3.785,3.766,11.363,5.172c0.875,0.25,1.637,0.445,2.289,0.57c0.66,0.133,1.273,0.195,1.859,0.195
	c7.43,1.66,12.598,3.574,15.516,5.742c2.762,2.297,4.149,5.359,4.149,9.195c0,5.613-2.328,9.953-6.993,13.016
	c-4.371,2.812-10.922,4.215-19.664,4.215c-8.305,0-14.496-1.465-18.574-4.406c-4.223-2.934-6.332-7.211-6.332-12.824V400.567z"/>
<path fill="#231F20" d="M333.507,417.418c-4.805,0.254-10.012,0.188-15.617-0.191c-5.613-0.387-8.414-3.512-8.414-9.387v-56.297
	h7.867c1.887,0,3.566,0.641,5.023,1.914c1.453,1.281,2.188,2.812,2.188,4.602v8.609h8.953v2.684c0,1.918-0.727,3.48-2.18,4.691
	c-1.461,1.215-3.211,1.82-5.246,1.82h-1.527v28.34c0,2.176,1.449,3.258,4.371,3.258h4.582V417.418z"/>
<path fill="#231F20" d="M336.125,351.543h7.867c2.043,0,3.789,0.641,5.246,1.914c1.453,1.281,2.188,2.812,2.188,4.602v4.016h-15.301
	V351.543z M336.125,366.481h7.867c2.043,0,3.789,0.641,5.246,1.914c1.453,1.277,2.188,2.812,2.188,4.598v44.426h-15.301V366.481z"/>
<path fill="#231F20" d="M359.296,412.825c-3.062-2.301-5.246-5.391-6.559-9.289c-1.309-3.891-1.965-7.949-1.965-12.164
	c0-3.441,0.543-6.891,1.637-10.336s2.805-6.32,5.137-8.617c3.785-3.828,8.664-6.094,14.641-6.797
	c5.969-0.703,11.359-0.289,16.164,1.242c5.539,1.914,9.617,5.234,12.238,9.957c2.477,4.215,3.715,9.129,3.715,14.746
	c0,4.086-0.512,7.594-1.527,10.531c-1.02,2.938-2.336,5.426-3.938,7.469c-3.496,4.211-7.938,6.828-13.328,7.852
	c-4.805,1.148-9.648,1.242-14.527,0.289C366.101,416.747,362.207,415.118,359.296,412.825z M369.785,379.122
	c-3.062,2.934-4.449,7.309-4.156,13.117s1.531,9.859,3.715,12.156c0.875,1.023,2.402,1.883,4.59,2.586
	c2.184,0.703,4.406,0.77,6.664,0.191c2.258-0.574,4.258-2.012,6.008-4.309c1.746-2.297,2.695-6,2.84-11.105
	c0-4.594-0.84-8.043-2.512-10.34c-1.676-2.297-3.605-3.766-5.789-4.406c-2.188-0.633-4.367-0.668-6.555-0.094
	C372.406,377.489,370.8,378.227,369.785,379.122z"/>
<path fill="#231F20" d="M457.402,417.418h-7.652c-2.184,0-3.969-0.605-5.352-1.82c-1.387-1.211-2.074-2.773-2.074-4.688v-26.047
	c0-3.062-1.062-5.297-3.172-6.703c-2.113-1.402-4.477-2.105-7.098-2.105s-4.957,0.703-6.992,2.105
	c-2.043,1.406-3.062,3.641-3.062,6.703v32.555h-15.293v-29.875c0-8.68,2.582-14.484,7.758-17.426
	c5.168-2.934,10.887-4.527,17.148-4.785c6.414,0,12.312,1.469,17.703,4.406c5.383,2.938,8.086,8.871,8.086,17.805V417.418z"/>
<path fill="#231F20" d="M458.488,400.567h14.855c0.145,2.555,1.234,4.469,3.281,5.742c2.184,1.281,5.094,1.918,8.738,1.918
	c2.625,0,4.879-0.449,6.773-1.34c1.75-0.895,2.621-2.105,2.621-3.641c0-2.297-3.059-4.023-9.18-5.172
	c-2.621-0.379-4.582-0.766-5.898-1.145c-7.719-1.66-12.891-3.637-15.512-5.938c-2.914-2.301-4.371-5.363-4.371-9.191
	c0-4.852,2.109-8.871,6.34-12.062c4.371-2.938,10.047-4.406,17.039-4.406c7.574,0,13.621,1.469,18.137,4.406
	c4.223,3.191,6.48,7.344,6.773,12.445h-9.395c-2.77,0-4.883-1.086-6.34-3.258c-0.582-0.508-1.168-1.02-1.746-1.527
	c-1.746-1.152-4.152-1.723-7.207-1.723c-2.918,0-5.105,0.379-6.559,1.145c-1.309,0.77-1.965,1.914-1.965,3.449
	c0,2.039,3.785,3.766,11.363,5.172c0.875,0.25,1.637,0.445,2.289,0.57c0.66,0.133,1.277,0.195,1.863,0.195
	c7.426,1.66,12.598,3.574,15.512,5.742c2.762,2.297,4.148,5.359,4.148,9.195c0,5.613-2.328,9.953-6.992,13.016
	c-4.367,2.812-10.922,4.215-19.66,4.215c-8.309,0-14.5-1.465-18.574-4.406c-4.227-2.934-6.336-7.211-6.336-12.824V400.567z"/>
<path fill="#231F20" d="M336.015,293.165c-6.031,3.816-12.73,6.312-20.09,7.48c-8.035,1.762-16.571,2.641-25.614,2.641
	c-26.113,0-46.699-7.039-61.77-21.121c-14.734-14.09-22.094-33.453-22.094-58.098c0-24.648,7.359-44.16,22.094-58.535
	c15.734-14.375,36.324-21.566,61.77-21.566c25.11,0,45.704,7.191,61.77,21.566c15.066,14.676,22.598,34.184,22.598,58.535
	c0,10.562-1.508,20.246-4.52,29.047c-3.012,9.098-7.707,16.875-14.059,23.328l19.082,15.844l-9.539,8.359
	c-3.355,2.93-6.871,4.184-10.547,3.742c-3.688-0.441-6.707-1.539-9.039-3.305L336.015,293.165z M310.902,272.481l-18.079-15.406
	l6.027-5.723c2.676-2.641,6.274-4.246,10.797-4.84c4.52-0.586,8.285,0,11.297,1.758l10.043,7.043
	c2.34-3.809,4.348-8.504,6.027-14.082c0.332-2.641,0.758-5.352,1.254-8.145c0.504-2.785,0.758-5.785,0.758-9.02
	c0-16.43-4.355-29.484-13.059-39.168c-8.711-9.094-20.59-13.648-35.657-13.648c-15.402,0-27.293,4.555-35.656,13.648
	c-8.367,9.098-12.555,22.152-12.555,39.168s4.188,29.93,12.555,38.73c8.363,9.098,20.254,13.645,35.656,13.645
	c5.023,0,8.703-0.289,11.047-0.879C305.042,274.676,308.222,273.653,310.902,272.481z"/>
</svg>
