<?xml version="1.0" encoding="utf-8"?>
<!-- Generator: Adobe Illustrator 15.0.0, SVG Export Plug-In  -->
<!DOCTYPE svg PUBLIC "-//W3C//DTD SVG 1.1//EN" "http://www.w3.org/Graphics/SVG/1.1/DTD/svg11.dtd" [
	<!ENTITY ns_flows "http://ns.adobe.com/Flows/1.0/">
]>
<svg version="1.1"
	 xmlns="http://www.w3.org/2000/svg" xmlns:xlink="http://www.w3.org/1999/xlink" xmlns:a="http://ns.adobe.com/AdobeSVGViewerExtensions/3.0/"
	 x="0px" y="0px" width="700px" height="700px" viewBox="-48.5 -43.98 700 700"
	 overflow="visible" enable-background="new -48.5 -43.98 700 700" xml:space="preserve">
<defs>
</defs>
<g>
	<path fill="#71CCDC" d="M13.982,355.74c6.721,27.747,17.018,54.253,30.816,78.637c6.904,12.179,14.626,23.836,23.124,34.843
		c8.528,10.982,17.744,21.381,27.687,30.992c9.952,9.597,20.493,18.532,31.639,26.596c5.566,4.039,11.284,7.853,17.108,11.478
		c5.817,3.634,11.761,7.05,17.815,10.241c24.235,12.717,50.139,22.019,76.766,27.259c13.3,2.658,26.766,4.378,40.27,5.062
		c13.504,0.687,27.033,0.368,40.47-0.844c13.423-1.234,26.804-3.46,39.883-6.62c13.087-3.183,25.957-7.168,38.425-12.157
		c12.474-4.967,24.559-10.863,36.143-17.6c11.612-6.688,22.723-14.235,33.216-22.56c10.503-8.314,20.346-17.444,29.545-27.17
		c9.205-9.724,17.697-20.125,25.386-31.088c7.7-10.957,14.538-22.506,20.602-34.438c6.066-11.933,11.256-24.312,15.507-37.007
		c8.44-25.4,13.403-51.992,14.239-78.819c0.399-13.407-0.043-26.864-1.522-40.247c-1.459-13.385-3.934-26.686-7.283-39.741
		c-6.62-26.155-17.237-51.293-31.131-74.589c-27.869-46.565-69.719-85.188-119.401-109.741
		c-12.413-6.144-25.287-11.469-38.546-15.78c-13.234-4.4-26.849-7.767-40.679-10.243c-27.676-4.906-56.251-5.841-84.786-3.02
		l-0.012,0.001c-3.032,0.3-5.732-1.915-6.032-4.947c-0.273-2.76,1.539-5.245,4.153-5.896c28.852-7.202,59.142-9.771,89.297-7.587
		c15.084,1.055,30.121,3.371,44.961,6.736c14.818,3.452,29.441,7.976,43.657,13.641c14.201,5.691,28.04,12.412,41.309,20.188
		c13.253,7.799,25.961,16.592,37.987,26.29c23.967,19.487,45.202,42.601,62.429,68.561c17.347,25.881,30.586,54.592,39.454,84.599
		c4.406,15.022,7.637,30.365,9.791,45.884c2.134,15.521,3.198,31.232,2.936,46.947c-0.713,62.904-21.137,125.526-57.55,176.896
		c-9.066,12.865-19.075,25.064-29.923,36.469c-10.853,11.402-22.615,21.928-35.046,31.572
		c-12.441,9.636-25.595,18.348-39.315,26.038c-13.749,7.643-28.066,14.24-42.773,19.749c-14.712,5.488-29.8,9.956-45.134,13.154
		c-15.342,3.222-30.845,5.321-46.468,6.29c-15.608,0.992-31.287,0.738-46.837-0.676c-15.55-1.413-30.981-3.952-46.104-7.665
		c-30.229-7.486-59.254-19.417-85.709-35.412c-6.62-3.984-13.088-8.208-19.386-12.657c-6.293-4.457-12.394-9.172-18.318-14.081
		C94.8,543.444,83.67,532.799,73.5,521.333c-20.398-22.866-37.239-48.733-49.654-76.398c-12.447-27.635-20.533-57.074-23.8-86.721
		l-0.003-0.029c-0.43-3.892,2.378-7.396,6.271-7.824C9.902,349.965,13.158,352.321,13.982,355.74z"/>
</g>
<path fill="#231F20" d="M234.858,417.418c-4.805,0.254-10.008,0.188-15.617-0.191c-5.613-0.387-8.414-3.512-8.414-9.387v-56.297
	h7.867c1.887,0,3.566,0.641,5.023,1.914c1.453,1.281,2.188,2.812,2.188,4.602v8.609h8.953v2.684c0,1.918-0.723,3.48-2.18,4.691
	c-1.461,1.215-3.211,1.82-5.242,1.82h-1.531v28.34c0,2.176,1.453,3.258,4.375,3.258h4.578V417.418z"/>
<path fill="#231F20" d="M273.315,415.313c-3.059,1.406-6.301,2.262-9.715,2.582c-3.43,0.32-6.445,0.48-9.074,0.48
	c-5.246,0-9.832-1.246-13.762-3.738c-3.934-2.484-5.898-6.605-5.898-12.348c0-5.359,1.781-9.191,5.352-11.488
	c3.566-2.301,8.117-3.832,13.656-4.594c0.73,0,1.602-0.098,2.625-0.289c1.016-0.191,2.18-0.352,3.496-0.477
	c6.406-0.77,9.609-2.43,9.609-4.984c0-1.914-1.133-3.156-3.387-3.734c-2.258-0.57-4.336-0.859-6.223-0.859
	c-2.051,0-3.867,0.258-5.469,0.766s-2.762,1.473-3.496,2.875h-14.641c0.586-3.957,2.629-7.215,6.125-9.766
	c3.926-2.938,9.531-4.406,16.816-4.406c8.164,0,14.277,1.215,18.359,3.637c4.219,2.555,6.34,6.129,6.34,10.723v17.43
	c0,5.105-1.066,9.094-3.176,11.965S276.233,414.04,273.315,415.313z M269.819,391.758c-2.039,0.895-4.883,1.723-8.516,2.488
	l-5.031,0.961c-2.617,0.637-4.508,1.469-5.68,2.488c-1.016,1.406-1.523,2.809-1.523,4.207c0,1.922,0.652,3.449,1.961,4.602
	c1.309,1.02,3.203,1.527,5.684,1.527c4.074,0,7.285-1.02,9.609-3.059c2.332-2.043,3.496-4.852,3.496-8.43V391.758z"/>
<path fill="#231F20" d="M324.663,414.356v-3.258c-2.617,3.574-6.152,5.812-10.594,6.699c-4.445,0.895-8.852,0.578-13.227-0.957
	c-4.363-1.527-8.113-4.367-11.25-8.52c-3.133-4.145-4.695-9.605-4.695-16.371c0-7.914,2.078-14.328,6.23-19.242
	s10.809-7.375,19.988-7.375c6.992,0,13.469,1.66,19.445,4.98s8.965,9.449,8.965,18.379v27c0,8.938-2.988,15.035-8.965,18.289
	c-5.977,3.258-12.453,4.883-19.445,4.883c-13.406,0-21.707-5.488-24.91-16.465h15.957c1.164,1.781,2.949,3.16,5.352,4.113
	c2.402,0.961,4.805,1.211,7.207,0.77c2.402-0.449,4.59-1.695,6.551-3.738C323.249,421.5,324.37,418.438,324.663,414.356z
	 M299.749,392.333c0,8.812,2.922,13.695,8.742,14.648c5.828,0.961,10.125-0.223,12.891-3.543c1.32-1.402,2.266-3.605,2.844-6.605
	c0.586-3,0.625-5.969,0.117-8.902c-0.52-2.941-1.719-5.559-3.617-7.852c-1.891-2.301-4.656-3.449-8.297-3.449
	c-4.953,0-8.305,1.598-10.051,4.789S299.749,388.247,299.749,392.333z"/>
<path fill="#231F20" d="M340.834,400.567h14.852c0.148,2.555,1.242,4.469,3.281,5.742c2.188,1.281,5.102,1.918,8.742,1.918
	c2.625,0,4.883-0.449,6.777-1.34c1.746-0.895,2.617-2.105,2.617-3.641c0-2.297-3.059-4.023-9.18-5.172
	c-2.617-0.379-4.582-0.766-5.898-1.145c-7.715-1.66-12.891-3.637-15.508-5.938c-2.918-2.301-4.375-5.363-4.375-9.191
	c0-4.852,2.109-8.871,6.34-12.062c4.375-2.938,10.047-4.406,17.039-4.406c7.578,0,13.625,1.469,18.133,4.406
	c4.23,3.191,6.484,7.344,6.781,12.445h-9.398c-2.773,0-4.883-1.086-6.336-3.258c-0.586-0.508-1.172-1.02-1.75-1.527
	c-1.746-1.152-4.148-1.723-7.203-1.723c-2.922,0-5.109,0.379-6.562,1.145c-1.312,0.77-1.965,1.914-1.965,3.449
	c0,2.039,3.789,3.766,11.367,5.172c0.871,0.25,1.629,0.445,2.285,0.57c0.664,0.133,1.281,0.195,1.867,0.195
	c7.422,1.66,12.594,3.574,15.508,5.742c2.762,2.297,4.148,5.359,4.148,9.195c0,5.613-2.324,9.953-6.992,13.016
	c-4.367,2.812-10.918,4.215-19.656,4.215c-8.312,0-14.504-1.465-18.578-4.406c-4.227-2.934-6.336-7.211-6.336-12.824V400.567z"/>
<path fill="#231F20" d="M275.502,299.766V175.215H224.28v-11.008c0-4.398,1.758-8.137,5.273-11.219s7.785-4.625,12.805-4.625
	h119.523v26.852h-50.727v124.551H275.502z"/>
</svg>
