<?xml version="1.0" encoding="utf-8"?>
<!-- Generator: Adobe Illustrator 15.0.0, SVG Export Plug-In  -->
<!DOCTYPE svg PUBLIC "-//W3C//DTD SVG 1.1//EN" "http://www.w3.org/Graphics/SVG/1.1/DTD/svg11.dtd" [
	<!ENTITY ns_flows "http://ns.adobe.com/Flows/1.0/">
]>
<svg version="1.1"
	 xmlns="http://www.w3.org/2000/svg" xmlns:xlink="http://www.w3.org/1999/xlink" xmlns:a="http://ns.adobe.com/AdobeSVGViewerExtensions/3.0/"
	 x="0px" y="0px" width="800px" height="400px" viewBox="-27.501 -162.679 800 400"
	 overflow="visible" enable-background="new -27.501 -162.679 800 400" xml:space="preserve">
<defs>
</defs>
<path fill="#FFFFFF" d="M11.441,60.621c-4.105-2.933-7.039-6.876-8.801-11.845C0.882,43.813,0,38.642,0,33.269
	c0-4.397,0.734-8.792,2.2-13.187c1.465-4.397,3.764-8.06,6.895-10.989c5.087-4.887,11.636-7.775,19.657-8.672
	c8.021-0.894,15.261-0.366,21.715,1.588c7.431,2.443,12.91,6.677,16.433,12.697c3.323,5.376,4.988,11.646,4.988,18.806
	c0,5.215-0.688,9.688-2.055,13.433c-1.369,3.744-3.131,6.92-5.278,9.524c-4.699,5.373-10.667,8.713-17.901,10.011
	c-6.457,1.465-12.96,1.588-19.513,0.369C20.585,65.627,15.354,63.55,11.441,60.621z M25.531,17.639
	c-4.112,3.747-5.973,9.319-5.578,16.729c0.386,7.409,2.052,12.577,4.985,15.507c1.178,1.307,3.227,2.405,6.164,3.299
	c2.934,0.894,5.914,0.973,8.949,0.24c3.033-0.732,5.722-2.561,8.067-5.49c2.348-2.93,3.615-7.652,3.818-14.168
	c0-5.859-1.132-10.257-3.381-13.187c-2.245-2.93-4.837-4.802-7.774-5.616c-2.934-0.814-5.867-0.855-8.798-0.123
	C29.047,15.562,26.894,16.5,25.531,17.639z"/>
<path fill="#FFFFFF" d="M95.066,82.113c0,2.276-0.98,4.228-2.934,5.859c-1.961,1.623-4.307,2.44-7.043,2.44h-9.976V29.604
	c0-11.394,4.007-19.172,12.028-23.32c8.021-4.151,16.726-6.229,26.117-6.229c4.887,0,9.828,0.776,14.82,2.32
	c4.984,1.55,8.946,3.782,11.88,6.718c5.87,6.346,8.804,14.49,8.804,24.419c0,10.257-2.934,18.56-8.804,24.908
	c-5.864,6.19-13.398,9.281-22.591,9.281c-4.892,0-9.199-0.732-12.913-2.197c-3.911-1.626-7.04-4.151-9.388-7.57V82.113z
	 M128.516,34.245c0-6.349-1.469-11.232-4.402-14.651c-2.93-3.419-7.142-5.127-12.617-5.127c-5.285,0-9.388,1.708-12.324,5.127
	c-2.739,3.094-4.106,7.978-4.106,14.651c0,6.188,1.469,10.831,4.4,13.922c2.939,3.419,7.141,5.127,12.617,5.127
	c5.087,0,9.101-1.708,12.031-5.127C127.047,44.748,128.516,40.107,128.516,34.245z"/>
<path fill="#FFFFFF" d="M206.563,46.458h14.672c-2.153,6.835-6.262,12.047-12.327,15.627c-6.059,3.747-13.688,5.616-22.881,5.616
	c-11.152,0-19.858-3.012-26.114-9.035c-6.262-5.859-9.393-14.247-9.393-25.154c0-10.415,3.032-18.56,9.1-24.419
	c6.253-6.023,14.961-9.038,26.113-9.038c11.735,0,20.829,2.93,27.286,8.792c6.26,6.023,9.391,14.408,9.391,25.154
	c0,0.653,0,1.219,0,1.708s0,0.817,0,0.976c0,0.817-0.105,1.386-0.293,1.711h-50.763c0.192,5.051,1.664,8.795,4.4,11.235
	c2.542,2.604,6.354,3.908,11.445,3.908c3.322,0,6.16-0.571,8.505-1.711c0.586-0.161,1.129-0.445,1.616-0.855
	c0.488-0.404,1.031-0.853,1.617-1.342c0.192-0.489,0.926-1.14,2.197-1.954C202.409,46.863,204.217,46.458,206.563,46.458z
	 M171.355,27.407h29.928c-0.395-4.395-1.759-7.649-4.106-9.768c-2.545-2.276-6.164-3.419-10.855-3.419
	c-4.307,0-7.83,1.143-10.566,3.419C173.019,19.921,171.547,23.176,171.355,27.407z"/>
<path fill="#FFFFFF" d="M293.709,66.48h-10.27c-2.934,0-5.328-0.768-7.188-2.32c-1.86-1.547-2.786-3.539-2.786-5.979V24.963
	c0-3.905-1.422-6.753-4.254-8.546c-2.838-1.787-6.016-2.684-9.539-2.684c-3.517,0-6.65,0.896-9.387,2.684
	c-2.746,1.793-4.112,4.641-4.112,8.546V66.48h-20.537V28.385c0-11.071,3.471-18.478,10.415-22.228
	c6.944-3.741,14.619-5.774,23.035-6.103c8.607,0,16.526,1.875,23.766,5.616c7.237,3.747,10.856,11.32,10.856,22.714V66.48z"/>
<path fill="#FFFFFF" d="M328.92,44.994h19.95c0.194,3.255,1.66,5.695,4.404,7.324c2.931,1.629,6.843,2.44,11.736,2.44
	c3.52,0,6.551-0.565,9.094-1.708c2.35-1.137,3.522-2.687,3.522-4.641c0-2.93-4.108-5.127-12.32-6.592
	c-3.523-0.492-6.164-0.979-7.926-1.465c-10.369-2.118-17.309-4.644-20.832-7.573c-3.915-2.93-5.87-6.838-5.87-11.722
	c0-6.188,2.838-11.314,8.51-15.387c5.868-3.741,13.5-5.616,22.884-5.616c10.174,0,18.291,1.875,24.358,5.616
	c5.668,4.072,8.701,9.363,9.092,15.876h-12.613c-3.721,0-6.559-1.386-8.51-4.151c-0.783-0.65-1.566-1.301-2.344-1.957
	c-2.354-1.465-5.578-2.197-9.687-2.197c-3.915,0-6.848,0.492-8.801,1.465c-1.761,0.979-2.64,2.443-2.64,4.397
	c0,2.604,5.087,4.805,15.258,6.592c1.172,0.331,2.199,0.577,3.075,0.732c0.886,0.167,1.716,0.246,2.499,0.246
	c9.974,2.118,16.915,4.559,20.832,7.327c3.714,2.93,5.575,6.838,5.575,11.725c0,7.16-3.129,12.694-9.391,16.603
	c-5.867,3.586-14.672,5.373-26.407,5.373c-11.149,0-19.466-1.869-24.944-5.616c-5.677-3.744-8.505-9.199-8.505-16.359V44.994z"/>
<path fill="#FFFFFF" d="M411.081,60.621c-4.114-2.933-7.045-6.876-8.805-11.845c-1.765-4.963-2.641-10.134-2.641-15.507
	c0-4.397,0.73-8.792,2.195-13.187c1.469-4.397,3.764-8.06,6.898-10.989c5.086-4.887,11.637-7.775,19.658-8.672
	c8.02-0.894,15.259-0.366,21.717,1.588c7.428,2.443,12.907,6.677,16.43,12.697c3.322,5.376,4.984,11.646,4.984,18.806
	c0,5.215-0.684,9.688-2.052,13.433c-1.372,3.744-3.13,6.92-5.284,9.524c-4.694,5.373-10.664,8.713-17.898,10.011
	c-6.453,1.465-12.956,1.588-19.513,0.369C420.218,65.627,414.987,63.55,411.081,60.621z M425.159,17.639
	c-4.109,3.747-5.966,9.319-5.574,16.729c0.388,7.409,2.055,12.577,4.988,15.507c1.173,1.307,3.228,2.405,6.164,3.299
	c2.931,0.894,5.916,0.973,8.946,0.24c3.028-0.732,5.722-2.561,8.069-5.49c2.352-2.93,3.617-7.652,3.813-14.168
	c0-5.859-1.123-10.257-3.373-13.187c-2.247-2.93-4.839-4.802-7.776-5.616c-2.93-0.814-5.867-0.855-8.802-0.123
	C428.683,15.562,426.525,16.5,425.159,17.639z"/>
<path fill="#FFFFFF" d="M542.817,1.52v38.095c0,11.566-3.615,19.137-10.852,22.714c-7.238,3.586-15.16,5.373-23.768,5.373
	c-8.415-0.325-16.09-2.279-23.037-5.859c-6.941-3.577-10.409-10.989-10.409-22.228V1.52h20.536v41.517
	c0,3.908,1.367,6.756,4.105,8.549c2.74,1.793,5.871,2.687,9.391,2.687s6.697-0.894,9.535-2.687c2.836-1.793,4.254-4.641,4.254-8.549
	V9.826c0-2.279,0.926-4.233,2.792-5.865c1.854-1.623,4.249-2.44,7.188-2.44H542.817z"/>
<path fill="#FFFFFF" d="M546.05,66.48V34.977c0-6.349,1.123-11.681,3.369-15.996c2.248-4.31,5.33-7.772,9.249-10.38
	c3.708-2.443,8.065-4.23,13.054-5.373c4.988-1.134,10.119-1.708,15.402-1.708c0.394,0,0.881,0,1.469,0c0.586,0,1.073,0,1.467,0
	v17.341h-6.748c-5.676,0-9.879,1.143-12.617,3.419c-2.741,2.282-4.104,5.859-4.104,10.743V66.48H546.05z"/>
<path fill="#FFFFFF" d="M646.397,46.458h14.672c-2.159,6.835-6.262,12.047-12.323,15.627c-6.071,3.747-13.697,5.616-22.891,5.616
	c-11.147,0-19.852-3.012-26.114-9.035c-6.262-5.859-9.386-14.247-9.386-25.154c0-10.415,3.031-18.56,9.095-24.419
	c6.257-6.023,14.963-9.038,26.112-9.038c11.738,0,20.835,2.93,27.289,8.792c3.521,3.58,6.059,7.734,7.631,12.454h-20.54
	c-0.981-1.626-1.961-2.845-2.936-3.662c-2.544-2.276-6.159-3.419-10.858-3.419c-4.303,0-7.823,1.143-10.559,3.419
	c-3.523,3.261-5.281,8.634-5.281,16.116c0,7.491,1.758,12.785,5.281,15.876c2.538,2.604,6.351,3.908,11.44,3.908
	c3.326,0,6.164-0.571,8.513-1.711c0.586-0.161,1.123-0.445,1.61-0.855c0.487-0.404,1.026-0.853,1.611-1.342
	c0.394-0.489,1.178-1.14,2.355-1.954C642.292,46.863,644.052,46.458,646.397,46.458z"/>
<path fill="#FFFFFF" d="M718.582,46.458h14.666c-2.153,6.835-6.263,12.047-12.321,15.627c-6.069,3.747-13.694,5.616-22.888,5.616
	c-11.149,0-19.857-3.012-26.113-9.035c-6.262-5.859-9.391-14.247-9.391-25.154c0-10.415,3.03-18.56,9.097-24.419
	c6.261-6.023,14.966-9.038,26.114-9.038c11.735,0,20.836,2.93,27.289,8.792c6.257,6.023,9.384,14.408,9.384,25.154
	c0,0.653,0,1.219,0,1.708s0,0.817,0,0.976c0,0.817-0.099,1.386-0.289,1.711h-50.766c0.194,5.051,1.662,8.795,4.405,11.235
	c2.536,2.604,6.354,3.908,11.445,3.908c3.325,0,6.164-0.571,8.508-1.711c0.587-0.161,1.123-0.445,1.61-0.855
	c0.488-0.404,1.031-0.853,1.617-1.342c0.19-0.489,0.926-1.14,2.202-1.954C714.419,46.863,716.227,46.458,718.582,46.458z
	 M683.364,27.407h29.933c-0.392-4.395-1.762-7.649-4.112-9.768c-2.541-2.276-6.16-3.419-10.853-3.419
	c-4.306,0-7.823,1.143-10.562,3.419C685.026,19.921,683.559,23.176,683.364,27.407z"/>
</svg>
