<?xml version="1.0" encoding="utf-8"?>
<!-- Generator: Adobe Illustrator 15.0.0, SVG Export Plug-In  -->
<!DOCTYPE svg PUBLIC "-//W3C//DTD SVG 1.1//EN" "http://www.w3.org/Graphics/SVG/1.1/DTD/svg11.dtd" [
	<!ENTITY ns_flows "http://ns.adobe.com/Flows/1.0/">
]>
<svg version="1.1"
	 xmlns="http://www.w3.org/2000/svg" xmlns:xlink="http://www.w3.org/1999/xlink" xmlns:a="http://ns.adobe.com/AdobeSVGViewerExtensions/3.0/"
	 x="0px" y="0px" width="700px" height="700px" viewBox="-6.487 0 700 700"
	 overflow="visible" enable-background="new -6.487 0 700 700" xml:space="preserve">
<defs>
</defs>
<g>
	<defs>
		<polyline id="SVGID_1_" points="688.588,0 688.588,588.627 0,588.627 0,0 		"/>
	</defs>
	<clipPath id="SVGID_2_">
		<use xlink:href="#SVGID_1_"  overflow="visible"/>
	</clipPath>
	<g clip-path="url(#SVGID_2_)">
		<path fill="none" stroke="#FFFFFF" stroke-width="0.4731" stroke-miterlimit="10" d="M538.346,305.729"/>
		<path fill="none" stroke="#FFFFFF" stroke-width="0.4731" stroke-miterlimit="10" d="M534.034,299.19"/>
		<path fill="none" stroke="#FFFFFF" stroke-width="0.4731" stroke-miterlimit="10" d="M277.369,350.523"/>
		<path fill="none" stroke="#FFFFFF" stroke-width="0.4731" stroke-miterlimit="10" d="M281.646,343.986"/>
		<path fill="#B38E83" d="M551.5,250.822c0,0,57.267-33.849,75.758,40.818c18.364,74.63-85.935,118.245-108.793,98.873
			c0,0,32.971-49.309,15.569-91.323C534.034,299.19,552.426,260.029,551.5,250.822z"/>
		<path fill="#A37A72" d="M536.259,316.35c-6.1,0,10.034-28.495,49.641-31.686c10.598-0.856,11.938,10.231,12.662,17.343
			c0.923,8.958-0.237,19.221-8.29,28.216c-9.674,10.944-19.553,13.003-17.56,17.774c5.067,11.777,36.554,1.806,35.133,11.852
			c-1.231,8.667-80.869,52.197-85.572,30.85c-1.332-5.819,8.543-17.346,11.762-25.403c4.074-10.363,5.405-20.729,4.074-30.125
			C536.354,323.325,538.907,316.35,536.259,316.35z"/>
		<path fill="none" stroke="#000000" stroke-width="3.3115" stroke-miterlimit="10" d="M551.5,250.822
			c0,0,57.267-33.849,75.758,40.818c18.364,74.63-85.935,118.245-108.793,98.873c0,0,32.971-49.309,15.569-91.323
			C534.034,299.19,552.426,260.029,551.5,250.822z"/>
		<g>
			<path fill="#154B81" stroke="#000000" stroke-width="3.7845" stroke-miterlimit="10" d="M343.478,449.688
				c-265.244-23.01-192.83-154.327-192.83-154.327c-1.021-2.347,0.065,0.109-1.021-2.347c-0.267-0.582,1.617-0.719,1.348-1.3
				C62.258,92.449,325.129,34.651,343.478,45.273l0.23-0.039c18.43-10.622,281.236,47.146,192.551,246.406
				c-0.34,0.654-0.568,1.231-0.798,1.842c-1.09,2.424-2.189,4.808-3.25,7.122c0,0,52.854,134.741-188.503,149.083"/>
			<g>
				<g>
					<path fill="#B38E83" d="M335.326,413.561c-16.729,0-26.106,14.411-26.106,14.411c-67.675,6.29-124.241-37.067-124.241-37.067
						c-40.691-52.048-29.491-85.317-13.191-100.168c13.818-12.533,33.27-13.976,26.579-16.006
						c-14.579-4.406-42.483-1.987-42.483-1.987s0.126,0,0-1.479c-1.759-21.565-2.983-39.659-1.256-55.77
						c16.698-159.418,187.43-70.554,187.43-70.554s37.979-20.443,82.118-20.119c55.418,0.396,117.809,31.717,92.53,156.094
						c-0.332,1.443-4.206,0-4.206,0s-17.798-5.309-32.384-0.87c-14.576,4.443,86.827,17.947,2.386,116.001
						c0,0-58.392,41.355-120.029,35.216C362.472,431.262,352.098,413.561,335.326,413.561"/>
					<g>
						<g>
							<g>
								<path fill="#AF8074" d="M481.672,250.171c0,14.018-62.459,25.36-139.615,25.36c-77.012,0-139.476-17.774-139.476-31.756
									c0-14.052,62.988-25.687,140.076-25.687C419.702,218.089,481.672,236.156,481.672,250.171z"/>
								<g>
									<path d="M457.917,260.177c-0.098,6.47-2.523,12.897-6.962,15.392c-3.904,2.17-10.806-1.807-17.433-1.807
										c-7.615,0-12.653,5.993-16.47-1.628c-2.742-5.42-2.552-8.739-2.552-13.727c0-15.603,9.016-28.281,20.287-28.281
										C445.978,230.126,458.046,237.817,457.917,260.177z"/>
									<path fill="#FFFFFF" d="M454.012,262.239c0,6.393-3.981,11.522-8.951,11.522c-4.911,0-8.881-5.13-8.881-11.522
										c0-6.293,3.97-11.452,8.881-11.452C450.03,250.787,454.012,255.946,454.012,262.239z"/>
									<path fill="#FFFFFF" d="M438.361,242.55c0,4.551-3.182,8.237-7.058,8.237c-3.976,0-7.129-3.687-7.129-8.237
										s3.153-8.238,7.129-8.238C435.18,234.312,438.361,237.999,438.361,242.55z"/>
								</g>
								<g>
									<path d="M266.17,255.443c-0.067,6.438-2.456,12.863-6.99,15.354c-3.816,2.167-10.772-1.805-17.339-1.805
										c-7.644,0-12.726,6.036-16.535-1.627c-2.751-5.419-2.546-8.739-2.546-13.727c0-15.611,9.081-28.246,20.276-28.246
										C254.239,225.393,266.396,233.049,266.17,255.443z"/>
									<path fill="#FFFFFF" d="M262.327,257.506c0,6.392-4.011,11.486-8.916,11.486c-4.932,0-8.94-5.095-8.94-11.486
										c0-6.322,4.009-11.49,8.94-11.49C258.316,246.016,262.327,251.184,262.327,257.506z"/>
									<path fill="#FFFFFF" d="M246.68,237.817c0,4.516-3.18,8.198-7.12,8.198c-3.949,0-7.123-3.683-7.123-8.198
										c0-4.592,3.174-8.235,7.123-8.235C243.5,229.582,246.68,233.226,246.68,237.817z"/>
								</g>
							</g>
							<g>
								<path fill="#531C2D" d="M363.93,282.068c-1.458,5.164-6.354,2.819-11.004,11.056c-2.812,4.913-11.002,4.765-17.6,4.765
									c-8.445,0-10.358-8.129-15.833-11.307c-4.312-2.455-5.971-1.728-6.935-5.776c-1.022-4.66,1.965-8.24,6.005-11.271
									c4.472-3.323,10.442-5.815,18.257-5.815C351.866,263.719,366.681,272.354,363.93,282.068z"/>
								<path fill="#ADB0BD" d="M350.877,273.436c0,3.613-5.505,6.508-12.163,6.508c-6.7,0-12.13-2.895-12.13-6.508
									c0-3.609,5.43-6.507,12.13-6.507C345.372,266.929,350.877,269.826,350.877,273.436z"/>
							</g>
						</g>
						<path fill="none" stroke="#1B1315" stroke-width="6.6229" stroke-miterlimit="10" d="M495.369,186.627
							c10.987,8.815,21.536,56.753-120.403,33.849c-13.152-2.131-20.442-2.454-32.309-2.349c0,0-26.116-0.254-38.543,1.337
							c-145.479,18.46-130.109-31.424-119.002-40.28"/>
					</g>
				</g>
				<g>
					
						<line fill="none" stroke="#1D1215" stroke-width="3.7845" stroke-miterlimit="10" x1="338.087" y1="300.604" x2="338.087" y2="388.562"/>
					<path fill="none" stroke="#1D1215" stroke-width="3.7845" stroke-miterlimit="10" d="M308.222,404.315
						c-0.961-15.028,45.376-23.876,55.05,0"/>
				</g>
			</g>
		</g>
		<path fill="none" stroke="#000000" stroke-width="2.8384" stroke-miterlimit="10" d="M595.343,286.553
			c-0.562,2.669-34.465-5.933-56.997,25.572"/>
		<g>
			<path fill="#B38E83" d="M134.409,241.282c0,0-64.125-32.364-82.555,42.301c-18.429,74.639,86.358,121.811,106.707,100.357
				c0,0-36.417-59.277-5.098-89.845C153.464,294.096,133.606,250.532,134.409,241.282z"/>
			<path fill="#A37A72" d="M140.536,310.646c6.194,0-10.003-28.467-49.611-31.648c-10.606-0.871-11.921,10.224-12.649,17.348
				c-0.936,8.951,0.254,19.211,8.242,28.204c9.776,10.945,19.593,12.967,17.565,17.773c-5.074,11.774-33.604-0.474-32.142,9.57
				c1.248,8.669,74.919,45.056,86.62,32.047c3.846-4.269-9.078-15.856-12.264-23.914c-4.076-10.367-8.874-21.135-7.523-30.527
				C140.471,317.648,137.918,310.646,140.536,310.646z"/>
			<path fill="none" stroke="#000000" stroke-width="3.3115" stroke-miterlimit="10" d="M82.446,281.958
				c0-8.522,47.582,1.016,58.586,29.771"/>
			<path fill="none" stroke="#000000" stroke-width="3.3115" stroke-miterlimit="10" d="M134.479,239.338
				c0,0-64.165-32.373-82.591,42.257c-18.386,74.633,86.363,121.786,106.707,100.397c0,0-36.419-59.328-5.104-89.876
				C153.492,292.116,133.672,248.544,134.479,239.338z"/>
		</g>
		<path fill="#98002E" stroke="#000000" stroke-width="3.3115" stroke-miterlimit="10" d="M243.538,431.196
			c0,0-37.652,23.052-64.491,27.671c-26.847,4.701-70.624,6.072-81.927,14.817c-11.299,8.85-39.068,24.845-31.081,62.77
			c0,0,46.831-16.537,89.578,30.708c42.718,47.216,66.739,49.75,66.739,49.75l39.07-178.598L243.538,431.196z"/>
		<g>
			<path fill="#154B81" stroke="#000000" stroke-width="3.3115" stroke-miterlimit="10" d="M264.045,439.991
				c-6.168-1.954-60.607,141.602-33.043,227.689c0,0-29.924,10.987-28.392,25.293c2.188,19.645,109.522,34.82,79.763-14.672
				l14.614-29.519c0,0,28.1,8.566,38.443,7.589l6.39-0.111c10.378,1.089,38.452-7.478,38.452-7.478l14.674,29.453
				c-29.82,49.479,79.439,33.411,79.439,14.81c0-16.98-28.064-25.472-28.064-25.472c27.571-86.086-21.241-219.209-22.538-227.583
				C423.783,439.991,317.724,456.927,264.045,439.991z"/>
			<path fill="#154B81" stroke="#000000" stroke-width="3.3115" stroke-miterlimit="10" d="M451.686,644.454
				c0,0,42.417,6.506,81.187-6.038c21.38-6.859,40.165-24.305,53.62-40.673c21.678-26.445,26.648-64.732,18.957-93.712
				c-6.296-23.944-24.356-43.197-59.049-49.839c-59.648-11.457-91.797,59.237-67.941,85.496c6.863,7.483,17.966,12.288,34.927,9.211
				c5.573-1.005,10.384-3.607,12.696-6.786c8.188-11.641-3.645-35.479-14.814-36.017c0,0,37.845-41.802,62.704,18.962
				c0,0,18.945,96.527-118.973,88.868L451.686,644.454z"/>
			<path fill="#FFFFFF" d="M296.717,485.976c16.569-14.447,40.039-30.053,54.729-27.887c24.412,3.573,30.975,38.067-13.033,76.008
				l-6.228-4.269l0.594-11.923l-13.856,3.006l2.923-17.886l-16.177-1.011l3.15-12.648L296.717,485.976z"/>
			<path fill="#B38E83" d="M423.127,569.672c0-12.639-4.979-32.975-12.531-33.342c-1.333-0.073-24.922,6.864-27.771,7.334
				c-6.103,0.977-12.321,2.71-19.132-0.977c-7.285-4.082-20.973-8.591-21.533-8.591c-1.095,0-13.625,6.133-20.817,8.591
				c-9.541,3.151-15.998,2.962-23.724,2.247c-10.208-0.906-26.947-10.838-29.556-10.048c-4.911,1.736-8.458,7.443-10.573,11.124
				c-2.917,5.135-3.679,12.649-3.679,23.044c0,16.98,3.707,28.253,14.577,40.726c15.108,17.149,44.705,25.284,71.146,25.284
				c22.739,0,50.242-8.489,65.161-21.79C419.606,600.021,423.127,590.018,423.127,569.672z"/>
			<path fill="none" stroke="#000000" stroke-width="3.3115" stroke-miterlimit="10" d="M261.008,443.392
				c-8.059,2.34-33.351,104.973,47.78,99.659c85.9-5.709,84.399-145.649-11.333-57.177"/>
			<path fill="#FFFFFF" d="M383.349,486.482c-23.134-25.358-57.392-36.05-67.665-23.119c-8.819,11.197-4.578,54.041,33.271,74.772
				l10.936-4.039l-4.143-11.747l10.61,0.84l-2.428-17.454l11.471-2.413l-2.257-11.924L383.349,486.482z"/>
			<path fill="none" stroke="#000000" stroke-width="3.3115" stroke-miterlimit="10" d="M423.916,443.392
				c8.145,2.34,29.761,104.973-51.371,99.659c-85.963-5.709-84.433-145.649,11.271-57.177"/>
			<path fill="#FFFFFF" d="M278.731,675.269c0,0,0.267,1.879,1.226,3.608c2.187,3.618,4.081,2.604,5.4,13.518
				c0.559,4.439-1.881,12.39-15.883,15.742c-14.702,3.397-60.172,0.147-65.112-14.556c-4.941-14.63,28.899-24.813,28.899-24.813
				l0.529-5.638l5.444,8.308l6.39-6.213l5.464,10.114l6.463-6.499l4.377,9.318l7.188-6.786l3.52,8.481L278.731,675.269z"/>
			<path fill="#FFFFFF" d="M398.593,674.625c0,0-0.266,1.877-1.191,3.611c-2.219,3.679-4.112,2.702-5.435,13.536
				c-0.601,4.449,1.894,12.398,15.907,15.721c14.652,3.537,60.113,0.179,65.091-14.447c4.971-14.633-28.91-24.937-28.91-24.937
				l-0.593-5.6l-5.359,8.312l-6.367-6.135l-5.501,10.108l-6.438-6.612l-4.399,9.402l-7.121-6.873l-3.579,8.601L398.593,674.625z"/>
			<path fill="none" stroke="#000000" stroke-width="3.3115" stroke-miterlimit="10" d="M264.045,439.991
				c-6.168-1.954-60.607,141.602-33.043,227.689c0,0-29.924,10.987-28.392,25.293c2.188,19.645,109.522,34.82,79.763-14.672
				l14.614-29.519c0,0,28.1,8.566,38.443,7.589l6.39-0.111c10.378,1.089,38.452-7.478,38.452-7.478l14.674,29.453
				c-29.82,49.479,79.439,33.411,79.439,14.81c0-16.98-28.064-25.472-28.064-25.472c27.571-86.086-27.447-219.131-22.538-227.583
				C423.783,439.991,317.724,456.927,264.045,439.991z"/>
			<path opacity="0.52" d="M248.243,475.395c0,0-5.737,19.974-8.353,26.901c-6.464,17.35,28.105,82.297,98.021,47.979
				c0,0,81.694,26.447,102.994-29.002c0,0-10.098-46.243-7.117-33.851c2.987,12.35-14.311,78.101-94.055,48.292
				C339.734,535.715,252.147,578.812,248.243,475.395z"/>
			<path opacity="0.52" d="M537.116,635.174c0,0-45.403,19.502-85.431,6.499l2.65-26.592c0,0,54.078,1.195,81.923-12.351
				c5.498-2.71,9.94-4.772,12.786-8.849c11.674-16.514,19.128-18.893,23.438-32.405c1.983-6.36,4.134-15.031,4.134-28.755
				c0-6.035-11.331-47.682-50.865-42.412l0.562-18.427c0,0,35.56,10.375,50.379,41.328
				C594.248,549.921,537.116,635.174,537.116,635.174z"/>
			<path fill="#FFFFFF" d="M533.146,454.474c-8.395-0.606-23.459,2.894-36.322,12.5c-8.956,6.788-16.246,17.268-21.216,28.899
				c-5.868,13.944-5.533,31.901,4.507,42.913c11.598,12.823,37.188,12.212,45.204,1.627c3.183-4.083,1.095-14.2-0.895-19.14
				c-1.987-5.062-5.797-11.201-15.673-15.432c0,0,12.856-14.374,27.507-15.639l-7.293-13.542l9.38-7.952l-10.938-4.414
				L533.146,454.474z"/>
		</g>
		<path opacity="0.47" stroke="#000000" stroke-width="0.4731" stroke-miterlimit="10" d="M243.538,431.196
			c-9.182,3.538-33.407,23.371-61.175,29.053c-27.808,5.667-70.894,5.123-81.694,12.419c-10.838,7.218-41.256,22.14-34.994,65.236
			c0,0,16.67-32.436,50.069-42.624c33.409-10.224,122.949-16.548,143.361-46.312l2.321-10.654L243.538,431.196z"/>
		
			<path fill="none" stroke="#000000" stroke-width="3.3115" stroke-linecap="round" stroke-linejoin="round" stroke-miterlimit="10" d="
			M255.126,454.567c0,0-51.954,28.578-87.676,29.948c-35.764,1.446-82.787,16.434-100.804,51.727"/>
		<path opacity="0.21" d="M550.503,243.56c-0.058,0.576-19.45,22.144-29.484,23.369c-6.627,0.8-28.735,13.589-32.057,11.672
			c-5.396-3.069-6.787,6.035,0,8.13c2.819,0.898,38.777,57.007,28.171,91.211c-10.776,34.181,31.587-41.506,15.078-77.337
			C532.211,300.604,543.482,273.762,550.503,243.56z"/>
		<path opacity="0.21" d="M136.374,234.202c0.117,0.58,19.47,22.15,29.512,23.371c6.704,0.834,26.185,15.896,30.592,16.438
			c0,0,3.618,2.021,1.555,3.361c-2.578,1.666-50.766,57.007-40.102,91.215c10.677,34.175-38.535-40.281-3.246-77.343
			C154.685,291.245,143.521,264.406,136.374,234.202z"/>
	</g>
</g>
<g>
	<g>
		<path fill="#98002E" d="M93.17,646.682c0,3.694-0.666,6.943-1.996,9.738c-1.332,2.795-3.121,5.107-5.373,6.937
			c-2.661,2.196-5.585,3.762-8.77,4.692c-3.186,0.934-7.231,1.401-12.146,1.401H36.56v-74.335h25.002
			c5.194,0,9.134,0.208,11.812,0.622c2.677,0.417,5.186,1.293,7.532,2.623c2.535,1.43,4.428,3.347,5.68,5.742
			c1.255,2.396,1.879,5.157,1.879,8.287c0,3.626-0.868,6.856-2.591,9.686c-1.729,2.828-4.11,4.904-7.155,6.234v0.404
			c4.378,0.964,7.873,2.934,10.507,5.915C91.854,637.605,93.17,641.623,93.17,646.682z M70.402,616.132
			c0-1.2-0.295-2.43-0.881-3.694c-0.587-1.266-1.498-2.179-2.73-2.744c-1.178-0.532-2.559-0.825-4.163-0.878
			c-1.6-0.047-3.985-0.07-7.152-0.07h-1.237v15.726h2.233c3.044,0,5.175-0.035,6.394-0.101c1.222-0.064,2.482-0.417,3.781-1.051
			c1.426-0.697,2.408-1.665,2.945-2.895C70.133,619.193,70.402,617.761,70.402,616.132z M74.869,646.336
			c0-2.296-0.443-4.095-1.331-5.394c-0.888-1.296-2.219-2.281-3.992-2.946c-1.077-0.432-2.561-0.67-4.448-0.725
			c-1.884-0.048-4.409-0.073-7.578-0.073h-3.281v18.621h0.95c4.627,0,7.831-0.032,9.604-0.096c1.776-0.07,3.581-0.522,5.417-1.353
			c1.616-0.731,2.796-1.805,3.542-3.223C74.497,649.738,74.869,648.132,74.869,646.336z"/>
		<path fill="#98002E" d="M119.501,605.401h-17.587V591.77h17.587V605.401z M119.025,669.45h-16.637v-56.062h16.637V669.45z"/>
		<path fill="#98002E" d="M152.206,670.546c-6.781,0-11.718-1.464-14.806-4.391c-3.093-2.931-4.637-7.724-4.637-14.378v-26.209
			h-6.368v-12.18h6.368v-16.027H149.4v16.027h16.021v12.18H149.4v19.868c0,1.964,0.016,3.678,0.049,5.142
			c0.032,1.465,0.283,2.78,0.76,3.942c0.443,1.167,1.228,2.089,2.353,2.772c1.124,0.681,2.766,1.023,4.919,1.023
			c0.888,0,2.053-0.197,3.494-0.6c1.443-0.396,2.449-0.765,3.018-1.098h1.43v12.33c-1.806,0.501-3.725,0.89-5.752,1.171
			C157.641,670.406,155.156,670.546,152.206,670.546z"/>
		<path fill="#98002E" d="M202.586,643.588h-31.511V629.71h31.511V643.588z"/>
		<path fill="#98002E" d="M287.432,669.45h-17.679v-49.274l-12.884,31.799h-12.117l-12.885-31.799v49.274h-16.729v-74.335h20.485
			l15.683,36.691l15.638-36.691h20.487V669.45z"/>
		<path fill="#98002E" d="M352.363,641.443c0,9.221-2.396,16.48-7.197,21.788c-4.805,5.309-11.594,7.964-20.371,7.964
			c-8.715,0-15.489-2.655-20.317-7.964c-4.834-5.308-7.254-12.567-7.254-21.788c0-9.319,2.42-16.617,7.254-21.892
			c4.828-5.275,11.603-7.915,20.317-7.915c8.749,0,15.528,2.658,20.342,7.965C349.96,624.908,352.363,632.191,352.363,641.443z
			 M335.297,641.543c0-3.328-0.257-6.104-0.784-8.312c-0.52-2.216-1.242-3.985-2.162-5.316c-0.979-1.399-2.088-2.371-3.324-2.922
			c-1.237-0.548-2.648-0.823-4.231-0.823c-1.487,0-2.834,0.243-4.04,0.723c-1.204,0.484-2.314,1.408-3.329,2.774
			c-0.949,1.296-1.706,3.075-2.281,5.339c-0.571,2.264-0.854,5.11-0.854,8.538c0,3.429,0.27,6.198,0.808,8.312
			c0.538,2.114,1.236,3.804,2.091,5.068c0.889,1.297,1.998,2.243,3.329,2.845c1.332,0.596,2.806,0.896,4.419,0.896
			c1.332,0,2.689-0.301,4.064-0.896c1.379-0.602,2.479-1.501,3.306-2.695c0.979-1.433,1.729-3.157,2.232-5.168
			C335.046,647.89,335.297,645.104,335.297,641.543z"/>
		<path fill="#98002E" d="M411.211,669.45h-16.738v-27.806c0-2.264-0.09-4.521-0.258-6.77c-0.178-2.245-0.495-3.901-0.976-4.967
			c-0.571-1.263-1.392-2.168-2.471-2.722c-1.08-0.544-2.52-0.819-4.325-0.819c-1.361,0-2.739,0.266-4.137,0.799
			c-1.396,0.532-2.884,1.378-4.467,2.544v39.74H361.2v-56.062h16.64v6.188c2.723-2.429,5.379-4.325,7.959-5.69
			c2.588-1.363,5.442-2.047,8.579-2.047c5.448,0,9.621,1.804,12.508,5.415c2.881,3.61,4.325,8.847,4.325,15.7V669.45z"/>
		<path fill="#98002E" d="M476.945,669.45h-19.769l-14.454-24.414l-2.565,3.646v20.769h-16.641V591.77h16.641v43.531l15.784-21.912
			h19.628l-18.683,24.161L476.945,669.45z"/>
		<path fill="#98002E" d="M509.511,670.946c-10.082,0-17.805-2.528-23.174-7.59c-5.37-5.059-8.061-12.261-8.061-21.615
			c0-9.15,2.508-16.456,7.514-21.915c5.006-5.458,12.011-8.189,21.011-8.189c8.174,0,14.316,2.318,18.438,6.94
			c4.122,4.627,6.183,11.251,6.183,19.871v6.29h-36.46c0.161,2.595,0.68,4.765,1.567,6.511c0.887,1.752,2.064,3.142,3.519,4.173
			c1.427,1.032,3.093,1.771,4.995,2.219c1.899,0.452,3.97,0.676,6.225,0.676c1.931,0,3.833-0.224,5.703-0.676
			c1.87-0.447,3.58-1.039,5.132-1.77c1.361-0.634,2.626-1.314,3.779-2.047c1.154-0.73,2.1-1.383,2.828-1.948h1.757v14.429
			c-1.359,0.565-2.603,1.086-3.728,1.569c-1.125,0.484-2.668,0.976-4.637,1.474c-1.803,0.498-3.668,0.892-5.582,1.172
			C514.604,670.804,512.268,670.946,509.511,670.946z M515.024,634.203c-0.095-3.694-0.917-6.505-2.448-8.437
			c-1.536-1.928-3.888-2.895-7.061-2.895c-3.232,0-5.763,1.014-7.582,3.042c-1.819,2.032-2.825,4.794-3.017,8.289H515.024z"/>
		<path fill="#98002E" d="M589.79,613.389l-26.95,76.627h-17.878l8.087-21.915l-19.585-54.712h17.492l11.217,35.146l10.503-35.146
			H589.79z"/>
		<path fill="#98002E" d="M612.273,670.993c-3.925,0-7.647-0.447-11.143-1.346c-3.511-0.898-6.399-1.944-8.679-3.145v-14.773h1.375
			c0.795,0.629,1.693,1.33,2.717,2.095c1.012,0.765,2.417,1.563,4.23,2.396c1.549,0.767,3.295,1.421,5.249,1.969
			c1.945,0.552,4.06,0.826,6.348,0.826c2.343,0,4.408-0.385,6.204-1.15c1.789-0.764,2.684-1.975,2.684-3.642
			c0-1.298-0.416-2.28-1.233-2.947c-0.829-0.664-2.428-1.299-4.808-1.895c-1.267-0.335-2.865-0.693-4.799-1.076
			c-1.933-0.384-3.64-0.823-5.136-1.321c-4.178-1.367-7.327-3.387-9.437-6.064c-2.108-2.681-3.158-6.197-3.158-10.559
			c0-2.496,0.548-4.852,1.643-7.067c1.095-2.21,2.697-4.183,4.822-5.91c2.123-1.698,4.748-3.048,7.869-4.047
			c3.121-1,6.642-1.496,10.575-1.496c3.736,0,7.174,0.39,10.31,1.17c3.143,0.784,5.784,1.722,7.943,2.823v14.176h-1.33
			c-0.572-0.465-1.471-1.089-2.712-1.87c-1.237-0.783-2.445-1.457-3.61-2.023c-1.399-0.665-2.959-1.212-4.684-1.645
			c-1.731-0.433-3.489-0.65-5.304-0.65c-2.403,0-4.443,0.432-6.105,1.296c-1.658,0.865-2.494,2.018-2.494,3.448
			c0,1.264,0.414,2.261,1.233,2.995c0.827,0.733,2.62,1.445,5.371,2.145c1.426,0.366,3.069,0.725,4.925,1.073
			c1.851,0.349,3.631,0.822,5.348,1.423c3.831,1.299,6.738,3.201,8.722,5.716c1.981,2.511,2.969,5.852,2.969,10.011
			c0,2.63-0.591,5.133-1.757,7.511c-1.178,2.382-2.84,4.384-4.993,6.018c-2.278,1.764-4.971,3.128-8.052,4.091
			C620.281,670.514,616.584,670.993,612.273,670.993z"/>
	</g>
</g>
</svg>
