<?xml version="1.0" encoding="utf-8"?>
<!-- Generator: Adobe Illustrator 15.0.0, SVG Export Plug-In  -->
<!DOCTYPE svg PUBLIC "-//W3C//DTD SVG 1.1//EN" "http://www.w3.org/Graphics/SVG/1.1/DTD/svg11.dtd" [
	<!ENTITY ns_flows "http://ns.adobe.com/Flows/1.0/">
]>
<svg version="1.1"
	 xmlns="http://www.w3.org/2000/svg" xmlns:xlink="http://www.w3.org/1999/xlink" xmlns:a="http://ns.adobe.com/AdobeSVGViewerExtensions/3.0/"
	 x="0px" y="0px" width="700px" height="700px" viewBox="-48.6 -44.091 700 700"
	 overflow="visible" enable-background="new -48.6 -44.091 700 700" xml:space="preserve">
<defs>
</defs>
<g>
	<path fill="#FFFFFF" d="M16.323,355.827c6.992,27.476,17.44,53.627,31.301,77.637c3.453,6.004,7.142,11.854,10.999,17.571
		c3.848,5.723,7.901,11.292,12.146,16.693c8.517,10.783,17.686,20.991,27.568,30.407c9.895,9.398,20.345,18.152,31.388,26.033
		c5.514,3.948,11.177,7.67,16.937,11.209c5.754,3.549,11.63,6.883,17.612,9.993c23.951,12.386,49.485,21.426,75.699,26.452
		c13.092,2.558,26.336,4.2,39.612,4.819c13.276,0.622,26.568,0.255,39.767-0.971c13.182-1.252,26.329-3.479,39.162-6.622
		c12.845-3.163,25.463-7.129,37.682-12.067c12.23-4.901,24.09-10.68,35.448-17.306c11.379-6.588,22.247-14.037,32.533-22.21
		c20.578-16.339,38.762-35.675,53.844-57.182c15.096-21.499,27.063-45.178,35.448-70.063c4.2-12.441,7.465-25.195,9.845-38.115
		c2.349-12.927,3.775-26.03,4.259-39.187c0.939-26.291-1.909-52.884-8.42-78.573c-6.481-25.691-16.714-50.467-30.286-73.44
		c-27.193-45.923-68.151-84.23-117.019-108.862c-12.209-6.161-24.884-11.535-37.956-15.903
		c-13.045-4.473-26.484-7.917-40.153-10.506c-27.355-5.122-55.672-6.354-84.07-3.921l-0.013,0.001
		c-3.55,0.304-6.674-2.327-6.978-5.876c-0.272-3.173,1.804-6.006,4.783-6.789C305.021-6.128,368.659-2.127,425.882,20.394
		c14.299,5.633,28.25,12.299,41.632,20.044c13.363,7.771,26.189,16.547,38.339,26.243c24.196,19.497,45.687,42.669,63.124,68.763
		c17.547,26.014,31.077,54.879,40.022,85.133c8.925,30.25,13.406,61.847,13.028,93.578c-0.332,31.708-5.577,63.419-15.404,93.63
		c-9.813,30.224-24.234,58.93-42.521,84.9c-18.29,25.972-40.471,49.194-65.591,68.63c-12.56,9.717-25.86,18.466-39.717,26.199
		c-13.877,7.699-28.316,14.366-43.162,19.899c-14.855,5.499-30.086,9.954-45.553,13.147c-15.478,3.214-31.103,5.294-46.854,6.235
		c-15.735,0.97-31.538,0.667-47.203-0.805c-15.665-1.47-31.207-4.069-46.428-7.858c-30.421-7.65-59.603-19.761-86.146-35.976
		c-6.643-4.038-13.13-8.313-19.446-12.816c-6.309-4.512-12.418-9.286-18.352-14.251c-11.852-9.946-22.989-20.697-33.139-32.279
		c-10.162-11.563-19.496-23.811-27.72-36.727c-4.125-6.447-8.005-13.037-11.629-19.751c-3.615-6.72-6.936-13.582-10.012-20.534
		c-12.283-27.808-20.148-57.385-23.106-87.08l-0.002-0.025c-0.454-4.555,2.871-8.616,7.427-9.069
		C11.604,349.211,15.332,351.916,16.323,355.827z"/>
</g>
<path fill="#0FFFFF" d="M260.396,415.382c-3.045,1.4-6.279,2.252-9.684,2.574c-3.41,0.316-6.421,0.475-9.031,0.475
	c-5.225,0-9.798-1.238-13.712-3.721c-3.922-2.473-5.877-6.58-5.877-12.299c0-5.342,1.772-9.16,5.332-11.445
	c3.552-2.291,8.09-3.818,13.604-4.578c0.724,0,1.597-0.096,2.61-0.285s2.177-0.35,3.483-0.479c6.384-0.764,9.573-2.418,9.573-4.959
	c0-1.908-1.124-3.15-3.372-3.721c-2.253-0.57-4.318-0.855-6.201-0.855c-2.038,0-3.845,0.254-5.441,0.762
	c-1.601,0.506-2.759,1.461-3.483,2.859h-14.581c0.579-3.939,2.61-7.186,6.094-9.73c3.914-2.92,9.501-4.385,16.757-4.385
	c8.128,0,14.223,1.213,18.281,3.623c4.208,2.547,6.314,6.105,6.314,10.682v17.359c0,5.088-1.056,9.064-3.155,11.922
	C265.801,412.04,263.301,414.114,260.396,415.382z M256.914,391.917c-2.031,0.891-4.863,1.717-8.487,2.482l-5.004,0.953
	c-2.61,0.637-4.5,1.465-5.663,2.479c-1.018,1.404-1.521,2.797-1.521,4.193c0,1.912,0.652,3.436,1.959,4.584
	c1.304,1.018,3.189,1.521,5.655,1.521c4.062,0,7.26-1.018,9.581-3.049c2.316-2.035,3.479-4.832,3.479-8.395V391.917z"/>
<path fill="#0FFFFF" d="M271.937,400.694h14.794c0.146,2.541,1.231,4.449,3.27,5.717c2.173,1.277,5.073,1.914,8.704,1.914
	c2.614,0,4.86-0.447,6.749-1.338c1.742-0.889,2.611-2.096,2.611-3.623c0-2.291-3.049-4.008-9.146-5.154
	c-2.61-0.379-4.566-0.76-5.873-1.141c-7.69-1.654-12.843-3.625-15.453-5.914c-2.903-2.289-4.353-5.342-4.353-9.152
	c0-4.836,2.101-8.84,6.312-12.023c4.355-2.92,10.011-4.385,16.978-4.385c7.543,0,13.565,1.465,18.063,4.385
	c4.209,3.184,6.453,7.32,6.746,12.402h-9.359c-2.756,0-4.863-1.082-6.311-3.246c-0.58-0.506-1.162-1.016-1.742-1.523
	c-1.738-1.145-4.134-1.713-7.179-1.713c-2.904,0-5.084,0.379-6.532,1.141c-1.304,0.762-1.955,1.906-1.955,3.436
	c0,2.031,3.769,3.748,11.318,5.148c0.869,0.256,1.627,0.447,2.279,0.568c0.659,0.131,1.27,0.195,1.856,0.195
	c7.396,1.652,12.549,3.561,15.453,5.719c2.752,2.293,4.131,5.344,4.131,9.16c0,5.594-2.316,9.92-6.961,12.967
	c-4.357,2.805-10.883,4.197-19.589,4.197c-8.274,0-14.44-1.459-18.502-4.387c-4.208-2.92-6.308-7.184-6.308-12.777V400.694z"/>
<path fill="#0FFFFF" d="M340.929,366.739v18.691l18.504-18.691h18.283l-20.68,19.453l20.896,31.287h-18.279l-10.668-17.172
	c-2.176-3.428-4.062-4.893-5.658-4.385c-1.602,0.508-2.398,1.275-2.398,2.287v7.061v12.209h-15.232v-65.621h7.836
	c2.027,0,3.77,0.639,5.225,1.906c1.447,1.277,2.172,2.738,2.172,4.387V366.739z"/>
<path fill="#0FFFFF" d="M284.134,149.467h28.016l62.531,150.816H337.16l-11.504-31.131h-67.035l-11.002,31.131h-37.521
	l57.03-140.735C270.129,152.833,275.795,149.467,284.134,149.467z M292.138,179.719l-24.013,64.007h48.025L292.138,179.719z"/>
</svg>
