<?xml version="1.0" encoding="utf-8"?>
<!-- Generator: Adobe Illustrator 15.0.0, SVG Export Plug-In  -->
<!DOCTYPE svg PUBLIC "-//W3C//DTD SVG 1.1//EN" "http://www.w3.org/Graphics/SVG/1.1/DTD/svg11.dtd" [
	<!ENTITY ns_flows "http://ns.adobe.com/Flows/1.0/">
]>
<svg version="1.1"
	 xmlns="http://www.w3.org/2000/svg" xmlns:xlink="http://www.w3.org/1999/xlink" xmlns:a="http://ns.adobe.com/AdobeSVGViewerExtensions/3.0/"
	 x="0px" y="0px" width="700px" height="700px" viewBox="-53.124 -45.918 700 700"
	 overflow="visible" enable-background="new -53.124 -45.918 700 700" xml:space="preserve">
<defs>
</defs>
<g>
	<path fill="#FFFFFF" d="M16.323,355.828c6.992,27.476,17.439,53.627,31.301,77.637c3.453,6.004,7.142,11.854,10.999,17.571
		c3.848,5.723,7.901,11.292,12.147,16.693c8.517,10.784,17.686,20.991,27.568,30.408c9.895,9.397,20.345,18.151,31.388,26.032
		c5.514,3.948,11.177,7.67,16.938,11.209c5.753,3.549,11.629,6.883,17.611,9.994c23.951,12.386,49.485,21.425,75.699,26.451
		c13.093,2.559,26.336,4.201,39.612,4.82c13.275,0.621,26.568,0.255,39.767-0.971c13.182-1.253,26.327-3.479,39.16-6.623
		c12.846-3.163,25.464-7.129,37.683-12.067c12.229-4.901,24.091-10.68,35.448-17.305c11.379-6.589,22.248-14.038,32.533-22.211
		c20.578-16.339,38.762-35.675,53.845-57.181c15.095-21.5,27.063-45.178,35.448-70.063c4.201-12.441,7.465-25.195,9.845-38.116
		c2.349-12.926,3.775-26.029,4.259-39.186c0.939-26.291-1.91-52.885-8.421-78.573c-6.481-25.691-16.714-50.467-30.286-73.44
		c-27.193-45.923-68.151-84.23-117.019-108.863c-12.209-6.161-24.884-11.535-37.956-15.903
		c-13.045-4.473-26.484-7.917-40.152-10.507c-27.355-5.121-55.672-6.354-84.071-3.921l-0.013,0.001
		c-3.55,0.305-6.674-2.327-6.978-5.877c-0.272-3.173,1.804-6.006,4.783-6.788c57.56-15.177,121.199-11.176,178.421,11.345
		c14.299,5.634,28.25,12.3,41.632,20.044c13.363,7.771,26.19,16.548,38.339,26.243c24.197,19.497,45.687,42.67,63.125,68.763
		c17.546,26.014,31.076,54.879,40.022,85.133c8.924,30.251,13.406,61.847,13.028,93.577c-0.332,31.708-5.577,63.42-15.404,93.631
		c-9.813,30.224-24.234,58.93-42.522,84.9c-18.29,25.971-40.47,49.194-65.591,68.629c-12.559,9.717-25.86,18.466-39.717,26.2
		c-13.877,7.698-28.316,14.365-43.162,19.899c-14.855,5.498-30.086,9.953-45.553,13.146c-15.477,3.215-31.104,5.295-46.854,6.236
		c-15.735,0.97-31.538,0.667-47.203-0.805c-15.665-1.471-31.207-4.07-46.428-7.859c-30.421-7.649-59.603-19.761-86.146-35.976
		c-6.643-4.037-13.13-8.313-19.446-12.815c-6.309-4.513-12.418-9.287-18.352-14.252c-11.852-9.946-22.989-20.697-33.139-32.279
		C62.35,511.247,53.016,499,44.792,486.083c-4.126-6.447-8.005-13.037-11.63-19.751c-3.615-6.719-6.936-13.582-10.012-20.534
		c-12.283-27.808-20.147-57.385-23.105-87.08l-0.002-0.025c-0.454-4.555,2.872-8.616,7.427-9.069
		C11.604,349.211,15.332,351.917,16.323,355.828z"/>
</g>
<path fill="#0FFFFF" d="M185.088,381.044c-2.175-2.673-5.148-4.004-8.925-4.004c-4.06,0-7.177,1.272-9.355,3.814
	c-2.177,2.548-3.267,6.038-3.267,10.49v26.134h-14.798v-65.62h7.396c2.032,0,3.773,0.639,5.222,1.906
	c1.452,1.276,2.18,2.804,2.18,4.584v15.067c2.614-3.818,6.314-6.229,11.103-7.246c4.786-1.018,9.355-0.766,13.711,0.76
	c4.06,1.527,7.47,3.944,10.229,7.251c2.755,3.309,4.139,7.884,4.139,13.73v29.567h-14.588v-26.323c0-1.906-0.179-3.652-0.539-5.242
	C187.23,384.322,186.393,382.703,185.088,381.044z"/>
<path fill="#0FFFFF" d="M245.599,401.836h10.884c-1.601,5.342-4.646,9.411-9.143,12.207c-4.5,2.929-10.157,4.388-16.979,4.388
	c-8.266,0-14.725-2.349-19.37-7.056c-4.645-4.576-6.963-11.125-6.963-19.646c0-8.137,2.249-14.499,6.75-19.075
	c4.638-4.704,11.097-7.059,19.366-7.059c8.705,0,15.454,2.285,20.244,6.869c4.638,4.703,6.967,11.253,6.967,19.644
	c0,0.511,0,0.954,0,1.338c0,0.379,0,0.638,0,0.759c0,0.642-0.079,1.087-0.221,1.339h-37.653c0.142,3.944,1.231,6.868,3.267,8.772
	c1.879,2.039,4.711,3.052,8.486,3.052c2.467,0,4.573-0.444,6.312-1.335c0.435-0.123,0.835-0.349,1.197-0.665
	c0.361-0.317,0.758-0.673,1.196-1.052c0.142-0.38,0.686-0.89,1.635-1.525C242.512,402.157,243.856,401.836,245.599,401.836z
	 M219.481,386.958h22.199c-0.289-3.434-1.307-5.972-3.048-7.626c-1.888-1.779-4.567-2.673-8.051-2.673
	c-3.196,0-5.807,0.894-7.834,2.673C220.713,381.111,219.623,383.655,219.481,386.958z"/>
<path fill="#0FFFFF" d="M259.745,417.479v-24.606c0-4.961,0.834-9.125,2.507-12.494c1.662-3.365,3.948-6.072,6.853-8.11
	c2.759-1.904,5.986-3.302,9.684-4.189c3.701-0.892,7.512-1.338,11.433-1.338c0.286,0,0.652,0,1.082,0c0.438,0,0.798,0,1.09,0v13.545
	h-5.003c-4.215,0-7.332,0.89-9.359,2.669c-2.032,1.78-3.05,4.577-3.05,8.391v26.134H259.745z"/>
<path fill="#0FFFFF" d="M301.101,412.904c-3.052-2.294-5.225-5.37-6.535-9.253c-1.303-3.876-1.955-7.918-1.955-12.116
	c0-3.427,0.542-6.862,1.632-10.297c1.09-3.436,2.79-6.294,5.117-8.584c3.77-3.814,8.628-6.069,14.58-6.77
	c5.949-0.704,11.318-0.289,16.105,1.238c5.516,1.906,9.577,5.213,12.188,9.918c2.467,4.197,3.704,9.092,3.704,14.688
	c0,4.071-0.515,7.565-1.524,10.493c-1.018,2.922-2.324,5.404-3.922,7.436c-3.481,4.196-7.907,6.805-13.276,7.821
	c-4.786,1.142-9.611,1.242-14.47,0.287C307.881,416.813,303.997,415.189,301.101,412.904z M311.546,379.332
	c-3.048,2.924-4.432,7.282-4.138,13.066c0.289,5.787,1.527,9.824,3.7,12.107c0.873,1.024,2.394,1.881,4.573,2.579
	c2.173,0.701,4.386,0.763,6.639,0.189c2.248-0.571,4.241-2.003,5.983-4.294c1.741-2.285,2.684-5.972,2.831-11.062
	c0-4.576-0.838-8.012-2.507-10.301c-1.666-2.286-3.587-3.749-5.763-4.388c-2.18-0.632-4.353-0.665-6.531-0.094
	C314.157,377.707,312.557,378.44,311.546,379.332z"/>
<path fill="#0FFFFF" d="M388.593,401.836h10.884c-1.6,5.342-4.646,9.411-9.143,12.207c-4.5,2.929-10.156,4.388-16.978,4.388
	c-8.266,0-14.726-2.349-19.371-7.056c-4.645-4.576-6.963-11.125-6.963-19.646c0-8.137,2.249-14.499,6.75-19.075
	c4.638-4.704,11.097-7.059,19.367-7.059c8.704,0,15.453,2.285,20.243,6.869c4.638,4.703,6.967,11.253,6.967,19.644
	c0,0.511,0,0.954,0,1.338c0,0.379,0,0.638,0,0.759c0,0.642-0.079,1.087-0.221,1.339h-37.653c0.142,3.944,1.231,6.868,3.267,8.772
	c1.88,2.039,4.711,3.052,8.486,3.052c2.467,0,4.573-0.444,6.312-1.335c0.435-0.123,0.835-0.349,1.197-0.665
	c0.361-0.317,0.759-0.673,1.196-1.052c0.142-0.38,0.686-0.89,1.636-1.525C385.507,402.157,386.851,401.836,388.593,401.836z
	 M362.476,386.958h22.2c-0.29-3.434-1.309-5.972-3.049-7.626c-1.887-1.779-4.566-2.673-8.05-2.673c-3.196,0-5.808,0.894-7.835,2.673
	C363.707,381.111,362.617,383.655,362.476,386.958z"/>
<path fill="#0FFFFF" d="M401.439,400.695h14.795c0.145,2.541,1.229,4.449,3.27,5.717c2.171,1.277,5.071,1.915,8.703,1.915
	c2.614,0,4.86-0.448,6.75-1.338c1.737-0.89,2.61-2.097,2.61-3.624c0-2.291-3.05-4.008-9.146-5.153
	c-2.61-0.38-4.566-0.762-5.873-1.141c-7.69-1.656-12.843-3.625-15.453-5.915c-2.903-2.29-4.355-5.342-4.355-9.152
	c0-4.836,2.103-8.839,6.313-12.022c4.353-2.921,10.012-4.386,16.975-4.386c7.546,0,13.567,1.465,18.068,4.386
	c4.207,3.184,6.452,7.319,6.744,12.401h-9.359c-2.754,0-4.862-1.082-6.311-3.246c-0.579-0.506-1.165-1.016-1.742-1.523
	c-1.737-1.145-4.134-1.713-7.18-1.713c-2.902,0-5.083,0.379-6.531,1.141c-1.303,0.762-1.955,1.906-1.955,3.435
	c0,2.032,3.77,3.749,11.318,5.149c0.868,0.256,1.627,0.447,2.279,0.568c0.658,0.131,1.269,0.196,1.855,0.196
	c7.397,1.652,12.546,3.559,15.45,5.719c2.755,2.292,4.135,5.342,4.135,9.159c0,5.594-2.32,9.919-6.963,12.966
	c-4.356,2.806-10.88,4.198-19.589,4.198c-8.273,0-14.442-1.459-18.502-4.388c-4.206-2.92-6.307-7.183-6.307-12.776V400.695z"/>
<path fill="#0FFFFF" d="M221.603,300.285V165.25c0-4.38,1.752-8.108,5.252-11.177c3.505-3.07,7.757-4.605,12.76-4.605h17.506v56.12
	h71.038v-56.12h36.018v150.817h-36.018v-67.079H257.12v67.079H221.603z"/>
</svg>
