<?xml version="1.0" encoding="utf-8"?>
<!-- Generator: Adobe Illustrator 15.0.0, SVG Export Plug-In  -->
<!DOCTYPE svg PUBLIC "-//W3C//DTD SVG 1.1//EN" "http://www.w3.org/Graphics/SVG/1.1/DTD/svg11.dtd" [
	<!ENTITY ns_flows "http://ns.adobe.com/Flows/1.0/">
]>
<svg version="1.1"
	 xmlns="http://www.w3.org/2000/svg" xmlns:xlink="http://www.w3.org/1999/xlink" xmlns:a="http://ns.adobe.com/AdobeSVGViewerExtensions/3.0/"
	 x="0px" y="0px" width="700px" height="700px" viewBox="-45.816 -45.918 700 700"
	 overflow="visible" enable-background="new -45.816 -45.918 700 700" xml:space="preserve">
<defs>
</defs>
<g>
	<path fill="#FFFFFF" d="M16.324,355.828c6.991,27.476,17.438,53.627,31.3,77.638c3.453,6.004,7.143,11.854,10.999,17.571
		c3.848,5.723,7.9,11.291,12.146,16.693c8.517,10.783,17.686,20.991,27.568,30.408c9.895,9.398,20.345,18.152,31.388,26.032
		c5.514,3.948,11.177,7.67,16.938,11.209c5.754,3.55,11.63,6.884,17.611,9.993c23.951,12.387,49.485,21.426,75.699,26.452
		c13.093,2.558,26.337,4.2,39.612,4.819c13.276,0.622,26.568,0.255,39.767-0.971c13.182-1.253,26.327-3.48,39.162-6.624
		c12.845-3.163,25.463-7.129,37.682-12.068c12.23-4.901,24.091-10.68,35.448-17.306c11.38-6.588,22.248-14.037,32.533-22.211
		c20.579-16.338,38.763-35.675,53.845-57.182c15.096-21.499,27.063-45.178,35.448-70.062c4.2-12.442,7.465-25.195,9.845-38.116
		c2.349-12.927,3.775-26.03,4.258-39.187c0.939-26.293-1.908-52.883-8.421-78.572c-6.482-25.691-16.716-50.467-30.289-73.44
		c-27.195-45.923-68.153-84.229-117.021-108.861c-12.209-6.161-24.883-11.535-37.956-15.903
		c-13.045-4.473-26.484-7.916-40.153-10.506c-27.355-5.121-55.673-6.354-84.071-3.921l-0.012,0.001
		c-3.55,0.305-6.675-2.327-6.979-5.877c-0.271-3.173,1.804-6.006,4.783-6.788c57.56-15.177,121.198-11.177,178.422,11.344
		c14.299,5.633,28.25,12.299,41.632,20.043c13.363,7.771,26.19,16.548,38.34,26.242c24.197,19.497,45.687,42.669,63.126,68.763
		c17.547,26.013,31.078,54.877,40.025,85.131c8.927,30.249,13.408,61.849,13.03,93.578c-0.333,31.708-5.577,63.42-15.403,93.631
		c-9.813,30.224-24.234,58.93-42.522,84.9c-18.29,25.972-40.471,49.195-65.591,68.631c-12.56,9.717-25.861,18.466-39.717,26.199
		c-13.877,7.698-28.316,14.365-43.162,19.899c-14.855,5.499-30.086,9.954-45.553,13.148c-15.477,3.214-31.103,5.295-46.854,6.237
		c-15.735,0.97-31.538,0.667-47.203-0.805c-15.666-1.47-31.207-4.069-46.429-7.858c-30.421-7.649-59.604-19.761-86.146-35.976
		c-6.644-4.037-13.131-8.313-19.446-12.816c-6.309-4.512-12.418-9.286-18.352-14.251c-11.852-9.946-22.989-20.697-33.139-32.279
		c-10.162-11.563-19.496-23.81-27.721-36.727c-4.125-6.447-8.005-13.037-11.629-19.751c-3.615-6.72-6.937-13.583-10.013-20.535
		c-12.282-27.808-20.146-57.385-23.104-87.08l-0.003-0.025c-0.453-4.556,2.872-8.616,7.428-9.07
		C11.605,349.211,15.333,351.917,16.324,355.828z"/>
</g>
<path fill="#0FFFFF" d="M235.143,417.479c-4.784,0.252-9.974,0.189-15.558-0.189c-5.59-0.383-8.38-3.498-8.38-9.349v-56.082h7.836
	c1.879,0,3.555,0.639,5.003,1.906c1.449,1.276,2.18,2.804,2.18,4.584v8.581h8.919v2.668c0,1.911-0.725,3.47-2.173,4.673
	c-1.456,1.215-3.196,1.818-5.226,1.818h-1.521v28.227c0,2.166,1.445,3.245,4.352,3.245h4.567V417.479z"/>
<path fill="#0FFFFF" d="M273.453,415.383c-3.044,1.399-6.279,2.25-9.683,2.572c-3.41,0.317-6.421,0.476-9.032,0.476
	c-5.225,0-9.798-1.237-13.711-3.721c-3.922-2.474-5.878-6.58-5.878-12.299c0-5.341,1.77-9.159,5.332-11.445
	c3.549-2.29,8.087-3.818,13.605-4.577c0.724,0,1.592-0.096,2.61-0.286c1.011-0.189,2.172-0.351,3.482-0.479
	c6.381-0.763,9.571-2.418,9.571-4.959c0-1.908-1.121-3.15-3.369-3.722c-2.253-0.568-4.319-0.854-6.202-0.854
	c-2.038,0-3.849,0.255-5.441,0.761c-1.604,0.507-2.76,1.463-3.483,2.86H236.67c0.579-3.939,2.614-7.185,6.097-9.729
	c3.914-2.921,9.498-4.386,16.754-4.386c8.129,0,14.222,1.213,18.284,3.623c4.208,2.546,6.315,6.104,6.315,10.682v17.36
	c0,5.086-1.057,9.063-3.159,11.921C278.858,412.041,276.357,414.114,273.453,415.383z M269.971,391.918
	c-2.035,0.89-4.867,1.717-8.488,2.481l-5.007,0.954c-2.61,0.636-4.498,1.465-5.659,2.478c-1.019,1.404-1.524,2.798-1.524,4.194
	c0,1.91,0.651,3.436,1.962,4.583c1.303,1.018,3.19,1.521,5.655,1.521c4.062,0,7.257-1.018,9.578-3.049
	c2.32-2.035,3.483-4.831,3.483-8.394V391.918z"/>
<path fill="#0FFFFF" d="M324.601,414.431v-3.245c-2.61,3.56-6.132,5.786-10.561,6.673c-4.424,0.89-8.812,0.572-13.167-0.952
	c-4.352-1.523-8.088-4.355-11.205-8.489c-3.125-4.129-4.68-9.567-4.68-16.31c0-7.884,2.069-14.271,6.201-19.167
	c4.136-4.894,10.773-7.346,19.916-7.346c6.963,0,13.418,1.654,19.371,4.961c5.948,3.309,8.926,9.411,8.926,18.31v26.896
	c0,8.9-2.978,14.977-8.926,18.216c-5.953,3.244-12.408,4.863-19.371,4.863c-13.354,0-21.623-5.469-24.812-16.399h15.891
	c1.159,1.771,2.938,3.146,5.332,4.101c2.393,0.952,4.782,1.204,7.183,0.763c2.394-0.45,4.566-1.687,6.529-3.722
	C323.186,421.545,324.31,418.497,324.601,414.431z M299.787,392.494c0,8.773,2.904,13.641,8.705,14.591
	c5.805,0.952,10.084-0.224,12.843-3.53c1.307-1.397,2.252-3.59,2.827-6.58c0.579-2.987,0.621-5.945,0.114-8.866
	c-0.51-2.93-1.706-5.535-3.594-7.822c-1.89-2.293-4.645-3.436-8.27-3.436c-4.938,0-8.273,1.59-10.016,4.768
	C300.656,384.799,299.787,388.42,299.787,392.494z"/>
<path fill="#0FFFFF" d="M340.712,400.695h14.794c0.146,2.541,1.231,4.449,3.27,5.717c2.173,1.277,5.073,1.915,8.704,1.915
	c2.615,0,4.859-0.448,6.749-1.338c1.739-0.89,2.61-2.097,2.61-3.624c0-2.291-3.048-4.008-9.145-5.153
	c-2.61-0.38-4.566-0.762-5.873-1.141c-7.69-1.656-12.843-3.625-15.454-5.915c-2.904-2.29-4.353-5.342-4.353-9.152
	c0-4.836,2.101-8.839,6.312-12.022c4.356-2.921,10.012-4.386,16.975-4.386c7.546,0,13.567,1.465,18.067,4.386
	c4.207,3.184,6.453,7.319,6.745,12.401h-9.359c-2.755,0-4.862-1.082-6.311-3.246c-0.58-0.506-1.163-1.016-1.742-1.523
	c-1.737-1.145-4.134-1.713-7.18-1.713c-2.904,0-5.084,0.379-6.532,1.141c-1.304,0.762-1.954,1.906-1.954,3.435
	c0,2.032,3.769,3.749,11.317,5.149c0.869,0.256,1.628,0.447,2.279,0.568c0.659,0.131,1.27,0.196,1.856,0.196
	c7.396,1.652,12.545,3.559,15.449,5.719c2.755,2.292,4.135,5.342,4.135,9.159c0,5.594-2.317,9.919-6.962,12.966
	c-4.356,2.806-10.882,4.198-19.589,4.198c-8.273,0-14.439-1.459-18.502-4.388c-4.207-2.92-6.308-7.183-6.308-12.776V400.695z"/>
<path fill="#0FFFFF" d="M275.626,300.285V176.212h-51.023V165.25c0-4.38,1.752-8.108,5.252-11.177
	c3.505-3.07,7.757-4.605,12.762-4.605h119.053v26.745h-50.521v124.072H275.626z"/>
</svg>
